<svg width="17" height="17" viewBox="0 0 17 17" fill="none" xmlns="http://www.w3.org/2000/svg">
<path d="M3.69596 4.68062C3.69596 4.68062 3.95096 5.66291 3.98708 5.99069C4.02321 6.31847 3.33205 7.04575 3.33205 7.40966C3.33056 7.70448 3.42084 7.99247 3.59038 8.23369C3.75991 8.4749 4.0003 8.65739 4.27821 8.75584C4.58246 8.90878 4.83265 9.15112 4.99522 9.45033C5.15779 9.74955 5.22496 10.0913 5.18771 10.4298C5.14195 10.9357 5.04439 11.4356 4.89658 11.9216C4.89658 11.9216 4.71489 14.3595 5.69717 14.7962C6.67946 15.2328 6.46111 15.2328 6.67946 15.2328C6.8978 15.2328 8.50005 15.8868 9.44514 15.6339C9.88572 15.5592 10.2995 15.3718 10.6463 15.0899C10.9069 15.1099 11.1671 15.0466 11.3895 14.9092C11.6118 14.7718 11.7848 14.5675 11.8836 14.3255C12.1997 13.227 12.3228 12.082 12.2475 10.9414C12.1381 10.1408 11.993 9.08575 12.6475 8.72184C13.302 8.35794 13.9942 7.92178 13.8848 7.55788C13.7151 7.2236 13.4803 6.92665 13.1942 6.6845C13.1225 6.31284 13.1102 5.93218 13.1575 5.55666C13.2664 5.33831 13.9215 4.79219 13.5576 4.39216C13.2788 4.1364 12.9158 3.99212 12.5375 3.98681L11.7008 4.05959C10.7831 3.28873 9.6242 2.8639 8.42567 2.85897C7.31214 2.90609 6.24748 3.32933 5.40552 4.05959C5.0273 3.93528 4.61923 3.93528 4.24102 4.05959C3.69542 4.28059 3.58705 4.06225 3.69596 4.68062Z" fill="#FBA919"/>
</svg>
