<svg width="16" height="16" viewBox="0 0 16 16" fill="none" xmlns="http://www.w3.org/2000/svg">
<g clip-path="url(#clip0_687_4091)">
<path d="M1.2037 4.023C-0.174925 6.00437 -0.00330037 8.5825 1.04982 10.688C1.07482 10.7385 1.10107 10.7881 1.12695 10.8377L1.1762 10.9326L1.20695 10.9872L1.26182 11.0855C1.29457 11.1431 1.32807 11.2005 1.36232 11.2579L1.4197 11.3524C1.4577 11.4137 1.49657 11.4744 1.53632 11.5349L1.58607 11.6116C1.64095 11.6935 1.69707 11.7753 1.75507 11.8555L1.75995 11.8617L1.78845 11.9002C1.83857 11.9694 1.8902 12.0376 1.94245 12.1051L2.00045 12.1789C2.04707 12.2375 2.09445 12.2958 2.1427 12.3538L2.19707 12.4187C2.26195 12.4953 2.32804 12.5708 2.39532 12.6452L2.39945 12.6494L2.40707 12.6579C2.47321 12.7296 2.54038 12.8004 2.60857 12.8702L2.6732 12.9354C2.72607 12.9886 2.77982 13.041 2.83407 13.0931L2.89995 13.1556C2.97245 13.224 3.0457 13.291 3.12045 13.3565L3.12395 13.3593L3.16232 13.392C3.2282 13.449 3.2952 13.5056 3.3627 13.5611L3.4457 13.6272C3.50082 13.6715 3.55657 13.715 3.6127 13.7577L3.70195 13.8256C3.76395 13.8712 3.82632 13.9161 3.88932 13.96L3.95757 14.0084L3.97632 14.0217C4.03607 14.0629 4.0972 14.1025 4.15832 14.1421L4.23707 14.1946C4.33082 14.2539 4.42582 14.3125 4.52195 14.3691L4.6007 14.4135C4.67132 14.4542 4.74245 14.4942 4.81445 14.5334C4.85345 14.5544 4.89345 14.5742 4.9327 14.5944C4.98357 14.621 5.03407 14.648 5.08582 14.6739L5.1212 14.691L5.18382 14.7212C5.26395 14.7595 5.3447 14.7971 5.42632 14.8334L5.47757 14.8564C5.57114 14.8973 5.66545 14.9365 5.76045 14.974L5.82932 15.0011C5.91732 15.035 6.00657 15.0685 6.0962 15.1L6.1297 15.1116C6.22807 15.146 6.32732 15.1779 6.42732 15.209L6.4992 15.2305C6.60095 15.2611 6.70157 15.2977 6.80645 15.3171C13.4738 16.533 15.4106 11.3105 15.4106 11.3105C13.7839 13.4296 10.8967 13.9886 8.16107 13.3663C8.05745 13.3429 7.95695 13.3105 7.85582 13.2806L7.7797 13.2575C7.68116 13.2273 7.58315 13.1954 7.4857 13.1619L7.44532 13.1473C7.35842 13.1165 7.272 13.0845 7.18607 13.0511L7.11332 13.0225C7.01932 12.9854 6.92582 12.9466 6.83345 12.9061L6.77757 12.8814C6.69846 12.8456 6.61974 12.809 6.54145 12.7715L6.4732 12.7387C6.41182 12.7089 6.35095 12.6787 6.29057 12.6477L6.20945 12.6042C6.11795 12.5546 6.0277 12.5036 5.93832 12.4514L5.8722 12.4115C5.80582 12.3721 5.73995 12.3317 5.67495 12.2906L5.59795 12.2395C5.5372 12.199 5.47707 12.1574 5.4177 12.1151L5.35207 12.0679C5.27107 12.0079 5.1912 11.9465 5.11257 11.8839L5.0637 11.8451C4.99357 11.7876 4.92445 11.7291 4.85632 11.6696L4.79445 11.6145C4.7362 11.5621 4.67845 11.509 4.6212 11.4552L4.55995 11.3964C4.49532 11.3332 4.4317 11.269 4.36882 11.2039L4.32357 11.1556C4.25607 11.0844 4.18957 11.0123 4.12407 10.9393L4.0802 10.8893C4.02645 10.8286 3.97357 10.7672 3.9217 10.7051L3.86907 10.6416C3.8227 10.5852 3.7772 10.528 3.73257 10.4703L3.69107 10.4164C3.6327 10.3388 3.57607 10.2601 3.52107 10.1803L3.48507 10.1284C3.43232 10.0503 3.38095 9.97151 3.3312 9.89188L3.31057 9.86C3.25957 9.77513 3.21045 9.68926 3.16345 9.60238L3.13457 9.54826C3.0912 9.46601 3.04907 9.38313 3.0087 9.29951C2.9687 9.21588 2.91995 9.11626 2.8822 9.02951C2.84445 8.94276 2.8062 8.85526 2.7717 8.76626L2.7367 8.67001C2.70445 8.58363 2.67357 8.49676 2.6442 8.40938L2.61707 8.32526C2.58607 8.22713 2.55745 8.12813 2.53082 8.02838L2.51382 7.96376C2.4842 7.84988 2.45807 7.73501 2.4352 7.61926L2.42782 7.57988C2.4032 7.45438 2.38245 7.32801 2.3657 7.20088L2.36295 7.17688C2.3407 6.99126 2.3267 6.80463 2.32107 6.61763L2.32057 6.58926C2.31507 6.44013 2.31595 6.29076 2.3232 6.14163L2.3257 6.10226C2.33645 5.90513 2.35707 5.70863 2.38745 5.51388L2.38895 5.50476C2.48907 4.90576 2.69657 4.33063 3.00057 3.80763C3.30457 3.28463 3.6992 2.82163 4.16482 2.44076C4.63045 2.05988 5.15895 1.76726 5.72495 1.57638C6.29095 1.38551 6.88357 1.29938 7.47745 1.32238C8.0712 1.34538 8.65357 1.47676 9.1992 1.71063C9.74482 1.94451 10.2432 2.27701 10.6702 2.69176C11.0972 3.10651 11.4447 3.59613 11.6962 4.13551C11.9477 4.67488 12.0987 5.25401 12.1417 5.84663C12.1847 6.43926 12.1187 7.03438 11.9467 7.60501C11.7747 8.17563 11.4997 8.71126 11.1357 9.18726C10.7717 9.66326 10.3247 10.0718 9.81682 10.3938C9.30895 10.7158 8.7487 10.9463 8.16107 11.0748" fill="#0868AC"/>
</g>
<defs>
<clipPath id="clip0_687_4091">
<rect width="16" height="16" fill="white"/>
</clipPath>
</defs>
</svg>
