<svg width="17" height="17" viewBox="0 0 17 17" fill="none" xmlns="http://www.w3.org/2000/svg">
<path d="M8.50018 1.21484C5.15727 1.21484 2.44727 3.92485 2.44727 7.26776C2.44727 10.6107 5.15665 13.3207 8.50018 13.3207C11.8431 13.3207 14.5531 10.6107 14.5531 7.26776C14.5531 3.92485 11.8431 1.21484 8.50018 1.21484ZM8.50018 11.8634C5.96736 11.8634 3.90454 9.80307 3.90454 7.26776C3.90454 4.73245 5.96673 2.67212 8.50018 2.67212C11.0349 2.67212 13.0958 4.73245 13.0958 7.26776C13.0958 9.80307 11.0349 11.8634 8.50018 11.8634ZM8.50018 5.2497C7.38608 5.2497 6.48275 6.15242 6.48275 7.26713C6.48275 8.38061 7.38608 9.28456 8.50018 9.28456C9.61427 9.28456 10.5176 8.38061 10.5176 7.26713C10.5176 6.15242 9.61427 5.2497 8.50018 5.2497ZM8.50018 3.23227C6.27199 3.23227 4.46532 5.03895 4.46532 7.26713C4.46532 9.49532 6.27199 11.3026 8.50018 11.3026C10.7284 11.3026 12.535 9.49594 12.535 7.26713C12.535 5.03832 10.7277 3.23227 8.50018 3.23227ZM8.50018 9.84534C7.07958 9.84534 5.92197 8.68897 5.92197 7.26713C5.92197 5.8453 7.07958 4.68893 8.50018 4.68893C9.92139 4.68893 11.0784 5.8453 11.0784 7.26713C11.0784 8.68897 9.92139 9.84534 8.50018 9.84534Z" fill="currentColor"/>
</svg>
