<svg width="100" height="100" viewBox="0 0 100 100" fill="none" xmlns="http://www.w3.org/2000/svg">
<rect width="100" height="100" rx="50" fill="#FF6200"/>
<g clip-path="url(#clip0_902_24772)">
<path d="M73.6138 30.1349C73.6138 42.5572 63.1049 52.6229 50.1475 52.6229C37.1901 52.6229 26.6813 42.5522 26.6813 30.1349C26.6813 17.7177 37.1849 7.64697 50.1475 7.64697C63.1101 7.64697 73.6138 17.7177 73.6138 30.1349Z" fill="#E9C982"/>
<path d="M26.3862 52.509C26.3862 52.509 26.4225 52.5486 26.4432 52.5685C29.4768 55.4756 34.3947 55.4756 37.4231 52.5685L44.8673 45.4346C47.9008 42.5275 47.9008 37.8146 44.8673 34.9125C44.8466 34.8926 44.8258 34.8778 44.8051 34.8579L26.3862 52.509Z" fill="#E9C982"/>
<path d="M36.0823 61.9645C36.1134 61.9645 36.1393 61.9645 36.1652 61.9645C40.4567 61.9645 43.9303 58.6357 43.9303 54.5231V44.4375C43.9303 40.3249 40.4567 36.9961 36.1652 36.9961C36.1341 36.9961 36.1082 36.9961 36.0771 36.9961V61.9596L36.0823 61.9645Z" fill="#E9C982"/>
<path d="M74.059 52.509C74.059 52.509 74.0227 52.5486 74.002 52.5685C70.9684 55.4756 66.0505 55.4756 63.0221 52.5685L55.5779 45.4346C52.5443 42.5275 52.5443 37.8146 55.5779 34.9125C55.5986 34.8926 55.6193 34.8778 55.64 34.8579L74.059 52.509Z" fill="#E9C982"/>
<path d="M76.9062 45.0676C76.9062 45.0676 76.87 45.1072 76.8493 45.1271C73.8157 48.0342 68.8978 48.0342 65.8694 45.1271L58.4252 37.9932C55.3916 35.0861 55.3916 30.3732 58.4252 27.4711C58.4459 27.4512 58.4666 27.4363 58.4873 27.4165L76.9062 45.0676Z" fill="#E9C982"/>
<path d="M44.7689 15.9616C44.7689 15.9616 44.7482 15.9864 44.7379 15.9963C43.0243 17.6384 40.2496 17.6384 38.5413 15.9963L34.3377 11.968C32.6242 10.3259 32.6242 7.66688 34.3377 6.02977C34.3481 6.01984 34.3636 6.00992 34.374 6L44.7689 15.9616Z" fill="#E9C982"/>
<path d="M43.5419 12.7173C43.5419 12.7173 43.5419 12.7471 43.5419 12.7619C43.5419 15.0837 41.5799 16.9639 39.1572 16.9639H33.2143C30.7916 16.9639 28.8296 15.0837 28.8296 12.7619C28.8296 12.7471 28.8296 12.7322 28.8296 12.7173H43.5316H43.5419Z" fill="#E9C982"/>
<path d="M23.6685 45.0676C23.6685 45.0676 23.7047 45.1072 23.7254 45.1271C26.759 48.0342 31.6769 48.0342 34.7053 45.1271L42.1495 37.9932C45.1831 35.0861 45.1831 30.3732 42.1495 27.4711C42.1288 27.4512 42.1081 27.4363 42.0874 27.4165L23.6685 45.0676Z" fill="#E9C982"/>
<path d="M64.3629 61.9645C64.3318 61.9645 64.306 61.9645 64.2749 61.9645C59.9834 61.9645 56.5098 58.6357 56.5098 54.5231V44.4375C56.5098 40.3249 59.9834 36.9961 64.2749 36.9961C64.306 36.9961 64.3318 36.9961 64.3629 36.9961V61.9596V61.9645Z" fill="#E9C982"/>
<path d="M35.7354 38.5092C37.1538 41.7735 36.5016 45.1371 34.2859 46.0201C32.0651 46.9032 29.1195 44.9783 27.7011 41.714C26.2826 38.4497 26.9349 35.0862 29.1506 34.2031C31.3714 33.3201 34.317 35.2449 35.7354 38.5092Z" fill="#FFEFCF"/>
<path d="M64.7667 38.5092C63.3483 41.7735 64.0006 45.1371 66.2162 46.0201C68.4371 46.9032 71.3826 44.9783 72.8011 41.714C74.2195 38.4497 73.5672 35.0862 71.3516 34.2031C69.1307 33.3201 66.1852 35.2449 64.7667 38.5092Z" fill="#FFEFCF"/>
<path d="M49.6298 100C64.9893 100 78.7491 93.4218 88.0051 83.0485C83.5635 75.8452 68.2506 71.549 58.3992 67.3521H41.9682C30.2843 72.3973 15.4528 76.3214 12.0051 83.867C21.2456 93.7691 34.6793 100 49.635 100H49.6298Z" fill="#324657"/>
<path d="M42.2478 72.303C42.2478 76.5397 45.8301 79.9727 50.2511 79.9727C54.672 79.9727 58.2543 76.5397 58.2543 72.303V54.4685C58.2543 50.2318 54.672 46.7988 50.2511 46.7988C45.8301 46.7988 42.2478 50.2318 42.2478 54.4685V72.303Z" fill="#FFEFCF"/>
<g style="mix-blend-mode:multiply" opacity="0.8">
<path d="M50.2511 49.1948C54.672 49.1948 58.2543 52.6278 58.2543 56.8644V57.9807C54.8014 61.488 50.2304 63.6262 45.2244 63.6262C44.215 63.6262 43.221 63.5369 42.2478 63.3732V56.8694C42.2478 52.6328 45.8301 49.1998 50.2511 49.1998V49.1948Z" fill="#FFEFCF"/>
</g>
<path d="M69.7623 37.0804C69.7623 49.2595 61.0291 58.7845 50.2511 58.7845C39.4731 58.7845 30.7399 49.2595 30.7399 37.0804C30.7399 24.9013 29.0419 10.46 50.2511 10.46C71.4603 10.46 69.7623 24.9013 69.7623 37.0804Z" fill="#FFEFCF"/>
<path d="M43.2417 70.0708L50.5772 79.9084L57.6072 70.0708L51.0948 98.5119L43.2417 70.0708Z" fill="#556B7C"/>
<g style="mix-blend-mode:multiply" opacity="0.8">
<path d="M69.6069 26.558C69.3636 23.6757 68.8252 20.9373 67.6553 18.556H57.7107C52.974 18.556 49.0345 15.3215 48.1493 11.0303H45.6541C43.5161 11.0303 41.5489 11.695 39.9389 12.8162V12.1911C39.9389 12.1614 39.9389 12.1366 39.9337 12.1118C38.7793 12.5731 37.775 13.1288 36.8898 13.7538C35.4817 15.2024 33.7993 17.3208 32.3291 19.7169C32.2462 19.9302 32.1686 20.1485 32.0909 20.3668V34.6791C32.122 34.6791 32.1479 34.6791 32.1789 34.6791C36.2323 34.6791 39.5558 31.7025 39.9078 27.9074C41.523 29.0385 43.5057 29.7182 45.6592 29.7182H62.3129C65.2222 29.7182 67.8261 28.4928 69.6121 26.558H69.6069Z" fill="#FFEFCF"/>
</g>
<path d="M31.2523 71.8915L37.7647 63.3735H43.2417L50.8774 97.8918L31.2523 71.8915Z" fill="#324657"/>
<path d="M69.3015 71.6434L62.5717 63.3735H57.3484L51.0948 98.5119L69.3015 71.6434Z" fill="#324657"/>
<path d="M64.4664 20.2974C64.4664 20.2974 68.9547 28.8153 69.5552 32.6154C70.2437 26.2505 64.4664 20.2974 64.4664 20.2974Z" fill="#FFEFCF"/>
<path d="M45.4004 47.9546C45.4004 47.9546 47.4659 50.2267 50.3597 50.2267C53.2535 50.2267 55.3191 47.9546 55.3191 47.9546H45.4004Z" fill="#F0CDB2"/>
<path d="M28.8141 36.5001C28.8451 36.5001 28.871 36.5001 28.9021 36.5001C33.1936 36.5001 36.6672 33.1713 36.6672 29.0587V14.0122C36.6672 12.1915 32.1997 16.3289 28.9021 21.786C28.8866 21.8108 28.8451 21.8653 28.8141 21.8703V36.5001Z" fill="#E9C982"/>
<path d="M32.9556 17.6681V26.9897C32.9866 26.9897 33.0177 26.9897 33.0487 26.9897C37.6664 26.9897 41.4092 23.4029 41.4092 18.9778V10.6235C37.1436 12.087 34.5397 14.5824 32.9556 17.6631V17.6681Z" fill="#E9C982"/>
<path d="M70.8338 36.4997C70.8027 36.4997 70.7769 36.4997 70.751 36.4997C66.4594 36.4997 62.9858 33.1709 62.9858 29.0582V13.1038C62.9858 11.2832 67.4534 16.3285 70.751 21.7855C70.7665 21.8103 70.8079 21.8649 70.839 21.8698V36.4997H70.8338Z" fill="#E9C982"/>
<path d="M60.822 15.2523C56.0852 15.2523 52.1457 12.0178 51.2605 7.72656H48.7653C43.3815 7.72656 39.0175 11.9086 39.0175 17.068C39.0175 22.2274 43.3815 26.4095 48.7653 26.4095H65.4189C70.8028 26.4095 75.1668 22.2274 75.1668 17.068C75.1668 16.4429 75.0995 15.8377 74.9804 15.2474H60.822V15.2523Z" fill="#E9C982"/>
<path d="M64.6786 14.7116C64.2386 16.7059 60.7184 17.6782 56.8203 16.8845C52.9222 16.0907 50.1216 13.8335 50.5616 11.8392C51.0016 9.84491 54.5218 8.87256 58.4199 9.66631C62.318 10.4601 65.1187 12.7173 64.6786 14.7116Z" fill="#E9C982"/>
</g>
<defs>
<clipPath id="clip0_902_24772">
<rect width="76" height="94" fill="white" transform="translate(12 6)"/>
</clipPath>
</defs>
</svg>
