<svg width="44" height="44" viewBox="0 0 44 44" fill="none" xmlns="http://www.w3.org/2000/svg">
<path d="M41.25 26.334V28.0844C41.25 31.2565 37.7506 34.5372 33.484 34.5372H10.516C6.19575 34.5372 2.75 31.3101 2.75 28.083V26.334H41.25Z" fill="#9D5125"/>
<path d="M17.5697 9.32528C19.4659 9.31851 21.3231 9.86313 22.9153 10.8928C24.5075 11.9226 25.7659 13.393 26.5375 15.125C27.3747 14.5519 28.3664 14.2469 29.381 14.2505C30.6766 14.2372 31.9254 14.7348 32.8568 15.6355C33.7881 16.5363 34.3272 17.7677 34.3571 19.063C36.1409 19.2691 37.7995 20.0824 39.0546 21.3665C40.3096 22.6506 41.0848 24.3274 41.25 26.1154V26.7713C41.25 29.9984 37.7506 33.2242 33.429 33.2242H10.516C6.19575 33.2242 2.75 29.997 2.75 26.7713V26.1154C2.84042 24.6397 3.35936 23.2223 4.24322 22.0371C5.12708 20.8519 6.33749 19.9502 7.72612 19.4425V19.1675C7.72085 17.8734 7.97187 16.5911 8.46471 15.3945C8.95754 14.1979 9.68244 13.1108 10.5976 12.1958C11.5127 11.2808 12.6 10.556 13.7966 10.0633C14.9933 9.57067 16.2757 9.31983 17.5697 9.32528Z" fill="#F58535"/>
<path d="M12.3746 20.7559L9.80469 29.725H11.3351L11.9373 27.5374H14.5622L15.1122 29.725H16.6371L14.2308 20.7559H12.3746ZM12.1559 26.3934L13.2559 21.9631L14.2954 26.3934H12.1559Z" fill="white"/>
<path d="M23.0931 27.811H23.0394L21.8363 20.7559H20.3046L19.1564 27.756H19.1014L17.8983 20.7559H16.4766L18.2269 29.7786H19.8673L21.0154 22.9985H21.0704L22.2186 29.7786H23.9139L25.7193 20.7559H24.2426L23.0931 27.811Z" fill="white"/>
<path d="M30.3669 24.8572L29.3824 24.5286C28.3979 24.1463 28.0156 23.7036 28.0156 22.9432C27.9974 22.7706 28.0156 22.5962 28.0691 22.4312C28.1226 22.2661 28.2102 22.1142 28.3263 21.9852C28.4423 21.8562 28.5842 21.7531 28.7427 21.6825C28.9012 21.6119 29.0727 21.5754 29.2462 21.5754C29.4197 21.5754 29.5913 21.6119 29.7498 21.6825C29.9083 21.7531 30.0501 21.8562 30.1662 21.9852C30.2822 22.1142 30.3699 22.2661 30.4234 22.4312C30.4769 22.5962 30.4951 22.7706 30.4769 22.9432V23.1068H31.9V22.8882C31.9 21.9587 31.6814 20.5369 29.3301 20.5369C28.9713 20.4901 28.6066 20.5225 28.2617 20.6319C27.9168 20.7412 27.6001 20.9249 27.3338 21.1699C27.0676 21.4149 26.8583 21.7153 26.7207 22.05C26.5831 22.3846 26.5206 22.7454 26.5375 23.1068C26.5065 23.6788 26.683 24.2428 27.0347 24.695C27.3863 25.1472 27.8895 25.4572 28.4515 25.5681L29.436 25.8967C29.8146 25.9464 30.1603 26.1375 30.4039 26.4315C30.6474 26.7256 30.7708 27.1008 30.7491 27.4821C30.7548 27.6606 30.7229 27.8384 30.6555 28.0039C30.588 28.1693 30.4866 28.3188 30.3578 28.4426C30.229 28.5664 30.0756 28.6617 29.9075 28.7225C29.7395 28.7832 29.5606 28.808 29.3824 28.7952C28.3979 28.7952 27.9056 28.2484 27.9056 27.1548V26.9362H26.4839V27.1548C26.4388 27.5248 26.4785 27.9001 26.6 28.2525C26.7215 28.6048 26.9216 28.9249 27.1851 29.1885C27.4486 29.452 27.7687 29.6521 28.1211 29.7736C28.4734 29.8951 28.8488 29.9348 29.2187 29.8897C31.0227 29.8897 32.2259 29.1238 32.2259 27.2098C32.2336 26.6637 32.0529 26.1317 31.7143 25.7032C31.3758 25.2747 30.8999 24.976 30.3669 24.8572Z" fill="white"/>
</svg>
