<svg width="526" height="497" viewBox="0 0 526 497" fill="none" xmlns="http://www.w3.org/2000/svg">
<g clip-path="url(#clip0_692_4740)">
<path d="M7.76988 474.444C7.76988 474.444 6.88522 480.615 5.36326 482.608C4.854 483.277 3.91987 484.121 3.30875 485.328C2.35716 487.21 2.88388 490.009 3.58521 491.549C3.94606 492.34 3.55902 492.337 4.38257 492.592C6.81538 493.346 9.40243 492.075 10.4384 489.731C11.0175 488.422 11.5239 486.675 11.6257 484.472C11.8847 478.868 13.6162 476.019 13.6162 476.019L7.76697 474.441L7.76988 474.444Z" fill="#F7A491"/>
<path d="M10.9127 488.499C7.13838 489.192 4.62991 486.971 3.32329 485.309C2.36297 487.193 1.89736 490.004 2.60159 491.55C3.22434 492.914 5.03731 492.873 6.46907 492.926C7.97939 492.981 9.14924 492.137 9.90003 490.813C10.2492 490.194 10.6101 489.425 10.9127 488.499Z" fill="#F47458"/>
<path d="M423.915 377.893C427.096 378.411 426.907 378.934 427.317 378.986C427.8 379.051 433.539 376.158 433.539 376.158C433.539 376.158 450.51 367.746 451.412 367.258L463.664 351.781L473.104 356.152C473.104 356.152 459.325 372.605 458.455 373.33C457.582 374.054 433.245 382.624 431.129 383.451C431.129 383.451 428.996 385.408 427.614 386.592C426.234 387.775 424.386 388.243 423.947 388.511C423.883 388.552 422.358 389.359 420.208 389.829C418.354 390.235 419.899 388.97 419.899 388.97C419.899 388.97 423.179 387.579 423.019 387.328C422.894 387.135 421.15 388.003 419.105 388.473C418.578 388.593 418.06 388.713 417.58 388.815C416.323 389.087 415.773 388.365 417.033 387.863C417.478 387.684 418.226 387.41 418.79 387.293C419.399 387.164 419.911 386.846 420.403 386.656C421.38 386.282 422.099 386.022 422.058 385.99C422.009 385.946 422.146 385.73 421.581 385.838C420.903 385.969 419.538 386.583 418.526 386.697C417.952 386.761 416.762 386.974 416.762 386.974C416.762 386.974 414.658 387.176 414.641 386.881C414.609 386.232 415.906 385.873 416.701 385.888C417.201 385.63 418.462 385.443 418.462 385.443C418.462 385.443 420.903 384.476 420.763 384.111C420.708 383.965 419.227 384.19 417.658 384.298C416 384.412 414.798 384.412 414.71 384.091C414.571 383.579 415.889 383.384 415.889 383.384C415.889 383.384 417.053 383.214 417.434 383.126C417.882 383.024 419.192 382.612 419.192 382.612C419.192 382.612 423.685 380.956 423.522 380.622C423.359 380.289 422.617 379.594 422.303 379.594C421.986 379.594 421.421 379.912 421.104 379.915C420.787 379.915 420.106 379.857 420.059 379.457C420.013 379.056 421.77 378.227 421.77 378.227C421.77 378.227 422.995 377.739 423.915 377.888V377.893Z" fill="#F8A492"/>
<path d="M426.886 382.009C425.524 382.225 424.136 381.965 423.534 380.715C423.397 382.199 425.635 382.932 426.886 382.009Z" fill="#FE875E"/>
<path d="M455.137 361.367C455.137 361.367 458.193 364.154 459.464 365.071C460.521 365.834 465.671 368.326 465.671 368.326C465.671 368.326 470.796 360.449 473.037 356.499C475.755 351.707 477.638 344.578 476.994 344.385C475.19 343.842 472.711 343.511 470.421 344.566C462.494 348.218 455.14 361.367 455.14 361.367H455.137Z" fill="#FF6200"/>
<path d="M46.9975 326.75C47.1867 322.163 46.5174 317.631 44.4803 313.362C42.7285 309.687 38.3954 307.604 34.4435 307.598C21.8953 307.58 20.3006 324.299 12.3125 330.747C9.87093 332.716 7.1442 334.323 4.83361 336.448C-3.69579 344.293 0.145493 358.82 7.97648 365.698C13.4096 370.472 21.9506 373.184 28.6496 369.452C32.1446 367.504 34.7985 364.266 36.6901 360.719C39.3732 355.685 41.1047 349.873 43.0107 344.509C45.042 338.797 46.7444 332.851 46.9946 326.753L46.9975 326.75Z" fill="#684037"/>
<path d="M49.0462 348.967C45.1264 337.028 39.9523 337.215 39.9523 337.215L44.134 362.635C46.5552 361.972 49.7068 360.49 52.1251 359.806C51.3248 356.031 50.0124 351.906 49.0491 348.967H49.0462Z" fill="#F7CC7F"/>
<path d="M68.855 389.682L54.5259 378.708C54.5259 378.708 53.0854 368.47 51.1531 359.383C48.7348 360.069 46.5523 361.972 44.134 362.638L47.7774 382.985L66.559 392.715L71.864 399.561L73.0717 392.534L68.8579 389.685L68.855 389.682Z" fill="#F48C7F"/>
<path d="M199.473 372.539C203.923 372.539 208.099 373.716 211.707 375.776C212.164 376.036 212.659 376.273 213.186 376.492C224.197 381.032 236.245 372.623 236.245 360.67V301.892H177.703C165.798 301.892 157.423 289.796 161.945 278.74C162.16 278.211 162.399 277.714 162.658 277.255C164.71 273.629 165.882 269.44 165.882 264.972C165.882 250.816 154.126 239.415 139.881 240.078C126.989 240.677 116.609 251.31 116.248 264.262C116.12 268.87 117.241 273.203 119.289 276.949C119.545 277.416 119.778 277.922 119.994 278.459C124.478 289.697 115.969 301.895 103.913 301.895H45.8743V435.828C45.8743 467.421 71.3839 493.034 102.85 493.034H236.245V434.452C236.245 422.44 224.156 413.979 213.078 418.505C212.548 418.721 212.051 418.957 211.594 419.215C207.648 421.438 203.032 422.61 198.126 422.35C185.488 421.678 175.276 411.367 174.68 398.671C174.007 384.357 185.365 372.542 199.473 372.542V372.539Z" fill="#F47458"/>
<path d="M34.3795 477.266C34.3795 477.266 34.9266 484.222 34.4814 486.487C34.2427 487.699 32.9245 490.192 33.5298 491.328C34.1351 492.468 34.8277 492.754 34.8277 492.754L50.5333 493.008C51.3888 493.023 50.8243 492.468 50.1346 491.956C49.0055 491.121 48.0946 490.569 44.4862 488.813C44.2504 488.699 43.3949 488.149 43.0864 487.959C42.3036 487.477 41.5179 486.721 40.8399 485.964C39.7107 484.702 39.6147 478.572 39.6147 478.572L34.3795 477.266Z" fill="#F7A491"/>
<path d="M43.0864 487.963C38.9338 489.035 35.8607 488.308 34.1438 487.609C33.7015 488.872 33.1136 490.458 33.425 491.373C33.8062 492.492 34.3504 492.743 34.8277 492.758C38.6224 492.857 48.7261 492.994 51.6187 493.032C52.0232 493.038 52.2444 492.562 51.9854 492.249C51.2666 491.387 43.3949 488.153 43.0835 487.963H43.0864Z" fill="#F47458"/>
<path d="M46.6542 384.773C46.6542 384.773 48.633 396.071 47.3322 403.478C46.0314 410.885 39.801 479.539 39.801 479.539L32.875 479.933C32.875 479.933 31.4229 451.256 31.6819 447.267C31.9409 443.279 33.9983 436.606 33.9983 436.606L33.3086 413.45L42.0504 383.031L46.6542 384.776V384.773Z" fill="#FF6200"/>
<path d="M26.2983 382.399C26.2983 382.399 20.8448 390.659 19.544 397.499C18.2461 404.336 20.4985 425.347 17.9987 434.308C16.6456 439.158 11.5209 446.647 10.741 452.914C9.96115 459.182 6.90558 475.599 6.90558 475.599L13.8286 476.981L29.9184 435.982L42.5393 398.925L45.7724 379.84L26.2924 382.402L26.2983 382.399Z" fill="#C05013"/>
<path d="M30.7128 335.395C30.7128 335.395 23.4901 334.933 20.6353 338.066C17.7776 341.198 26.9734 365.986 27.4914 369.975C28.0094 373.963 24.8432 384.566 24.8432 384.566C24.8432 384.566 41.806 388.002 46.6571 384.774C46.6571 384.774 47.1751 356.096 46.6571 353.247C46.1391 350.399 41.8089 338.814 40.77 337.674C39.7311 336.535 30.7157 335.395 30.7157 335.395H30.7128Z" fill="#F7CC7F"/>
<path d="M33.1166 325.683C33.1166 325.683 33.0787 325.896 33.0118 326.262C32.6888 328.009 31.4491 333.806 30.611 335.398C29.5983 337.324 34.0769 343.465 38.3867 342.714C39.67 342.492 37.3012 337.072 37.4147 336.497C37.633 335.398 37.9269 333.899 38.2295 332.362C38.4012 331.495 38.5729 330.615 38.7359 329.788C39.1957 327.439 39.574 325.52 39.574 325.52L33.1166 325.68V325.683Z" fill="#F7A491"/>
<path d="M33.0118 326.262C33.0787 325.896 33.1165 325.683 33.1165 325.683L39.574 325.52C39.574 325.52 39.1986 327.439 38.7359 329.788C38.5758 330.609 38.4041 331.483 38.2324 332.348C37.2343 332.199 36.1925 331.711 35.1478 330.793C34.0099 329.791 33.262 328.585 32.811 327.299C32.8895 326.887 32.9565 326.533 33.0059 326.265L33.0118 326.262Z" fill="#F47458"/>
<path d="M37.4642 310.912C37.4642 310.912 34.4202 310.558 32.5112 313.042C30.6022 315.525 28.5477 323.204 33.2853 327.379C38.0258 331.554 42.7081 326.827 43.4036 321.816C44.0991 316.805 44.3668 310.731 37.4642 310.912Z" fill="#F7A491"/>
<path d="M36.3409 324.059L40.0134 324.225C40.0134 324.225 39.865 325.622 38.2499 325.595C36.2769 325.563 36.3438 324.059 36.3438 324.059H36.3409Z" fill="white"/>
<path d="M44.8062 321.745C44.2417 322.852 43.2901 323.466 42.6848 323.115C42.0795 322.765 42.0475 321.584 42.6121 320.477C43.1766 319.369 44.1282 318.756 44.7335 319.106C45.3388 319.457 45.3708 320.638 44.8062 321.745Z" fill="#F7A491"/>
<path d="M37.8046 310.089C37.8046 310.089 33.7393 317.391 30.8292 317.73C27.9192 318.066 27.5379 321.949 27.5379 321.949C27.5379 321.949 28.5768 313.008 31.4578 311.281C34.3388 309.557 37.8046 310.089 37.8046 310.089Z" fill="#684037"/>
<path d="M31.5917 319.568C31.8274 320.865 31.353 322.054 30.5295 322.223C29.7059 322.393 28.8475 321.481 28.6089 320.184C28.3731 318.887 28.8475 317.698 29.671 317.528C30.4946 317.359 31.353 318.27 31.5917 319.568Z" fill="#F7A491"/>
<path d="M326.355 339.931C326.562 335.469 327.929 331.335 330.147 327.811C330.426 327.367 330.688 326.879 330.93 326.362C335.961 315.531 328.156 303.055 316.266 302.497L257.788 299.75L255.053 358.464C254.497 370.402 242.071 378.239 231.28 373.187C230.762 372.944 230.279 372.684 229.837 372.401C226.327 370.174 222.213 368.804 217.766 368.594C203.681 367.933 191.791 379.191 191.785 393.508C191.779 406.463 201.871 417.373 214.74 418.338C219.317 418.682 223.679 417.762 227.503 415.88C227.98 415.647 228.492 415.433 229.04 415.243C240.43 411.27 252.169 420.374 251.607 432.464L248.898 490.673L382.147 496.928C413.578 498.404 440.252 474.016 441.722 442.457L447.952 308.67L389.666 305.935C377.718 305.374 368.734 317.103 372.721 328.428C372.91 328.968 373.123 329.479 373.358 329.95C375.387 334.011 376.338 338.695 375.849 343.603C374.592 356.249 363.854 366.008 351.198 366.014C336.927 366.02 325.7 354.078 326.361 339.928L326.355 339.931Z" fill="#F7CC7F"/>
<path d="M280.763 481.858C280.763 481.858 280.393 487.997 280.391 488.009C280.254 488.789 279.721 490.714 279.721 491.421C279.721 494.083 292.31 489.163 289.487 487.982C289.231 487.877 287.893 487.068 287.811 486.162C287.683 484.766 287.354 481.943 287.354 481.943L280.763 481.855V481.858Z" fill="#F7A491"/>
<path d="M289.458 487.961C289.458 487.961 286.502 488.776 284.988 488.978C283.475 489.182 281.479 487.467 280.408 487.932C279.229 488.44 279.276 493.027 279.276 493.027C279.276 493.027 295.124 494.333 299.582 492.984C301.349 492.449 295.5 489.857 289.458 487.961Z" fill="#DD513A"/>
<path d="M255.012 481.859C255.012 481.859 254.642 487.998 254.639 488.01C254.503 488.79 253.97 490.715 253.97 491.422C253.97 494.084 266.559 489.164 263.736 487.983C263.48 487.878 261.746 486.467 261.661 485.561C261.533 484.165 261.6 481.944 261.6 481.944L255.009 481.859H255.012Z" fill="#F7A491"/>
<path d="M263.707 487.961C263.707 487.961 260.751 488.776 259.237 488.978C257.724 489.182 255.728 487.467 254.657 487.932C253.478 488.44 253.432 493.027 253.432 493.027C253.432 493.027 269.353 494.55 273.831 492.984C275.569 492.376 269.748 489.857 263.707 487.961Z" fill="#DD513A"/>
<path d="M505.307 482.109C505.307 482.109 505.644 488.14 505.647 488.155C505.772 488.92 506.261 490.813 506.261 491.509C506.261 494.124 494.705 489.288 497.295 488.131C497.531 488.026 498.756 487.234 498.835 486.343C498.954 484.973 499.254 482.197 499.254 482.197L505.304 482.112L505.307 482.109Z" fill="#F7A491"/>
<path d="M497.185 488.155C497.185 488.155 499.897 488.955 501.288 489.154C502.676 489.355 504.509 487.67 505.493 488.125C506.575 488.625 506.532 493.133 506.532 493.133C506.532 493.133 491.984 494.416 487.893 493.09C486.272 492.564 491.641 490.019 497.187 488.155H497.185Z" fill="#F7CC7F"/>
<path d="M524.548 481.801C524.548 481.801 524.888 487.831 524.888 487.846C525.013 488.612 525.502 490.505 525.502 491.2C525.502 493.815 513.947 488.98 516.536 487.823C516.769 487.717 518.361 486.332 518.44 485.441C518.559 484.071 518.495 481.888 518.495 481.888L524.545 481.804L524.548 481.801Z" fill="#F7A491"/>
<path d="M516.568 487.795C516.568 487.795 519.281 488.596 520.672 488.795C522.06 488.996 523.893 487.31 524.877 487.766C525.959 488.266 526.003 492.774 526.003 492.774C526.003 492.774 511.557 493.37 507.277 492.73C505.592 492.479 511.025 489.659 516.571 487.795H516.568Z" fill="#F7CC7F"/>
<path d="M521.123 386.006C521.123 386.006 523.081 396.18 522.284 403.893C521.486 411.607 521.422 439.011 521.422 439.011L525.104 482.841L517.241 483.025C517.241 483.025 508.673 439.201 508.831 440.326C508.991 441.45 505.958 409.468 505.958 409.468L516.173 385.039L521.12 386.003L521.123 386.006Z" fill="#FF6200"/>
<path d="M257.864 385.033C257.864 385.033 255.731 395.387 256.601 403.238C257.471 411.089 257.538 438.984 257.538 438.984L254.22 483.611L262.092 483.784C262.092 483.784 271.428 439.177 271.253 440.322C271.078 441.467 274.384 408.915 274.384 408.915L263.256 384.051L257.867 385.033H257.864Z" fill="#184655"/>
<path d="M259.947 384.543C259.947 384.543 258.556 393.866 260.294 397.957C262.031 402.047 275.208 442.172 275.382 445.442C275.557 448.711 279.937 484.875 279.937 484.875L289.089 484.617L291.07 444.413L286.924 393.884L282.899 381.109L259.947 384.545V384.543Z" fill="#286072"/>
<path d="M518.381 379.434C518.381 379.434 527.254 388.816 523.954 399.065C522.63 403.182 510.265 442.507 510.105 445.721C509.945 448.935 505.924 484.461 505.924 484.461L497.522 484.207L495.703 444.707L498.104 391.486L503.203 382.51L518.381 379.434Z" fill="#C05013"/>
<path d="M251.47 366.658C251.659 367.313 251.77 367.532 252.009 367.973C253.563 370.816 257.171 374.871 257.171 374.871L259.962 368.557C259.962 368.557 259.508 366.573 258.716 363.742C256.022 364.449 253.452 364.858 251.464 366.661L251.47 366.658Z" fill="#F8A492"/>
<path d="M163.406 247.484C163.63 251.946 162.67 256.191 160.801 259.917C160.566 260.387 160.353 260.896 160.164 261.436C156.201 272.705 165.169 284.366 177.06 283.765L235.529 280.813L232.59 222.108C231.993 210.173 243.604 201.165 254.829 205.144C255.367 205.334 255.873 205.548 256.342 205.784C260.049 207.66 264.277 208.624 268.724 208.399C282.806 207.689 293.556 195.327 292.182 181.075C290.939 168.178 279.841 158.302 266.94 158.591C262.351 158.693 258.097 160.035 254.473 162.279C254.022 162.559 253.531 162.819 253.007 163.062C242.056 168.125 229.491 160.204 228.885 148.114L225.969 89.9141L92.7437 96.6401C61.318 98.2266 37.1208 125.093 38.7009 156.645L45.3999 290.409L103.674 287.466C115.62 286.865 123.43 274.318 118.373 263.435C118.131 262.914 117.872 262.429 117.59 261.982C115.18 258.137 113.781 253.568 113.795 248.636C113.827 235.929 123.573 225.171 136.171 223.935C150.375 222.541 162.699 233.337 163.409 247.484H163.406Z" fill="#50BFA5"/>
<path d="M283.077 215.085C278.627 215.085 274.451 213.908 270.843 211.848C270.386 211.588 269.891 211.348 269.364 211.132C258.353 206.592 246.305 215.001 246.305 226.954V285.732H304.847C316.752 285.732 325.127 297.828 320.605 308.884C320.389 309.413 320.151 309.91 319.892 310.368C317.84 313.994 316.667 318.184 316.667 322.652C316.667 336.808 328.424 348.209 342.669 347.546C355.56 346.947 365.941 336.314 366.301 323.362C366.43 318.754 365.309 314.421 363.26 310.675C363.004 310.208 362.772 309.702 362.556 309.165C358.069 297.927 366.578 285.729 378.637 285.729H436.676V151.796C436.676 120.202 411.166 94.5898 379.699 94.5898H246.305V153.172C246.305 165.184 258.393 173.645 269.472 169.119C270.002 168.903 270.499 168.667 270.956 168.409C274.902 166.186 279.518 165.011 284.424 165.274C297.062 165.946 307.274 176.257 307.87 188.953C308.543 203.267 297.185 215.082 283.077 215.082V215.085Z" fill="#FF6200"/>
<path d="M267.473 361.18C267.473 361.18 251.904 367.912 251.4 367.783C251.077 367.701 245.016 357.513 244.949 347.935C244.92 343.512 249.494 338.188 254.602 339.24C257.171 339.769 257.133 340.488 260.937 346.036C264.74 351.585 267.473 361.18 267.473 361.18Z" fill="#684037"/>
<path d="M258.859 370.059L269.946 354.465C269.993 354.328 270.095 354.05 270.249 353.623C270.808 352.075 271.969 348.858 272.982 345.653L272.993 345.618C273.31 344.499 273.986 342.544 274.637 340.656C275.362 338.556 276.261 335.949 276.293 335.505C276.264 335.429 276.212 335.292 276.142 335.111C275.734 334.05 275.184 331.529 274.992 330.43C274.867 329.732 274.745 328.034 275.572 328.034C276.872 328.034 276.252 329.732 276.852 330.789C277.073 330.082 277.518 328.677 277.754 327.257L277.972 323.941C278.013 323.692 277.748 321.863 278.662 321.863H278.706C279.523 321.925 279.506 323.871 279.846 327.158C279.954 326.778 280.062 326.322 280.143 325.904C280.134 325.679 280.297 324.692 280.42 324.169C280.254 323.251 280.35 321.808 281.322 321.942C281.808 322.009 281.77 324.028 281.77 324.028C281.764 324.306 281.735 326.439 281.752 326.86C281.851 326.144 282.241 323.09 283.004 323.09C283.635 323.09 283.688 323.911 283.673 324.563C283.664 324.949 283.269 328.253 283.245 328.639C283.542 328.136 283.897 325.223 284.191 325.223C285.425 325.223 284.98 329.366 284.526 330.448C284.482 330.559 284.438 330.775 284.386 331.026C284.232 331.765 283.973 333.001 283.33 334.109C282.556 335.438 281.488 337.553 281.325 337.878C281.205 338.538 280.833 340.914 280.367 343.903C280.166 345.182 279.948 346.582 279.721 348.034H279.71C279.669 348.347 279.436 349.346 278.56 353.095C277.361 358.225 277.236 358.447 277.184 358.541C276.663 359.467 264.708 375.765 264.199 376.46L263.899 376.869L258.865 370.064L258.859 370.059Z" fill="#F7A491"/>
<path d="M268.817 370.311L290.203 366.811C290.203 366.811 287.771 360.66 286.9 360.66C286.03 360.66 270.729 367.366 270.729 367.366L269.513 369.82L268.817 370.311Z" fill="#F8A492"/>
<path d="M278.81 360.355C278.81 360.355 286.9 368.019 290.553 366.71C294.205 365.401 295.715 360.928 286.804 354.383C278.831 348.525 278.81 360.352 278.81 360.352V360.355Z" fill="#F8A492"/>
<path d="M279.48 333.689C279.48 333.689 278.58 331.378 276.977 331.375C276.977 331.375 277.873 331.051 278.639 331.661C279.404 332.272 279.477 333.689 279.477 333.689H279.48Z" fill="#F47458"/>
<path d="M256.179 329.224L254.753 338.287C254.753 338.287 260.192 342.673 263.361 341.747C266.021 340.97 264.196 337.481 264.196 337.481C264.196 337.481 262.779 332.642 263.212 330.106C263.646 327.57 256.179 329.227 256.179 329.227V329.224Z" fill="#F7A491"/>
<path d="M254.753 338.286C254.753 338.286 257.011 339.773 259.115 339.601C261.219 339.428 264.196 337.477 264.196 337.477L263.783 336.068C263.783 336.068 258.338 335.271 258.198 335.358C258.062 335.443 254.753 338.286 254.753 338.286Z" fill="#F7A491"/>
<path d="M284.293 369.818C283.091 363.253 274.381 342.826 273.686 339.066C273.348 337.237 268.648 337.196 264.176 337.436C259.45 337.687 254.753 338.289 254.753 338.289C254.753 338.289 250.568 338.978 248.729 340.711C246.89 342.444 246.398 347.232 249.046 356.325C251.136 363.501 253.726 367.443 255.006 372.673C255.265 374.426 255.489 376.155 255.783 378.177C256.254 385.996 255.777 396.322 255.777 396.322C255.777 396.322 278.554 401.067 287.075 393.867C287.075 393.867 285.524 376.547 284.293 369.821V369.818Z" fill="#FF6200"/>
<path d="M290.099 355.706C290.099 355.706 281.162 363.113 280.638 363.113C280.303 363.113 267.883 353.941 265.017 346.406C263.434 342.239 266.757 337.579 270.552 337.594C273.182 337.605 274.352 338.286 279.57 342.701C284.788 347.116 290.096 355.703 290.096 355.703L290.099 355.706Z" fill="#C05013"/>
<path d="M464.519 348.899C467.423 345.644 473.747 341.013 473.747 341.013C473.747 341.013 477.512 337.781 479.049 337.25C481.31 336.467 485.18 334.38 490.779 342.9C494.787 348.998 520.069 380.568 524.222 381.632L497.118 394.652C496.376 388.434 482.981 376.685 481.051 374.494C476.741 369.594 461.769 351.979 464.519 348.899Z" fill="#F47458"/>
<path d="M447.431 393.66C448.351 392.31 448.752 390.362 450.027 388.874C450.455 388.375 451.136 387.814 451.91 387.253C458.033 383.656 473.98 374.385 474.6 373.666C475.336 372.813 486.219 354.657 486.219 354.657L476.444 352.434L466.891 369.371C466.093 370.008 450.929 381.26 450.929 381.26C450.929 381.26 447.914 383.627 446.264 384.734C445.432 385.222 444.623 385.538 443.916 385.786C443.025 386.096 441.332 386.946 440.988 387.247C440.59 387.598 439.792 388.351 439.321 388.81C438.846 389.269 438.273 389.789 438.049 390.061C437.915 390.227 437.496 390.455 437.188 390.61C436.731 390.841 436.789 391.522 437.281 391.662C437.746 391.793 438.372 391.501 438.762 391.317C439.859 390.8 441.201 389.4 441.271 389.573C441.34 389.745 439.978 392.74 439.845 393.094C439.711 393.447 438.148 396.939 438.067 397.716C437.985 398.493 438.454 398.674 438.8 398.391C439.1 398.145 441.614 393.485 441.614 393.485C441.614 393.485 441.937 392.892 442.062 393.231C442.187 393.57 439.912 397.809 439.69 398.505C439.469 399.2 439.644 399.77 440.287 399.527C441.067 399.229 443.217 394.557 443.217 394.557C443.217 394.557 443.497 393.976 443.689 394.177C443.881 394.379 441.885 397.952 441.861 398.364C441.838 398.776 442.208 399.183 442.749 398.838C443.383 398.432 445.269 394.245 445.269 394.245C445.269 394.245 445.502 393.967 445.575 394.163C445.647 394.359 444.163 397.526 444.274 397.988C444.367 398.376 444.716 398.297 444.716 398.297C445.493 398.297 446.515 395.013 447.434 393.663L447.431 393.66Z" fill="#F8A492"/>
<path d="M56.6008 354.635C56.8598 353.887 53.2455 353.285 53.0505 352.531C52.8584 351.777 57.6164 351.716 57.7852 351.053C58.0994 349.831 52.5703 350.796 52.678 350.223C52.7886 349.65 58.4399 348.373 57.8288 347.395C57.2177 346.416 52.1047 349.332 51.9505 348.666C51.7962 347.999 56.9471 346.381 56.8568 344.923C56.8074 344.143 48.4002 348.812 47.4253 348.388C46.4505 347.964 48.4729 344.3 47.6989 343.757C46.9219 343.214 44.6928 351.205 44.1573 351.473C43.6219 351.739 32.2639 358.249 28.2218 359.283C27.73 357.925 26.6707 356.09 26.2371 354.807C23.9702 356.429 22.2853 357.241 19.9456 358.72C21.6422 362.985 24.0546 367.657 25.2361 368.195C28.8329 369.825 42.743 358.243 45.5221 356.259C48.3013 354.276 49.8931 354.918 51.7701 354.293C53.65 353.668 56.3418 355.389 56.6008 354.644V354.635Z" fill="#F7A491"/>
<path d="M19.4625 360.763C19.4625 360.763 16.3487 346.957 16.89 342.951C17.4284 338.945 22.1718 335.214 25.4572 336.599C28.7427 337.984 30.2327 357.256 30.2327 357.256L19.4654 360.763H19.4625Z" fill="#F7CC7F"/>
<path d="M465.782 335.671L474.224 340.632C474.224 340.632 474.463 347.869 471.701 349.748C469.385 351.326 467.624 347.539 467.624 347.539C467.624 347.539 464.484 343.171 462.101 341.81C459.715 340.448 465.782 335.668 465.782 335.668V335.671Z" fill="#F7A491"/>
<path d="M483.539 364.251C483.539 364.251 480.356 363.235 478.313 362.297C476.945 361.669 470.979 358.688 470.979 358.688C470.979 358.688 473.552 347.796 475.289 343.878C481.671 329.505 488.92 339.416 489.904 341.727C492.104 346.896 483.536 364.251 483.536 364.251H483.539Z" fill="#FF6200"/>
<path d="M467.199 338.853C466.882 340.363 466.146 342.546 465.008 344.343C464.077 343.332 463.032 342.341 462.101 341.81C461.001 341.181 461.699 339.826 462.773 338.546C464.289 336.962 465.782 335.668 465.782 335.668L467.403 336.623C467.508 337.243 467.304 338.353 467.196 338.856L467.199 338.853Z" fill="#F47458"/>
<path d="M257.206 331.963C258.568 332.609 261.263 333.491 263.361 333.704C263.16 332.436 263.047 331.095 263.215 330.105C263.416 328.933 261.932 328.658 260.279 328.699C258.114 328.886 256.182 329.225 256.182 329.225L255.908 330.966C256.319 331.402 256.752 331.75 257.206 331.966V331.963Z" fill="#FE875E"/>
<path d="M249.317 318.77C249.093 318.77 251.467 328.894 255.14 330.635C258.812 332.377 264.292 331.468 265.322 328.742C266.46 325.727 262.31 315.398 257.145 314.086C251.977 312.774 249.317 318.77 249.317 318.77Z" fill="#F7A491"/>
<path d="M253.568 309.469C250.635 311.17 249.288 313.689 248.834 314.723C247.457 315.38 245.79 316.797 244.99 320.622C244.006 325.323 247.504 328.949 251.211 330.039C254.919 331.129 255.492 333.592 255.492 333.592L255.911 330.942C255.911 330.942 255.088 328.634 253.845 327.48C252.605 326.325 254.433 324.64 254.593 323.266C254.718 322.209 253.941 320.155 254.11 318.419C254.11 318.419 256.17 315.284 258.201 314.51C261.664 313.189 257.331 307.287 253.566 309.467L253.568 309.469Z" fill="#684037"/>
<path d="M255.131 325.032C255.611 326.201 255.416 327.364 254.692 327.627C253.97 327.89 252.995 327.154 252.515 325.985C252.035 324.816 252.23 323.653 252.954 323.393C253.676 323.13 254.651 323.864 255.131 325.035V325.032Z" fill="#F7A491"/>
<path d="M461.385 323.235C461.527 323.059 468.468 331.731 467.612 335.801C466.757 339.871 462.561 343.582 459.645 342.562C456.42 341.435 450.423 331.223 452.573 326.265C454.724 321.306 461.385 323.238 461.385 323.238V323.235Z" fill="#F7A491"/>
<path d="M453.787 320.495C456.813 318.807 461.749 318.321 465.436 320.259C469.97 322.643 471.003 328.638 469.583 332.297C468.162 335.955 469.789 338.023 469.789 338.023L467.385 336.612C467.385 336.612 465.98 334.409 465.797 332.656C465.613 330.9 463.064 331.212 461.818 330.415C460.861 329.801 459.636 327.812 458.088 326.777C458.088 326.777 454.182 326.295 452.265 327.379C448.991 329.223 449.457 322.915 453.79 320.495H453.787Z" fill="#684037"/>
<path d="M456.659 338.786L460.334 336.027C460.334 336.027 461.306 337.517 459.726 338.78C457.8 340.317 456.662 338.786 456.662 338.786H456.659Z" fill="white"/>
<path d="M463.768 331.879C463.745 333.179 464.359 334.245 465.136 334.257C465.913 334.269 466.562 333.226 466.585 331.925C466.608 330.625 465.994 329.559 465.217 329.547C464.44 329.535 463.792 330.578 463.768 331.879Z" fill="#F7A491"/>
<path d="M261.175 326.613L264.205 324.34C264.205 324.34 265.005 325.57 263.701 326.61C262.112 327.878 261.175 326.616 261.175 326.616V326.613Z" fill="white"/>
<path d="M332.434 121.914C332.434 121.914 333.103 129.669 334.334 131.816C335.565 133.964 334.27 137.613 334.206 138.115C334.142 138.618 331.616 139.331 327.6 138.904C323.585 138.478 323.652 137.546 323.975 136.041C324.298 134.536 326.434 132.605 326.564 131.173C326.693 129.742 325.334 124.588 325.334 124.588L332.434 121.914Z" fill="#F7A491"/>
<path d="M327.1 139.504C322.965 139.063 323.477 137.023 323.812 135.475C324.021 134.505 325.206 133.362 325.913 132.281C326.282 132.576 326.885 133.099 328.68 133.631C330.546 134.183 333.101 133.091 334.727 132.404C335.306 134.572 335.336 137.339 335.28 137.76C335.213 138.277 331.235 139.945 327.1 139.504Z" fill="#DD513A"/>
<path d="M360.458 128.547C360.458 128.547 359.623 131.238 361.119 133.02C362.617 134.8 368.839 136.547 369.654 137.511C370.472 138.475 370.408 139.296 370.408 139.296L352.944 138.814L353.133 133.52L353.937 129.716L360.452 128.55L360.458 128.547Z" fill="#F7A491"/>
<path d="M362.207 133.906C362.207 133.906 357.72 135.729 355.552 134.648C353.384 133.567 353.451 133.269 352.822 133.672C352.193 134.075 351.969 139.039 351.969 139.039L371.606 139.618C372.971 139.586 373.664 138.575 372.555 137.71C371.793 137.117 370.914 136.719 370.413 136.43C368.877 135.545 362.207 133.903 362.207 133.903V133.906Z" fill="#DD513A"/>
<path d="M108.051 129.441C107.221 134.181 107.163 138.601 107.184 139.133C107.192 139.387 107.768 140.521 107.786 140.787C105.307 146.017 100.682 147.942 96.6112 149.026C98.3224 146.563 101.04 144.015 101.064 143.335C101.101 142.251 101.494 137.377 100.901 130.847C103.694 131.548 105.257 130.268 108.048 129.444L108.051 129.441Z" fill="#F7A491"/>
<path d="M106.808 139.283C107.46 138.558 109.861 142.544 110.457 143.397C111.132 144.355 110.94 145.074 110.859 145.226C110.646 145.62 97.9993 153.091 94.9147 153.623C94.6237 153.673 94.1173 153.489 93.9922 153.375C92.7874 152.302 98.334 144.393 100.828 143.353C102.437 142.681 103.869 142.544 106.808 139.283Z" fill="#684037"/>
<path d="M89.0422 120.144C87.3427 124.643 86.4609 128.976 86.3824 129.499C86.3445 129.75 86.6996 130.975 86.6646 131.235C83.254 135.907 78.3535 136.926 74.1514 137.224C76.2932 135.127 79.436 133.137 79.5874 132.471C79.8289 131.413 81.121 126.7 81.7583 120.173C84.3715 121.388 86.1437 120.424 89.0422 120.141V120.144Z" fill="#F7A491"/>
<path d="M85.9779 129.641C86.7548 129.05 88.367 133.418 88.7948 134.368C89.2779 135.434 88.9548 136.107 88.8472 136.238C88.5649 136.586 74.7479 141.544 71.6167 141.486C71.3199 141.48 70.8601 141.202 70.7553 141.068C69.7717 139.788 76.6977 133.062 79.34 132.51C81.0482 132.153 82.48 132.288 85.9749 129.638L85.9779 129.641Z" fill="#684037"/>
<path d="M158.587 93.315C158.779 93.3063 175.905 92.4414 175.905 92.4414C175.905 92.4414 168.798 97.5692 168.653 97.5692C168.507 97.5692 162.993 95.3837 162.751 95.3837C162.51 95.3837 158.584 93.315 158.584 93.315H158.587Z" fill="#50BFA5"/>
<path d="M349.452 30.086C349.909 30.1064 351.163 30.5272 352.994 34.0012C355.333 38.4423 358.753 51.8534 358.753 51.8534L348.544 55.6693L347.232 52.8702L345.073 31.319C345.073 31.319 349.324 30.0801 349.449 30.086H349.452Z" fill="#DD513A"/>
<path d="M335.958 28.1562C338.877 28.1592 346.1 29.0153 349.452 30.0905C349.452 30.0905 351.914 51.3408 347.235 67.4897C346.187 71.1039 348.102 82.4756 348.102 82.4756L317.855 82.0753C317.855 82.0753 321.437 54.587 320.09 50.1487C318.739 45.7076 318.707 30.2366 318.707 30.2366C318.707 30.2366 318.914 30.2044 325.502 29.062C328.575 28.5273 332.842 28.1563 335.958 28.1592V28.1562Z" fill="#F47458"/>
<path d="M344.688 76.074C344.688 76.074 365.568 74.9112 370.23 77.7453C374.892 80.5795 366.918 94.4961 366.918 94.4961C366.918 94.4961 352.388 93.824 323.931 95.4719C317.191 95.8635 316.612 77.8301 317.872 76.337C319.132 74.844 344.688 76.074 344.688 76.074Z" fill="#E0973F"/>
<path d="M329.381 91.0678C330.217 97.4053 334.346 128.958 334.346 128.958L324.763 130.15C324.763 130.15 312.977 88.9671 313.583 82.6706C314.188 76.3711 318.6 75.8423 318.6 75.8423C318.6 75.8423 327.176 74.2937 329.384 91.0708L329.381 91.0678Z" fill="#F7CC7F"/>
<path d="M318.378 32.5947C321.207 31.5311 322.589 57.1145 322.971 67.6447C327.979 68.1297 336.709 67.6476 338.883 67.484C339.904 67.4081 342.261 66.5403 343.277 66.4059C344.319 66.2685 345.262 66.1984 345.774 66.2861C345.963 66.3182 351.181 68.4628 351.629 68.9332C352.182 69.5147 353.68 70.9873 353.427 71.6213C353.174 72.2583 350.546 69.8507 350.546 69.8507L349.263 69.1261C350.861 70.6922 353.91 72.7579 353.471 73.5088C353.043 74.2422 350.293 72.1472 348.335 70.7185C350.017 72.2436 352.103 74.9697 351.623 75.3963C351.189 75.779 348.815 72.6206 346.277 71.7119C345.337 71.3759 344.4 72.3079 343.658 72.4219C343.114 72.5037 342.273 72.6819 341.74 72.53L338.993 71.7469C338.056 71.8317 338.033 72.3897 337.087 72.5913C335.99 72.8251 334.189 73.0734 332.789 73.4153C324.74 75.3904 322.054 76.3079 319.589 76.305C312.125 76.302 311.691 35.1104 318.376 32.5947H318.378Z" fill="#F7A491"/>
<path d="M359.798 81.038C361.148 78.1863 364.218 74.4727 369.619 76.7079C374.77 78.8408 376.152 84.0825 374.528 89.4499C372.904 94.8173 362.204 126.373 361.829 130.712L353.285 130.77C353.285 130.77 354.836 105.786 355.217 99.7464C355.584 93.9349 357.461 85.9759 359.795 81.0409L359.798 81.038Z" fill="#F7CC7F"/>
<path d="M313.009 56.6128C312.48 45.8255 312.556 32.5313 318.579 30.2639C320.957 29.3699 325.144 34.7518 324.391 56.832C321.175 57.0978 316.455 57.3141 313.009 56.6128Z" fill="#DD513A"/>
<path d="M373.667 51.9766H345.107C344.351 51.9766 343.67 52.4353 343.385 53.1394L334.59 74.7462H318.847C318.408 74.7462 318.05 75.1056 318.05 75.5497C318.05 75.9938 318.408 76.3532 318.847 76.3532H363.656C364.887 76.3532 366.005 75.6257 366.511 74.492L375.366 54.6208C375.919 53.379 375.017 51.9766 373.667 51.9766Z" fill="#4C4B4B"/>
<path d="M358.29 64.5575C358.098 65.5275 357.257 66.1762 356.413 66.0067C355.569 65.8372 355.042 64.911 355.234 63.941C355.427 62.9709 356.268 62.3223 357.111 62.4918C357.955 62.6612 358.482 63.5845 358.29 64.5575Z" fill="white"/>
<path d="M342.745 2.1953C341.883 1.90312 341.036 1.57588 340.219 1.17851C339.293 0.731474 338.094 0.205548 337.338 0.0886755C335.743 -0.159678 333.005 0.00686466 331.494 1.65184C329.611 3.70296 326.265 2.02291 326.937 12.7664C327.699 24.9299 334.436 23.5946 334.599 23.3872C334.762 23.1797 340.606 15.6064 340.606 15.6064C340.606 15.6064 342.648 20.0943 342.648 19.9278C342.648 19.77 353.081 5.68394 342.742 2.18946L342.745 2.1953Z" fill="#0E2E35"/>
<path d="M337.632 24.2911L338.214 28.6358C338.214 28.6358 339.517 34.8973 337.841 36.104C336.165 37.3107 330.714 28.4576 330.714 28.4576L331.291 17.4453L337.632 24.2911Z" fill="#F7A491"/>
<path d="M331.104 21.0158C332.489 24.7732 335.787 27.0814 338.126 27.9755L337.634 24.2911L331.293 17.4453L331.107 21.0128L331.104 21.0158Z" fill="#F47458"/>
<path d="M337.288 5.46451C340.838 4.88891 344.025 7.7552 343.935 11.3257C343.897 12.8771 343.769 14.8143 343.449 16.9005C342.678 21.9172 339.267 26.335 337.015 25.9406C334.762 25.5461 329.088 21.2189 330.086 14.078C330.703 9.66899 333.56 6.06932 337.288 5.46451Z" fill="#F7A491"/>
<path d="M335.359 19.9922L340.317 20.9447C340.317 20.9447 339.843 22.8205 337.652 22.464C334.978 22.0316 335.359 19.9922 335.359 19.9922Z" fill="white"/>
<path d="M132.874 25.0544C134.337 21.5161 135.827 17.969 139.628 16.178C142.704 14.7288 145.916 15.2722 148.649 17.3379C156.393 23.1845 149.644 29.6242 158.459 40.7095C161.197 44.1543 164.512 46.9359 166.153 50.9709C168.449 56.6217 165.714 59.3331 161.331 62.0387C140.352 74.9853 129.355 48.4026 129.751 42.3223C130.045 37.7994 131.934 27.3335 132.876 25.0544H132.874Z" fill="#684037"/>
<path d="M111.1 93.9554C111.985 93.8151 114.133 92.2695 114.892 92.1292C115.48 92.0211 116.752 91.8283 117.293 91.7465C117.957 89.26 121.326 75.697 121.705 71.7204C122.115 67.4136 125.147 48.7812 125.147 48.7812L133.002 50.2159C133.002 50.2159 129.739 64.5503 128.837 71.4983C128.063 77.4676 121.539 90.8904 120.709 92.3045C120.709 92.3396 120.709 92.3717 120.707 92.4068C120.581 94.5134 119.569 93.8122 119.569 93.8122L117.925 94.2329C117.925 94.2329 112.113 94.7939 111.732 94.9342C111.354 95.0744 110.216 94.0927 111.1 93.9524V93.9554Z" fill="#F7A491"/>
<path d="M137.367 69.8125L144.872 91.0307C144.872 91.0307 132.812 93.3097 128.305 94.1395C123.797 94.9693 98.6075 96.0737 97.9702 96.5237C97.4959 96.8568 92.2927 113.754 89.9705 123.071C87.334 123.653 82.8205 122.954 80.4196 122.125C81.7175 108.795 86.4027 87.6735 87.9043 85.3741C90.3488 81.6283 137.37 69.8125 137.37 69.8125H137.367Z" fill="#256653"/>
<path d="M146.126 70.9131L149.036 75.9035C153.468 83.5032 150.069 93.2795 141.895 96.4643C141.851 96.4818 141.807 96.4994 141.764 96.514C137.492 98.1765 112.954 104.003 112.413 104.564C112.008 104.978 110.053 122.556 109.509 132.145C107.026 133.215 102.463 133.376 99.9491 133.01C98.7356 119.672 99.3962 98.045 100.441 95.503C102.143 91.3657 146.126 70.9102 146.126 70.9102V70.9131Z" fill="#327F6B"/>
<path d="M131.995 37.8896C126.442 39.7801 123.285 54.9355 123.285 54.9355C123.285 54.9355 131.995 57.3781 134.227 56.0954C134.227 56.0954 136.761 44.8202 137.669 45.2146L131.995 37.8867V37.8896Z" fill="#6A97CE"/>
<path d="M137.259 37.8445C137.116 37.8445 136.91 37.7948 136.7 37.7276C135.67 37.5435 133.415 37.2718 131.66 38.014C129.527 38.9168 126.221 47.3638 126.416 56.0298C126.495 57.3563 126.576 58.5426 126.643 59.3695C127.181 65.9172 129.053 78.2035 129.155 78.2677C131.701 79.9127 147.057 73.5344 148.111 72.1349C149.167 70.7353 149.79 53.7158 150.302 52.8655L151.312 38.0636C149.531 37.5289 139.992 37.8211 137.262 37.8386L137.259 37.8445Z" fill="#9BC1F9"/>
<path d="M176.298 92.4267C176.225 92.2426 176.065 92.2397 175.902 92.2339C174.313 92.1842 172.724 92.1141 171.15 91.8774C170.888 91.8365 170.629 91.7781 170.387 91.6816C169.948 91.5063 169.517 91.5092 169.072 91.632C168.833 91.6992 168.589 91.7109 168.341 91.7109C167.541 91.7079 165.263 90.9278 164.09 90.7233C163.822 90.6765 163.61 90.472 163.543 90.209C162.39 85.6335 159.92 75.3662 159.597 71.9916C159.186 67.676 156.218 48.2109 156.218 48.2109L148.274 50.4344C148.274 50.4344 151.545 64.801 152.447 71.7666C153.145 77.1456 158.5 88.5611 160.179 91.8423C160.999 94.285 162.838 94.3522 163.266 94.4048C163.511 94.434 163.735 94.5567 163.895 94.7437C164.186 95.0826 164.518 95.3777 164.896 95.6202C165.178 95.7985 165.394 96.0322 165.58 96.3039C165.917 96.7977 166.22 97.3149 166.517 97.835C166.715 98.1797 166.921 98.2878 167.215 98.206C167.53 98.1184 167.681 97.8846 167.675 97.499C167.666 96.9292 167.486 96.415 167.201 95.927C166.933 95.4712 166.953 95.2083 167.265 94.7875C167.442 94.5479 167.628 94.3142 167.861 94.1213C168.1 93.9256 168.35 93.7795 168.673 93.8233C169.244 93.9665 169.82 94.0834 170.405 94.1476L170.885 94.247C170.902 94.247 171.147 94.3025 171.147 94.3025C171.187 94.3142 172.031 94.4048 172.322 94.4077C172.555 94.4077 172.931 94.4223 173.251 94.4398C173.542 94.4544 174.153 94.3025 174.176 94.3025C174.458 94.2967 174.709 94.1944 174.918 94.0045C175.005 93.9256 175.087 93.8409 175.043 93.7065C175.003 93.5837 174.909 93.5341 174.784 93.5107C174.592 93.4756 173.606 93.3558 173.617 93.3149C173.911 93.3149 174.828 93.2945 175.122 93.2857C175.518 93.274 175.858 93.1338 176.132 92.8416C176.239 92.7276 176.364 92.6108 176.292 92.4267H176.298Z" fill="#F7A491"/>
<path d="M151.408 38.0408C155.328 37.3249 158.564 54.9376 158.564 54.9376C158.564 54.9376 149.851 57.3802 147.622 56.0976C147.622 56.0976 145.087 44.8223 144.179 45.2167L151.408 38.0379V38.0408Z" fill="#9BC1F9"/>
<path d="M143.484 32.3951C143.484 32.3951 142.494 37.5287 142.692 39.5565C142.89 41.5813 141.938 48.1086 137.669 48.132C133.4 48.1554 136.857 39.8341 137.262 37.8472C137.666 35.8604 137.76 29.7188 137.76 29.7188L143.487 32.398L143.484 32.3951Z" fill="#F7A491"/>
<path d="M137.669 32.8013C137.736 31.1212 137.757 29.7188 137.757 29.7188L143.484 32.398C143.484 32.398 143.28 33.447 143.079 34.7852C140.574 35.2906 138.758 34.3586 137.669 32.8013Z" fill="#F47458"/>
<path d="M145.576 18.225C145.576 18.225 147.782 19.4551 148.588 22.1168C149.394 24.7815 148.477 31.6536 142.776 33.3132C137.076 34.9728 134.608 29.5295 135.781 25.2753C136.953 21.0212 139.508 15.6304 145.573 18.225H145.576Z" fill="#F7A491"/>
<path d="M138.644 28.456L142.66 29.4699C142.66 29.4699 142.177 31.0009 140.396 30.6065C138.225 30.1244 138.641 28.4531 138.641 28.4531L138.644 28.456Z" fill="white"/>
<path d="M135.071 23.6254C135.181 24.7678 135.81 25.6414 136.473 25.5771C137.137 25.5129 137.582 24.5311 137.471 23.3887C137.361 22.2463 136.732 21.3726 136.069 21.4369C135.405 21.5012 134.96 22.48 135.071 23.6254Z" fill="#F7A491"/>
<path d="M144.907 17.8789C144.907 17.8789 145.94 25.5457 148.41 26.9307C150.878 28.3127 149.845 31.7166 149.845 31.7166C149.845 31.7166 152.086 23.8189 150.133 21.2828C148.18 18.7467 144.907 17.8818 144.907 17.8818V17.8789Z" fill="#684037"/>
<path d="M146.947 28.0301C146.277 29.0293 146.28 30.2068 146.952 30.6626C147.625 31.1155 148.713 30.6743 149.382 29.675C150.052 28.6758 150.049 27.4983 149.377 27.0425C148.704 26.5867 147.616 27.0308 146.947 28.0301Z" fill="#F7A491"/>
<path d="M331.651 14.9307C331.462 16.0351 330.58 16.8006 329.684 16.6458C328.788 16.4909 328.217 15.4683 328.407 14.3639C328.596 13.2623 329.477 12.4939 330.374 12.6487C331.27 12.8065 331.84 13.8262 331.651 14.9307Z" fill="#F7A491"/>
<path d="M330.374 12.6469C330.374 12.6469 333.098 13.3276 334.11 11.5658C335.123 9.80393 338.737 6.0085 343.335 7.58335C347.933 9.15821 339.29 3.75578 338.921 3.75578C338.551 3.75578 334.139 3.72656 334.139 3.72656C334.139 3.72656 330.738 6.53734 330.615 6.84413C330.493 7.15385 329.512 10.5198 329.512 10.5198L330.374 12.6498V12.6469Z" fill="#0E2E35"/>
</g>
<defs>
<clipPath id="clip0_692_4740">
<rect width="526" height="497" fill="white"/>
</clipPath>
</defs>
</svg>
