<svg width="526" height="497" viewBox="0 0 526 497" fill="none" xmlns="http://www.w3.org/2000/svg">
<g clip-path="url(#clip0_692_4740)">
<path d="M7.76988 474.444C7.76988 474.444 6.88522 480.615 5.36326 482.608C4.854 483.277 3.91987 484.121 3.30875 485.328C2.35716 487.21 2.88388 490.009 3.58521 491.549C3.94606 492.34 3.55902 492.337 4.38257 492.592C6.81538 493.346 9.40243 492.075 10.4384 489.731C11.0175 488.422 11.5239 486.675 11.6257 484.472C11.8847 478.868 13.6162 476.019 13.6162 476.019L7.76697 474.441L7.76988 474.444Z" fill="#F7A491"/>
<path d="M10.9127 488.499C7.13838 489.192 4.62991 486.971 3.32329 485.309C2.36297 487.193 1.89736 490.004 2.60159 491.55C3.22434 492.914 5.03731 492.873 6.46907 492.926C7.97939 492.981 9.14924 492.137 9.90003 490.813C10.2492 490.194 10.6101 489.425 10.9127 488.499Z" fill="#F47458"/>
<path d="M423.915 377.893C427.096 378.411 426.907 378.934 427.317 378.986C427.8 379.051 433.539 376.158 433.539 376.158C433.539 376.158 450.51 367.746 451.412 367.258L463.664 351.781L473.104 356.152C473.104 356.152 459.325 372.605 458.455 373.33C457.582 374.054 433.245 382.624 431.129 383.451C431.129 383.451 428.996 385.408 427.614 386.592C426.234 387.775 424.386 388.243 423.947 388.511C423.883 388.552 422.358 389.359 420.208 389.829C418.354 390.235 419.899 388.97 419.899 388.97C419.899 388.97 423.179 387.579 423.019 387.328C422.894 387.135 421.15 388.003 419.105 388.473C418.578 388.593 418.06 388.713 417.58 388.815C416.323 389.087 415.773 388.365 417.033 387.863C417.478 387.684 418.226 387.41 418.79 387.293C419.399 387.164 419.911 386.846 420.403 386.656C421.38 386.282 422.099 386.022 422.058 385.99C422.009 385.946 422.146 385.73 421.581 385.838C420.903 385.969 419.538 386.583 418.526 386.697C417.952 386.761 416.762 386.974 416.762 386.974C416.762 386.974 414.658 387.176 414.641 386.881C414.609 386.232 415.906 385.873 416.701 385.888C417.201 385.63 418.462 385.443 418.462 385.443C418.462 385.443 420.903 384.476 420.763 384.111C420.708 383.965 419.227 384.19 417.658 384.298C416 384.412 414.798 384.412 414.71 384.091C414.571 383.579 415.889 383.384 415.889 383.384C415.889 383.384 417.053 383.214 417.434 383.126C417.882 383.024 419.192 382.612 419.192 382.612C419.192 382.612 423.685 380.956 423.522 380.622C423.359 380.289 422.617 379.594 422.303 379.594C421.986 379.594 421.421 379.912 421.104 379.915C420.787 379.915 420.106 379.857 420.059 379.457C420.013 379.056 421.77 378.227 421.77 378.227C421.77 378.227 422.995 377.739 423.915 377.888V377.893Z" fill="#F8A492"/>
<path d="M426.886 382.009C425.524 382.225 424.136 381.965 423.534 380.715C423.397 382.199 425.635 382.932 426.886 382.009Z" fill="#FE875E"/>
<path d="M455.137 361.367C455.137 361.367 458.193 364.154 459.464 365.071C460.521 365.834 465.671 368.326 465.671 368.326C465.671 368.326 470.796 360.449 473.037 356.499C475.755 351.707 477.638 344.578 476.994 344.385C475.19 343.842 472.711 343.511 470.421 344.566C462.494 348.218 455.14 361.367 455.14 361.367H455.137Z" fill="#FF6200"/>
<path d="M46.9975 326.75C47.1867 322.163 46.5174 317.631 44.4803 313.362C42.7285 309.687 38.3954 307.604 34.4435 307.598C21.8953 307.58 20.3006 324.299 12.3125 330.747C9.87093 332.716 7.1442 334.323 4.83361 336.448C-3.69579 344.293 0.145493 358.82 7.97648 365.698C13.4096 370.472 21.9506 373.184 28.6496 369.452C32.1446 367.504 34.7985 364.266 36.6901 360.719C39.3732 355.685 41.1047 349.873 43.0107 344.509C45.042 338.797 46.7444 332.851 46.9946 326.753L46.9975 326.75Z" fill="#684037"/>
<path d="M49.0462 348.967C45.1264 337.028 39.9523 337.215 39.9523 337.215L44.134 362.635C46.5552 361.972 49.7068 360.49 52.1251 359.806C51.3248 356.031 50.0124 351.906 49.0491 348.967H49.0462Z" fill="#F7CC7F"/>
<path d="M68.855 389.682L54.5259 378.708C54.5259 378.708 53.0854 368.47 51.1531 359.383C48.7348 360.069 46.5523 361.972 44.134 362.638L47.7774 382.985L66.559 392.715L71.864 399.561L73.0717 392.534L68.8579 389.685L68.855 389.682Z" fill="#F48C7F"/>
<path d="M199.473 372.539C203.923 372.539 208.099 373.716 211.707 375.776C212.164 376.036 212.659 376.273 213.186 376.492C224.197 381.032 236.245 372.623 236.245 360.67V301.892H177.703C165.798 301.892 157.423 289.796 161.945 278.74C162.16 278.211 162.399 277.714 162.658 277.255C164.71 273.629 165.882 269.44 165.882 264.972C165.882 250.816 154.126 239.415 139.881 240.078C126.989 240.677 116.609 251.31 116.248 264.262C116.12 268.87 117.241 273.203 119.289 276.949C119.545 277.416 119.778 277.922 119.994 278.459C124.478 289.697 115.969 301.895 103.913 301.895H45.8743V435.828C45.8743 467.421 71.3839 493.034 102.85 493.034H236.245V434.452C236.245 422.44 224.156 413.979 213.078 418.505C212.548 418.721 212.051 418.957 211.594 419.215C207.648 421.438 203.032 422.61 198.126 422.35C185.488 421.678 175.276 411.367 174.68 398.671C174.007 384.357 185.365 372.542 199.473 372.542V372.539Z" fill="#F47458"/>
<path d="M34.3795 477.266C34.3795 477.266 34.9266 484.222 34.4814 486.487C34.2427 487.699 32.9245 490.192 33.5298 491.328C34.1351 492.468 34.8277 492.754 34.8277 492.754L50.5333 493.008C51.3888 493.023 50.8243 492.468 50.1346 491.956C49.0055 491.121 48.0946 490.569 44.4862 488.813C44.2504 488.699 43.3949 488.149 43.0864 487.959C42.3036 487.477 41.5179 486.721 40.8399 485.964C39.7107 484.702 39.6147 478.572 39.6147 478.572L34.3795 477.266Z" fill="#F7A491"/>
<path d="M43.0864 487.963C38.9338 489.035 35.8607 488.308 34.1438 487.609C33.7015 488.872 33.1136 490.458 33.425 491.373C33.8062 492.492 34.3504 492.743 34.8277 492.758C38.6224 492.857 48.7261 492.994 51.6187 493.032C52.0232 493.038 52.2444 492.562 51.9854 492.249C51.2666 491.387 43.3949 488.153 43.0835 487.963H43.0864Z" fill="#F47458"/>
<path d="M46.6542 384.773C46.6542 384.773 48.633 396.071 47.3322 403.478C46.0314 410.885 39.801 479.539 39.801 479.539L32.875 479.933C32.875 479.933 31.4229 451.256 31.6819 447.267C31.9409 443.279 33.9983 436.606 33.9983 436.606L33.3086 413.45L42.0504 383.031L46.6542 384.776V384.773Z" fill="#FF6200"/>
<path d="M26.2983 382.399C26.2983 382.399 20.8448 390.659 19.544 397.499C18.2461 404.336 20.4985 425.347 17.9987 434.308C16.6456 439.158 11.5209 446.647 10.741 452.914C9.96115 459.182 6.90558 475.599 6.90558 475.599L13.8286 476.981L29.9184 435.982L42.5393 398.925L45.7724 379.84L26.2924 382.402L26.2983 382.399Z" fill="#C05013"/>
<path d="M30.7128 335.395C30.7128 335.395 23.4901 334.933 20.6353 338.066C17.7776 341.198 26.9734 365.986 27.4914 369.975C28.0094 373.963 24.8432 384.566 24.8432 384.566C24.8432 384.566 41.806 388.002 46.6571 384.774C46.6571 384.774 47.1751 356.096 46.6571 353.247C46.1391 350.399 41.8089 338.814 40.77 337.674C39.7311 336.535 30.7157 335.395 30.7157 335.395H30.7128Z" fill="#F7CC7F"/>
<path d="M33.1166 325.683C33.1166 325.683 33.0787 325.896 33.0118 326.262C32.6888 328.009 31.4491 333.806 30.611 335.398C29.5983 337.324 34.0769 343.465 38.3867 342.714C39.67 342.492 37.3012 337.072 37.4147 336.497C37.633 335.398 37.9269 333.899 38.2295 332.362C38.4012 331.495 38.5729 330.615 38.7359 329.788C39.1957 327.439 39.574 325.52 39.574 325.52L33.1166 325.68V325.683Z" fill="#F7A491"/>
<path d="M33.0118 326.262C33.0787 325.896 33.1165 325.683 33.1165 325.683L39.574 325.52C39.574 325.52 39.1986 327.439 38.7359 329.788C38.5758 330.609 38.4041 331.483 38.2324 332.348C37.2343 332.199 36.1925 331.711 35.1478 330.793C34.0099 329.791 33.262 328.585 32.811 327.299C32.8895 326.887 32.9565 326.533 33.0059 326.265L33.0118 326.262Z" fill="#F47458"/>
<path d="M37.4642 310.912C37.4642 310.912 34.4202 310.558 32.5112 313.042C30.6022 315.525 28.5477 323.204 33.2853 327.379C38.0258 331.554 42.7081 326.827 43.4036 321.816C44.0991 316.805 44.3668 310.731 37.4642 310.912Z" fill="#F7A491"/>
<path d="M36.3409 324.059L40.0134 324.225C40.0134 324.225 39.865 325.622 38.2499 325.595C36.2769 325.563 36.3438 324.059 36.3438 324.059H36.3409Z" fill="white"/>
<path d="M44.8062 321.745C44.2417 322.852 43.2901 323.466 42.6848 323.115C42.0795 322.765 42.0475 321.584 42.6121 320.477C43.1766 319.369 44.1282 318.756 44.7335 319.106C45.3388 319.457 45.3708 320.638 44.8062 321.745Z" fill="#F7A491"/>
<path d="M37.8046 310.089C37.8046 310.089 33.7393 317.391 30.8292 317.73C27.9192 318.066 27.5379 321.949 27.5379 321.949C27.5379 321.949 28.5768 313.008 31.4578 311.281C34.3388 309.557 37.8046 310.089 37.8046 310.089Z" fill="#684037"/>
<path d="M31.5917 319.568C31.8274 320.865 31.353 322.054 30.5295 322.223C29.7059 322.393 28.8475 321.481 28.6089 320.184C28.3731 318.887 28.8475 317.698 29.671 317.528C30.4946 317.359 31.353 318.27 31.5917 319.568Z" fill="#F7A491"/>
<path d="M326.355 339.931C326.562 335.469 327.929 331.335 330.147 327.811C330.426 327.367 330.688 326.879 330.93 326.362C335.961 315.531 328.156 303.055 316.266 302.497L257.788 299.75L255.053 358.464C254.497 370.402 242.071 378.239 231.28 373.187C230.762 372.944 230.279 372.684 229.837 372.401C226.327 370.174 222.213 368.804 217.766 368.594C203.681 367.933 191.791 379.191 191.785 393.508C191.779 406.463 201.871 417.373 214.74 418.338C219.317 418.682 223.679 417.762 227.503 415.88C227.98 415.647 228.492 415.433 229.04 415.243C240.43 411.27 252.169 420.374 251.607 432.464L248.898 490.673L382.147 496.928C413.578 498.404 440.252 474.016 441.722 442.457L447.952 308.67L389.666 305.935C377.718 305.374 368.734 317.103 372.721 328.428C372.91 328.968 373.123 329.479 373.358 329.95C375.387 334.011 376.338 338.695 375.849 343.603C374.592 356.249 363.854 366.008 351.198 366.014C336.927 366.02 325.7 354.078 326.361 339.928L326.355 339.931Z" fill="#F7CC7F"/>
<path d="M280.763 481.858C280.763 481.858 280.393 487.997 280.391 488.009C280.254 488.789 279.721 490.714 279.721 491.421C279.721 494.083 292.31 489.163 289.487 487.982C289.231 487.877 287.893 487.068 287.811 486.162C287.683 484.766 287.354 481.943 287.354 481.943L280.763 481.855V481.858Z" fill="#F7A491"/>
<path d="M289.458 487.961C289.458 487.961 286.502 488.776 284.988 488.978C283.475 489.182 281.479 487.467 280.408 487.932C279.229 488.44 279.276 493.027 279.276 493.027C279.276 493.027 295.124 494.333 299.582 492.984C301.349 492.449 295.5 489.857 289.458 487.961Z" fill="#DD513A"/>
<path d="M255.012 481.859C255.012 481.859 254.642 487.998 254.639 488.01C254.503 488.79 253.97 490.715 253.97 491.422C253.97 494.084 266.559 489.164 263.736 487.983C263.48 487.878 261.746 486.467 261.661 485.561C261.533 484.165 261.6 481.944 261.6 481.944L255.009 481.859H255.012Z" fill="#F7A491"/>
<path d="M263.707 487.961C263.707 487.961 260.751 488.776 259.237 488.978C257.724 489.182 255.728 487.467 254.657 487.932C253.478 488.44 253.432 493.027 253.432 493.027C253.432 493.027 269.353 494.55 273.831 492.984C275.569 492.376 269.748 489.857 263.707 487.961Z" fill="#DD513A"/>
<path d="M505.307 482.109C505.307 482.109 505.644 488.14 505.647 488.155C505.772 488.92 506.261 490.813 506.261 491.509C506.261 494.124 494.705 489.288 497.295 488.131C497.531 488.026 498.756 487.234 498.835 486.343C498.954 484.973 499.254 482.197 499.254 482.197L505.304 482.112L505.307 482.109Z" fill="#F7A491"/>
<path d="M497.185 488.155C497.185 488.155 499.897 488.955 501.288 489.154C502.676 489.355 504.509 487.67 505.493 488.125C506.575 488.625 506.532 493.133 506.532 493.133C506.532 493.133 491.984 494.416 487.893 493.09C486.272 492.564 491.641 490.019 497.187 488.155H497.185Z" fill="#F7CC7F"/>
<path d="M524.548 481.801C524.548 481.801 524.888 487.831 524.888 487.846C525.013 488.612 525.502 490.505 525.502 491.2C525.502 493.815 513.947 488.98 516.536 487.823C516.769 487.717 518.361 486.332 518.44 485.441C518.559 484.071 518.495 481.888 518.495 481.888L524.545 481.804L524.548 481.801Z" fill="#F7A491"/>
<path d="M516.568 487.795C516.568 487.795 519.281 488.596 520.672 488.795C522.06 488.996 523.893 487.31 524.877 487.766C525.959 488.266 526.003 492.774 526.003 492.774C526.003 492.774 511.557 493.37 507.277 492.73C505.592 492.479 511.025 489.659 516.571 487.795H516.568Z" fill="#F7CC7F"/>
<path d="M521.123 386.006C521.123 386.006 523.081 396.18 522.284 403.893C521.486 411.607 521.422 439.011 521.422 439.011L525.104 482.841L517.241 483.025C517.241 483.025 508.673 439.201 508.831 440.326C508.991 441.45 505.958 409.468 505.958 409.468L516.173 385.039L521.12 386.003L521.123 386.006Z" fill="#FF6200"/>
<path d="M257.864 385.033C257.864 385.033 255.731 395.387 256.601 403.238C257.471 411.089 257.538 438.984 257.538 438.984L254.22 483.611L262.092 483.784C262.092 483.784 271.428 439.177 271.253 440.322C271.078 441.467 274.384 408.915 274.384 408.915L263.256 384.051L257.867 385.033H257.864Z" fill="#184655"/>
<path d="M259.947 384.543C259.947 384.543 258.556 393.866 260.294 397.957C262.031 402.047 275.208 442.172 275.382 445.442C275.557 448.711 279.937 484.875 279.937 484.875L289.089 484.617L291.07 444.413L286.924 393.884L282.899 381.109L259.947 384.545V384.543Z" fill="#286072"/>
<path d="M518.381 379.434C518.381 379.434 527.254 388.816 523.954 399.065C522.63 403.182 510.265 442.507 510.105 445.721C509.945 448.935 505.924 484.461 505.924 484.461L497.522 484.207L495.703 444.707L498.104 391.486L503.203 382.51L518.381 379.434Z" fill="#C05013"/>
<path d="M251.47 366.658C251.659 367.313 251.77 367.532 252.009 367.973C253.563 370.816 257.171 374.871 257.171 374.871L259.962 368.557C259.962 368.557 259.508 366.573 258.716 363.742C256.022 364.449 253.452 364.858 251.464 366.661L251.47 366.658Z" fill="#F8A492"/>
<path d="M163.406 247.484C163.63 251.946 162.67 256.191 160.801 259.917C160.566 260.387 160.353 260.896 160.164 261.436C156.201 272.705 165.169 284.366 177.06 283.765L235.529 280.813L232.59 222.108C231.993 210.173 243.604 201.165 254.829 205.144C255.367 205.334 255.873 205.548 256.342 205.784C260.049 207.66 264.277 208.624 268.724 208.399C282.806 207.689 293.556 195.327 292.182 181.075C290.939 168.178 279.841 158.302 266.94 158.591C262.351 158.693 258.097 160.035 254.473 162.279C254.022 162.559 253.531 162.819 253.007 163.062C242.056 168.125 229.491 160.204 228.885 148.114L225.969 89.9141L92.7437 96.6401C61.318 98.2266 37.1208 125.093 38.7009 156.645L45.3999 290.409L103.674 287.466C115.62 286.865 123.43 274.318 118.373 263.435C118.131 262.914 117.872 262.429 117.59 261.982C115.18 258.137 113.781 253.568 113.795 248.636C113.827 235.929 123.573 225.171 136.171 223.935C150.375 222.541 162.699 233.337 163.409 247.484H163.406Z" fill="#50BFA5"/>
<path d="M283.077 215.085C278.627 215.085 274.451 213.908 270.843 211.848C270.386 211.588 269.891 211.348 269.364 211.132C258.353 206.592 246.305 215.001 246.305 226.954V285.732H304.847C316.752 285.732 325.127 297.828 320.605 308.884C320.389 309.413 320.151 309.91 319.892 310.368C317.84 313.994 316.667 318.184 316.667 322.652C316.667 336.808 328.424 348.209 342.669 347.546C355.56 346.947 365.941 336.314 366.301 323.362C366.43 318.754 365.309 314.421 363.26 310.675C363.004 310.208 362.772 309.702 362.556 309.165C358.069 297.927 366.578 285.729 378.637 285.729H436.676V151.796C436.676 120.202 411.166 94.5898 379.699 94.5898H246.305V153.172C246.305 165.184 258.393 173.645 269.472 169.119C270.002 168.903 270.499 168.667 270.956 168.409C274.902 166.186 279.518 165.011 284.424 165.274C297.062 165.946 307.274 176.257 307.87 188.953C308.543 203.267 297.185 215.082 283.077 215.082V215.085Z" fill="#FF6200"/>
<path d="M267.473 361.18C267.473 361.18 251.904 367.912 251.4 367.783C251.077 367.701 245.016 357.513 244.949 347.935C244.92 343.512 249.494 338.188 254.602 339.24C257.171 339.769 257.133 340.488 260.937 346.036C264.74 351.585 267.473 361.18 267.473 361.18Z" fill="#684037"/>
<path d="M258.859 370.059L269.946 354.465C269.993 354.328 270.095 354.05 270.249 353.623C270.808 352.075 271.969 348.858 272.982 345.653L272.993 345.618C273.31 344.499 273.986 342.544 274.637 340.656C275.362 338.556 276.261 335.949 276.293 335.505C276.264 335.429 276.212 335.292 276.142 335.111C275.734 334.05 275.184 331.529 274.992 330.43C274.867 329.732 274.745 328.034 275.572 328.034C276.872 328.034 276.252 329.732 276.852 330.789C277.073 330.082 277.518 328.677 277.754 327.257L277.972 323.941C278.013 323.692 277.748 321.863 278.662 321.863H278.706C279.523 321.925 279.506 323.871 279.846 327.158C279.954 326.778 280.062 326.322 280.143 325.904C280.134 325.679 280.297 324.692 280.42 324.169C280.254 323.251 280.35 321.808 281.322 321.942C281.808 322.009 281.77 324.028 281.77 324.028C281.764 324.306 281.735 326.439 281.752 326.86C281.851 326.144 282.241 323.09 283.004 323.09C283.635 323.09 283.688 323.911 283.673 324.563C283.664 324.949 283.269 328.253 283.245 328.639C283.542 328.136 283.897 325.223 284.191 325.223C285.425 325.223 284.98 329.366 284.526 330.448C284.482 330.559 284.438 330.775 284.386 331.026C284.232 331.765 283.973 333.001 283.33 334.109C282.556 335.438 281.488 337.553 281.325 337.878C281.205 338.538 280.833 340.914 280.367 343.903C280.166 345.182 279.948 346.582 279.721 348.034H279.71C279.669 348.347 279.436 349.346 278.56 353.095C277.361 358.225 277.236 358.447 277.184 358.541C276.663 359.467 264.708 375.765 264.199 376.46L263.899 376.869L258.865 370.064L258.859 370.059Z" fill="#F7A491"/>
<path d="M268.817 370.311L290.203 366.811C290.203 366.811 287.771 360.66 286.9 360.66C286.03 360.66 270.729 367.366 270.729 367.366L269.513 369.82L268.817 370.311Z" fill="#F8A492"/>
<path d="M278.81 360.355C278.81 360.355 286.9 368.019 290.553 366.71C294.205 365.401 295.715 360.928 286.804 354.383C278.831 348.525 278.81 360.352 278.81 360.352V360.355Z" fill="#F8A492"/>
<path d="M279.48 333.689C279.48 333.689 278.58 331.378 276.977 331.375C276.977 331.375 277.873 331.051 278.639 331.661C279.404 332.272 279.477 333.689 279.477 333.689H279.48Z" fill="#F47458"/>
<path d="M256.179 329.224L254.753 338.287C254.753 338.287 260.192 342.673 263.361 341.747C266.021 340.97 264.196 337.481 264.196 337.481C264.196 337.481 262.779 332.642 263.212 330.106C263.646 327.57 256.179 329.227 256.179 329.227V329.224Z" fill="#F7A491"/>
<path d="M254.753 338.286C254.753 338.286 257.011 339.773 259.115 339.601C261.219 339.428 264.196 337.477 264.196 337.477L263.783 336.068C263.783 336.068 258.338 335.271 258.198 335.358C258.062 335.443 254.753 338.286 254.753 338.286Z" fill="#F7A491"/>
<path d="M284.293 369.818C283.091 363.253 274.381 342.826 273.686 339.066C273.348 337.237 268.648 337.196 264.176 337.436C259.45 337.687 254.753 338.289 254.753 338.289C254.753 338.289 250.568 338.978 248.729 340.711C246.89 342.444 246.398 347.232 249.046 356.325C251.136 363.501 253.726 367.443 255.006 372.673C255.265 374.426 255.489 376.155 255.783 378.177C256.254 385.996 255.777 396.322 255.777 396.322C255.777 396.322 278.554 401.067 287.075 393.867C287.075 393.867 285.524 376.547 284.293 369.821V369.818Z" fill="#FF6200"/>
<path d="M290.099 355.706C290.099 355.706 281.162 363.113 280.638 363.113C280.303 363.113 267.883 353.941 265.017 346.406C263.434 342.239 266.757 337.579 270.552 337.594C273.182 337.605 274.352 338.286 279.57 342.701C284.788 347.116 290.096 355.703 290.096 355.703L290.099 355.706Z" fill="#C05013"/>
<path d="M464.519 348.899C467.423 345.644 473.747 341.013 473.747 341.013C473.747 341.013 477.512 337.781 479.049 337.25C481.31 336.467 485.18 334.38 490.779 342.9C494.787 348.998 520.069 380.568 524.222 381.632L497.118 394.652C496.376 388.434 482.981 376.685 481.051 374.494C476.741 369.594 461.769 351.979 464.519 348.899Z" fill="#F47458"/>
<path d="M447.431 393.66C448.351 392.31 448.752 390.362 450.027 388.874C450.455 388.375 451.136 387.814 451.91 387.253C458.033 383.656 473.98 374.385 474.6 373.666C475.336 372.813 486.219 354.657 486.219 354.657L476.444 352.434L466.891 369.371C466.093 370.008 450.929 381.26 450.929 381.26C450.929 381.26 447.914 383.627 446.264 384.734C445.432 385.222 444.623 385.538 443.916 385.786C443.025 386.096 441.332 386.946 440.988 387.247C440.59 387.598 439.792 388.351 439.321 388.81C438.846 389.269 438.273 389.789 438.049 390.061C437.915 390.227 437.496 390.455 437.188 390.61C436.731 390.841 436.789 391.522 437.281 391.662C437.746 391.793 438.372 391.501 438.762 391.317C439.859 390.8 441.201 389.4 441.271 389.573C441.34 389.745 439.978 392.74 439.845 393.094C439.711 393.447 439.372 394.421 439.845 394.595C440.317 394.768 441.108 393.746 441.422 393.442C441.736 393.138 442.638 391.995 442.786 392.026C442.934 392.058 442.951 392.168 442.876 392.714C442.8 393.259 441.786 396.105 442.209 396.24C442.632 396.375 443.427 394.961 443.741 394.421C444.055 393.881 445.117 391.636 445.266 391.61C445.414 391.584 445.535 391.893 445.54 392.145C445.546 392.398 445.308 394.44 445.54 394.96C445.773 395.479 446.368 395.436 446.601 395.265C446.834 395.093 447.267 393.683 447.325 393.647C447.383 393.61 447.428 393.66 447.428 393.66H447.431Z" fill="#F8A492"/>
<path d="M499.588 336.999C499.588 336.999 506.802 336.503 509.669 339.623C512.536 342.743 507.606 366.14 507.606 366.14L503.206 382.507L518.378 379.431C518.378 379.431 516.686 355.808 517.204 352.955C517.722 350.103 522.067 338.517 523.109 337.383C524.15 336.246 533.191 335.107 533.191 335.107C533.191 335.107 540.438 334.611 543.308 337.74C546.175 340.87 543.051 363.717 543.051 363.717L537.028 383.021C537.028 383.021 525.614 387.181 524.222 381.632C522.831 376.083 526.587 366.506 525.717 365.891C524.847 365.276 519.771 375.456 519.076 381.264C518.381 387.072 500.196 391.493 500.196 391.493C500.196 391.493 496.082 373.682 496.776 369.695C497.471 365.707 499.585 337.005 499.585 337.005L499.588 336.999Z" fill="#F7CC7F"/>
<path d="M519.076 327.472C519.076 327.472 519.135 327.688 519.202 328.054C519.528 329.802 520.777 335.595 521.621 337.187C522.637 339.11 518.164 345.254 513.851 344.506C512.568 344.287 514.934 338.864 514.82 338.289C514.602 337.19 514.308 335.691 514.003 334.154C513.831 333.287 513.659 332.407 513.496 331.58C513.033 329.232 512.655 327.313 512.655 327.313L519.076 327.475V327.472Z" fill="#F7A491"/>
<path d="M519.202 328.054C519.135 327.688 519.076 327.472 519.076 327.472L512.655 327.31C512.655 327.31 513.036 329.229 513.496 331.577C513.656 332.398 513.828 333.272 514.003 334.137C515.001 333.991 516.043 333.503 517.088 332.588C518.226 331.589 518.974 330.383 519.428 329.097C519.349 328.685 519.282 328.331 519.233 328.063L519.202 328.054Z" fill="#F47458"/>
<path d="M514.74 312.706C514.74 312.706 517.787 312.349 519.699 314.829C521.611 317.31 523.674 324.985 518.927 329.167C514.178 333.348 509.492 328.627 508.793 323.617C508.095 318.607 507.824 312.533 514.74 312.706Z" fill="#F7A491"/>
<path d="M515.87 325.85L512.194 326.021C512.194 326.021 512.339 327.418 513.956 327.394C515.931 327.362 515.867 325.859 515.867 325.859L515.87 325.85Z" fill="white"/>
<path d="M507.352 323.555C507.92 324.662 508.874 325.273 509.479 324.921C510.084 324.568 510.113 323.387 509.545 322.28C508.977 321.173 508.023 320.562 507.418 320.914C506.813 321.267 506.784 322.448 507.352 323.555Z" fill="#F7A491"/>
<path d="M514.44 311.886C514.44 311.886 518.497 319.197 521.41 319.545C524.323 319.892 524.71 323.774 524.71 323.774C524.71 323.774 523.662 314.836 520.777 313.115C517.893 311.393 514.437 311.892 514.437 311.892L514.44 311.886Z" fill="#684037"/>
<path d="M520.63 321.384C520.392 322.681 520.866 323.871 521.69 324.043C522.514 324.215 523.375 323.305 523.613 322.008C523.852 320.711 523.378 319.522 522.554 319.35C521.73 319.178 520.869 320.087 520.63 321.384Z" fill="#F7A491"/>
</g>
<defs>
<clipPath id="clip0_692_4740">
<rect width="526" height="497" fill="white"/>
</clipPath>
</defs>
</svg>
