<svg width="44" height="44" viewBox="0 0 44 44" fill="none" xmlns="http://www.w3.org/2000/svg">
<path d="M21.7682 0.000653463C37.2868 -0.117153 48.1363 15.715 42.2204 30.1634C35.9426 45.4945 15.5614 48.549 4.99075 35.7258C-6.70047 21.5422 3.47559 0.13975 21.7682 0.000653463ZM20.9308 22.513C21.0678 18.3501 18.9274 13.718 14.3053 13.3738C4.26901 12.6265 3.14062 27.7725 11.1536 30.0583C15.12 31.1903 19.9039 29.5679 20.6477 25.1346H17.9551C17.3065 28.6248 12.0563 28.8363 9.98333 26.5525C9.41417 25.9259 8.74424 24.5285 8.74424 23.6819V22.513H20.9308ZM25.6076 13.3731H22.0649L27.8629 21.4265L21.5688 30.3777H24.9696L29.6116 23.4342C29.7102 23.4101 30.1992 24.1602 30.2993 24.3043C31.6874 26.2921 32.9996 28.3466 34.3224 30.3777H37.9361L31.4298 21.2136L37.2278 13.3731H33.9328L29.8174 19.1066L29.6116 19.2535L25.6069 13.3731H25.6076Z" fill="black"/>
<path d="M18.0261 20.3168H8.74426C8.81594 18.1558 10.3077 16.173 12.4821 15.7997C15.3797 15.3029 17.9537 17.3773 18.0261 20.3168Z" fill="black"/>
</svg>
