<svg width="1012" height="741" viewBox="0 0 1012 741" fill="none" xmlns="http://www.w3.org/2000/svg">
<path d="M997.14 631.406C1032.41 689.495 989.251 762.93 919.265 763.389L916.762 763.405L916.838 763.476L825.691 764.095L707.658 569.829L827.435 352.011L997.14 631.406Z" stroke="#161515" stroke-opacity="0.3" stroke-width="2"/>
<path d="M325.552 530.53L194.649 768.543L92.2603 769.229L92.2594 769.229C22.2029 769.759 -21.8553 696.951 12.707 638.332L199.015 322.275L325.552 530.53Z" stroke="#161515" stroke-opacity="0.3" stroke-width="2"/>
<path d="M452.647 299.449L368.741 452.064L243.757 246.354L330.725 98.8399L452.647 299.449Z" stroke="#161515" stroke-opacity="0.3" stroke-width="2"/>
<path d="M421.719 -55.4505C456.25 -114.139 543.756 -114.767 579.148 -56.5356L780.922 275.573L660.314 494.905L618.236 571.325L618.236 571.326L533.216 725.891L511.019 766.286L505.801 766.357L470.747 766.549L470.745 766.549L283.65 767.895L372.9 605.622L372.901 605.622L414.903 529.131L414.902 529.13L499.921 374.568L499.922 374.568L541.999 298.148L542.279 297.641L541.978 297.147L375.468 23.083L421.719 -55.4505Z" stroke="#161515" stroke-opacity="0.3" stroke-width="2"/>
</svg>
