<svg width="44" height="44" viewBox="0 0 44 44" fill="none" xmlns="http://www.w3.org/2000/svg">
<g clip-path="url(#clip0_445_2383)">
<path d="M29.262 14.0626L33.0867 10.2378L33.3416 8.62736C26.3719 2.28981 15.2927 3.00842 9.00979 10.1268C7.26458 12.1039 5.96984 14.5687 5.27942 17.114L6.64926 16.921L14.2986 15.6596L14.8891 15.0557C18.2917 11.3187 24.0449 10.816 27.9736 13.9955L29.262 14.0626Z" fill="#EA4335"/>
<path d="M38.5356 17.0015C37.6564 13.7641 35.8516 10.8537 33.342 8.62744L27.974 13.9954C30.2407 15.8476 31.532 18.6378 31.4767 21.5643V22.5172C34.1151 22.5172 36.2543 24.6562 36.2543 27.2946C36.2543 29.9332 34.1151 32.0186 31.4767 32.0186H21.9082L20.9688 33.0385V38.7688L21.9082 39.6679H31.4767C38.3396 39.7213 43.9465 34.2549 44 27.3919C44.0323 23.232 41.9813 19.3322 38.5356 17.0015Z" fill="#4285F4"/>
<path d="M12.3524 39.6682H21.9075V32.0187H12.3524C11.6716 32.0185 11.0123 31.8723 10.3932 31.5894L9.03763 32.0053L5.18609 35.83L4.85059 37.1318C7.01054 38.7627 9.6459 39.6799 12.3524 39.6682Z" fill="#34A853"/>
<path d="M12.3527 14.8546C5.48957 14.8955 -0.0406808 20.4924 0.000225476 27.3554C0.0230849 31.1879 1.81299 34.7955 4.85088 37.1318L10.3935 31.5894C7.9888 30.5029 6.92026 27.673 8.00668 25.2685C9.09293 22.8639 11.923 21.7954 14.3274 22.8817C15.387 23.3603 16.2355 24.209 16.7142 25.2685L22.2568 19.726C19.8985 16.6431 16.2342 14.8407 12.3527 14.8546Z" fill="#FBBC05"/>
</g>
<defs>
<clipPath id="clip0_445_2383">
<rect width="44" height="44" fill="white"/>
</clipPath>
</defs>
</svg>
