<svg width="101" height="101" viewBox="0 0 101 101" fill="none" xmlns="http://www.w3.org/2000/svg">
<g filter="url(#filter0_d_445_2424)">
<path d="M10.1 46.1C10.1 24.0086 28.0086 6.09998 50.1 6.09998C72.1914 6.09998 90.1 24.0086 90.1 46.1C90.1 68.1914 72.1914 86.1 50.1 86.1C28.0086 86.1 10.1 68.1914 10.1 46.1Z" fill="url(#paint0_linear_445_2424)"/>
<path d="M67.1 45.2515V47.064C65.8676 66.0285 38.9604 69.2636 33.6922 50.8693C33.4902 50.1661 32.8294 47.8072 33.2226 47.319C34.3658 46.7999 35.6765 47.5085 37.0472 47.1605C39.512 46.5339 40.5715 43.4463 39.5539 41.1985C39.2681 40.5646 38.3379 39.7959 38.7584 39.0873C39.1061 38.5044 40.3094 39.1091 40.9101 39.08C43.9793 38.9306 46.0545 35.3931 44.4398 32.6844C43.9975 31.943 42.2481 31.0122 43.7954 30.1761C46.5606 28.6842 51.9726 28.9247 54.9252 29.8027C61.6607 31.8046 66.6704 38.2111 67.1 45.2533V45.2515ZM34.688 48.6961C36.3755 58.2194 45.8797 63.8444 55.1109 60.8862C60.7742 59.0719 65.1977 53.4669 65.651 47.5139C66.4993 36.344 56.0593 27.9884 45.3719 31.3018C48.0114 35.2273 45.7596 40.1766 41.0248 40.5427C42.9216 44.8836 39.3919 49.6506 34.688 48.6979V48.6961Z" fill="white"/>
<path d="M61.6059 45.0821C61.6059 46.6632 60.3244 47.9438 58.7461 47.9438C57.1678 47.9438 55.8863 46.6614 55.8863 45.0821C55.8863 43.5027 57.1678 42.2203 58.7461 42.2203C60.3244 42.2203 61.6059 43.5027 61.6059 45.0821ZM60.0786 45.0711C60.0786 44.3243 59.4743 43.7195 58.7279 43.7195C57.9815 43.7195 57.3772 44.3243 57.3772 45.0711C57.3772 45.818 57.9815 46.4227 58.7279 46.4227C59.4743 46.4227 60.0786 45.818 60.0786 45.0711Z" fill="white"/>
<path d="M44.5398 53.9859C44.5398 55.5653 43.2601 56.8458 41.6818 56.8458C40.1035 56.8458 38.8238 55.5653 38.8238 53.9859C38.8238 52.4066 40.1035 51.1261 41.6818 51.1261C43.2601 51.1261 44.5398 52.4066 44.5398 53.9859ZM43.0434 54.1226C43.0434 53.3794 42.4409 52.7764 41.6982 52.7764C40.9555 52.7764 40.3529 53.3794 40.3529 54.1226C40.3529 54.8658 40.9555 55.4687 41.6982 55.4687C42.4409 55.4687 43.0434 54.8658 43.0434 54.1226Z" fill="white"/>
<path d="M56.0101 37.6755C56.0101 39.253 54.7321 40.5299 53.1575 40.5299C51.5829 40.5299 50.305 39.2512 50.305 37.6755C50.305 36.0998 51.5829 34.8211 53.1575 34.8211C54.7321 34.8211 56.0101 36.0998 56.0101 37.6755ZM54.501 37.67C54.501 36.9268 53.9002 36.3257 53.1575 36.3257C52.4148 36.3257 51.8141 36.9268 51.8141 37.67C51.8141 38.4132 52.4148 39.0144 53.1575 39.0144C53.9002 39.0144 54.501 38.4132 54.501 37.67Z" fill="white"/>
<path d="M58.0926 53.9714C58.0926 55.5452 56.8183 56.8203 55.2455 56.8203C53.6727 56.8203 52.3984 55.5452 52.3984 53.9714C52.3984 52.3975 53.6727 51.1224 55.2455 51.1224C56.8183 51.1224 58.0926 52.3975 58.0926 53.9714ZM56.6235 54.1226C56.6235 53.3794 56.021 52.7764 55.2783 52.7764C54.5355 52.7764 53.933 53.3794 53.933 54.1226C53.933 54.8658 54.5355 55.4687 55.2783 55.4687C56.021 55.4687 56.6235 54.8658 56.6235 54.1226Z" fill="white"/>
<path d="M51.774 47.1823C51.774 48.7544 50.4997 50.0277 48.9306 50.0277C47.3614 50.0277 46.0871 48.7525 46.0871 47.1823C46.0871 45.6121 47.3614 44.337 48.9306 44.337C50.4997 44.337 51.774 45.6121 51.774 47.1823ZM50.2777 47.1641C50.2777 46.4082 49.666 45.7961 48.9105 45.7961C48.1551 45.7961 47.5434 46.4082 47.5434 47.1641C47.5434 47.9201 48.1551 48.5321 48.9105 48.5321C49.666 48.5321 50.2777 47.9201 50.2777 47.1641Z" fill="white"/>
</g>
<defs>
<filter id="filter0_d_445_2424" x="-1.90735e-06" y="-2.47955e-05" width="100.2" height="100.2" filterUnits="userSpaceOnUse" colorInterpolationFilters="sRGB">
<feFlood floodOpacity="0" result="BackgroundImageFix"/>
<feColorMatrix in="SourceAlpha" type="matrix" values="0 0 0 0 0 0 0 0 0 0 0 0 0 0 0 0 0 0 127 0" result="hardAlpha"/>
<feMorphology radius="1" operator="dilate" in="SourceAlpha" result="effect1_dropShadow_445_2424"/>
<feOffset dy="4"/>
<feGaussianBlur stdDeviation="4.55"/>
<feComposite in2="hardAlpha" operator="out"/>
<feColorMatrix type="matrix" values="0 0 0 0 0.281386 0 0 0 0 0.172063 0 0 0 0 0.103823 0 0 0 0.1 0"/>
<feBlend mode="normal" in2="BackgroundImageFix" result="effect1_dropShadow_445_2424"/>
<feBlend mode="normal" in="SourceGraphic" in2="effect1_dropShadow_445_2424" result="shape"/>
</filter>
<linearGradient id="paint0_linear_445_2424" x1="25.3" y1="6.09997" x2="109.102" y2="43.3453" gradientUnits="userSpaceOnUse">
<stop stopColor="#FF6200"/>
<stop offset="1" stopColor="#FFD100"/>
</linearGradient>
</defs>
</svg>
