<svg width="44" height="44" viewBox="0 0 44 44" fill="none" xmlns="http://www.w3.org/2000/svg">
<path d="M41.25 2.75H2.75V41.25H41.25V2.75Z" fill="#FFCA28"/>
<path d="M26.125 34.771L28.9596 32.8952C29.1818 33.5932 30.5885 35.2507 32.3654 35.2507C34.1424 35.2507 34.9673 34.2802 34.9673 33.6367C34.9673 31.8833 33.1529 31.2651 32.2814 30.9683C32.1392 30.9199 32.0224 30.88 31.9424 30.8452C31.9012 30.8273 31.8392 30.8036 31.7596 30.7732C30.7904 30.4029 27.2144 29.0367 27.2144 25.0764C27.2144 20.7145 31.424 20.2129 32.376 20.2129C32.9988 20.2129 35.9932 20.2892 37.4846 23.0917L34.7346 25.0111C34.1318 23.7897 33.1301 23.3863 32.5135 23.3863C30.9904 23.3863 30.6731 24.5028 30.6731 25.0111C30.6731 26.4372 32.3279 27.0765 33.725 27.6162C34.0906 27.7574 34.4385 27.8917 34.7346 28.0317C36.2576 28.7514 38.5 29.9292 38.5 33.6367C38.5 35.4938 36.9424 38.5004 33.0212 38.5004C27.7538 38.5004 26.3577 35.338 26.125 34.771Z" fill="#3E3E3E"/>
<path d="M12.375 35.1434L15.3295 33.2687C15.5609 33.9663 16.4605 35.2525 17.7657 35.2525C19.071 35.2525 19.7391 33.9118 19.7391 33.2687V20.6255H23.3725V33.2687C23.4314 35.0127 22.4642 38.5005 18.1957 38.5005C14.2711 38.5005 12.6396 36.1681 12.375 35.1434Z" fill="#3E3E3E"/>
</svg>
