<svg width="16" height="20" viewBox="0 0 16 20" fill="none" xmlns="http://www.w3.org/2000/svg">
<path d="M8 0C3.58194 0 0 3.47993 0 7.77217C0.00141355 7.89577 0.00424066 8.01936 0.00989487 8.14159C0.0113084 8.16699 0.012722 8.19171 0.0141355 8.21643C0.376712 15.6192 8.00071 20 8.00071 20C8.00071 20 15.6247 15.6192 15.9866 8.21643C15.988 8.19171 15.9894 8.16631 15.9908 8.14159C15.9965 8.01936 15.9993 7.89645 16.0007 7.77217C16 3.47993 12.4181 0 8 0ZM8 11.055C5.73195 11.055 3.89363 9.26906 3.89363 7.06561C3.89363 4.86216 5.73195 3.07618 8 3.07618C10.268 3.07618 12.1064 4.86216 12.1064 7.06561C12.1064 9.26906 10.268 11.055 8 11.055Z" fill="#FF6200"/>
<path d="M8 0.25C12.1529 0.25 15.5324 3.41715 15.7402 7.38574L15.751 7.77246C15.7496 7.89276 15.7465 8.01055 15.7412 8.12695C15.7405 8.13943 15.74 8.15252 15.7393 8.16504C15.7386 8.17754 15.738 8.18994 15.7373 8.20215V8.2041C15.5605 11.8204 13.6078 14.7123 11.6777 16.7109C10.7144 17.7084 9.76149 18.478 9.0498 18.998C8.69435 19.2578 8.39969 19.4551 8.19434 19.5869C8.11691 19.6366 8.05134 19.6761 8.00098 19.707C7.95059 19.6761 7.88518 19.6367 7.80762 19.5869C7.60221 19.4551 7.30689 19.2579 6.95117 18.998C6.23944 18.478 5.28663 17.7085 4.32324 16.7109C2.39304 14.7123 0.440795 11.8204 0.263672 8.2041V8.20215L0.259766 8.12793C0.254399 8.01122 0.251396 7.89247 0.25 7.77246C0.25 3.62505 3.71316 0.25 8 0.25ZM8 2.82617C5.6008 2.82617 3.64365 4.71723 3.64355 7.06543C3.64355 9.41371 5.60074 11.3047 8 11.3047C10.3993 11.3047 12.3564 9.41371 12.3564 7.06543C12.3563 4.71723 10.3992 2.82617 8 2.82617Z" stroke="white" stroke-opacity="0.6" stroke-width="0.5"/>
</svg>
