<svg width="120" height="19" viewBox="0 0 120 19" fill="none" xmlns="http://www.w3.org/2000/svg">
<path d="M107.963 18.3373H104.125V4.73227H107.908V6.98543L107.963 7.04035V18.3358V18.3373ZM113.995 18.3373H110.157V8.30497C110.157 8.04818 110.102 7.87007 109.993 7.76914C109.883 7.6682 109.691 7.61774 109.417 7.61774H108.759C108.503 7.61774 108.306 7.68602 108.17 7.82405C108.034 7.96209 107.964 8.18622 107.964 8.49792V9.29499H107.827V7.01363C107.827 6.28039 108.024 5.71784 108.416 5.32302C108.808 4.92968 109.371 4.73227 110.102 4.73227H110.788C111.921 4.73227 112.74 5.00687 113.241 5.55754C113.743 6.10673 113.995 6.84887 113.995 7.78398V18.3388V18.3373ZM119.999 18.3373H116.188V8.30497C116.188 8.04818 116.133 7.87007 116.024 7.76914C115.914 7.6682 115.722 7.61774 115.448 7.61774H114.79C114.516 7.61774 114.315 7.68602 114.188 7.82405C114.059 7.96209 113.995 8.18622 113.995 8.49792V9.29499H113.803L113.638 7.06855C113.601 6.3546 113.82 5.78612 114.296 5.36458C114.771 4.94304 115.383 4.73227 116.133 4.73227H116.819C117.934 4.73227 118.742 5.00687 119.246 5.55754C119.748 6.10673 119.999 6.84887 119.999 7.78398V18.3388V18.3373Z" fill="black"/>
<path d="M95.8642 11.8799H92.0327V7.78431C92.0327 6.85059 92.284 6.10836 92.7851 5.55763C93.2862 5.00838 94.1037 4.73227 95.2345 4.73227H95.8908C96.6387 4.73227 97.2093 4.9297 97.601 5.32309C97.9927 5.71795 98.1893 6.28056 98.1893 7.01388V9.26728H98.0519V8.49685C98.0519 8.18512 97.9883 7.96096 97.8597 7.82291C97.7311 7.68485 97.5212 7.61657 97.23 7.61657H96.6003C96.3268 7.61657 96.1347 7.66704 96.0253 7.76798C95.9159 7.86893 95.8612 8.04706 95.8612 8.30387V11.877L95.8642 11.8799ZM92.0312 11.1926H95.8627V14.7657C95.8627 15.0047 95.9174 15.1784 96.0268 15.2882C96.1362 15.3981 96.3283 15.453 96.6018 15.453H97.2315C97.5227 15.453 97.7326 15.3847 97.8612 15.2467C97.9883 15.1086 98.0533 14.8845 98.0533 14.5727V13.8305H98.1908V16.0572C98.1908 16.7905 97.9942 17.3546 97.6025 17.748C97.2108 18.1414 96.6402 18.3388 95.8923 18.3388H95.2359C94.1037 18.3388 93.2877 18.0686 92.7866 17.5283C92.284 16.9879 92.0342 16.2413 92.0342 15.2882V11.1926H92.0312ZM101.858 18.3388H98.0533V7.09701L98.108 7.01388V4.73227H101.858V18.3388Z" fill="black"/>
<path d="M84.0329 8.1673V14.929C84.0329 15.168 84.0873 15.3372 84.1959 15.4382C84.3046 15.5391 84.4955 15.5896 84.7672 15.5896H85.5016V18.3388H83.8435C82.6098 18.3388 81.7271 18.0686 81.1925 17.5283C80.6579 16.9879 80.3906 16.2413 80.3906 15.2882V7.78431C80.3906 6.85059 80.6579 6.10836 81.1925 5.55763C81.7271 5.00838 82.6112 4.73227 83.8435 4.73227H85.5574V7.48148H84.7687C84.497 7.48148 84.3061 7.53196 84.1974 7.6329C84.0887 7.73384 84.0344 7.91198 84.0344 8.16879L84.0329 8.1673ZM90.3687 10.3391V12.5925H81.4216V10.3391H90.3687ZM86.725 12.0714V8.16879C86.725 7.91198 86.675 7.73384 86.5752 7.6329C86.4753 7.53196 86.2903 7.48148 86.0171 7.48148H85.3371V4.73227H86.9144C88.1466 4.73227 89.0308 5.0069 89.5654 5.55763C90.1 6.10688 90.3673 6.84911 90.3673 7.78431V12.0729H86.7235L86.725 12.0714ZM86.6971 14.8741V13.9671H90.3408V15.2867C90.3408 16.2398 90.0735 16.9864 89.5389 17.5268C89.0043 18.0671 88.1202 18.3373 86.888 18.3373H85.3386V15.5881H85.9906C86.2623 15.5881 86.4489 15.5332 86.5487 15.4233C86.6486 15.3135 86.6985 15.1309 86.6985 14.8741H86.6971Z" fill="black"/>
<path d="M62.7548 11.8799H58.9234V7.78431C58.9234 6.85059 59.1746 6.10836 59.6757 5.55763C60.1768 5.00838 60.9943 4.73227 62.1251 4.73227H62.7814C63.5294 4.73227 64.0999 4.9297 64.4916 5.32309C64.8834 5.71795 65.08 6.28056 65.08 7.01388V9.26728H64.9425V8.49685C64.9425 8.18512 64.8789 7.96096 64.7518 7.82291C64.6232 7.68485 64.4133 7.61657 64.1221 7.61657H63.4924C63.2189 7.61657 63.0268 7.66704 62.9174 7.76798C62.808 7.86893 62.7533 8.04706 62.7533 8.30387V11.877L62.7548 11.8799ZM58.9219 11.1926H62.7533V14.7657C62.7533 15.0047 62.808 15.1784 62.9174 15.2882C63.0268 15.3981 63.2189 15.453 63.4924 15.453H64.1221C64.4133 15.453 64.6232 15.3847 64.7518 15.2467C64.8789 15.1086 64.9425 14.8845 64.9425 14.5727V13.8305H65.08V16.0572C65.08 16.7905 64.8834 17.3546 64.4916 17.748C64.0999 18.1414 63.5294 18.3388 62.7814 18.3388H62.1251C60.9943 18.3388 60.1768 18.0686 59.6757 17.5283C59.1732 16.9879 58.9234 16.2413 58.9234 15.2882V11.1926H58.9219ZM68.7488 18.3388H64.944V7.09701L64.9987 7.01388V4.73227H68.7488V18.3388Z" fill="black"/>
<path d="M50.8264 8.1673V14.929C50.8264 15.168 50.8815 15.3372 50.9919 15.4382C51.1022 15.5391 51.296 15.5896 51.5718 15.5896H52.3173V18.3388H50.6341C49.3817 18.3388 48.4856 18.0686 47.943 17.5283C47.4003 16.9879 47.1289 16.2413 47.1289 15.2882V7.78431C47.1289 6.85059 47.4003 6.10836 47.943 5.55763C48.4856 5.00838 49.3832 4.73227 50.6341 4.73227H52.374V7.48148H51.5733C51.2975 7.48148 51.1037 7.53196 50.9934 7.6329C50.883 7.73384 50.8279 7.91198 50.8279 8.16879L50.8264 8.1673ZM57.2582 10.3391V12.5925H48.1755V10.3391H57.2582ZM53.5592 12.0714V8.16879C53.5592 7.91198 53.5085 7.73384 53.4072 7.6329C53.3058 7.53196 53.1179 7.48148 52.8406 7.48148H52.1503V4.73227H53.7516C55.0024 4.73227 55.9 5.0069 56.4427 5.55763C56.9854 6.10688 57.2567 6.84911 57.2567 7.78431V12.0729H53.5577L53.5592 12.0714ZM53.5309 14.8741V13.9671H57.2299V15.2867C57.2299 16.2398 56.9585 16.9864 56.4158 17.5268C55.8731 18.0671 54.9756 18.3373 53.7247 18.3373H52.1518V15.5881H52.8138C53.0896 15.5881 53.2789 15.5332 53.3803 15.4233C53.4817 15.3135 53.5324 15.1309 53.5324 14.8741H53.5309Z" fill="black"/>
<path d="M80.3906 0.80151V3.69659H69.959V0.80151H80.3906ZM73.1775 1.95865H77.1452V18.3388H73.1775V1.95865Z" fill="black"/>
<path d="M29.1387 0.80151H33.0694V18.3388H29.1387V0.80151Z" fill="black"/>
<path d="M39.0176 11.7898H35.1855V7.65609C35.1855 6.71218 35.4369 5.96903 35.9381 5.42216C36.4392 4.87679 37.2568 4.6041 38.3878 4.6041H39.0442C39.7922 4.6041 40.3629 4.80337 40.7547 5.20042C41.1465 5.59896 41.3431 6.1668 41.3431 6.90695V9.2098H41.2056V8.40523C41.2056 8.09059 41.142 7.86435 41.0134 7.72501C40.8848 7.58567 40.6748 7.51675 40.3836 7.51675H39.7538C39.4803 7.51675 39.2881 7.56769 39.1787 7.66957C39.0693 7.77146 39.0146 7.95125 39.0146 8.21045V11.7898H39.0176ZM35.1855 11.1246H39.0176V14.7309C39.0176 14.9722 39.0723 15.1475 39.1817 15.2583C39.2911 15.3692 39.4833 15.4246 39.7568 15.4246H40.3866C40.6778 15.4246 40.8877 15.3557 41.0164 15.2164C41.1435 15.077 41.2085 14.8508 41.2085 14.5362V13.8155H41.346V16.0344C41.346 16.7746 41.1494 17.3439 40.7576 17.741C40.3644 18.1395 39.7952 18.3373 39.0471 18.3373H38.3907C37.2583 18.3373 36.4422 18.0646 35.941 17.5192C35.4384 16.9739 35.1885 16.2202 35.1885 15.2583V11.1246H35.1855ZM41.2056 0.650318L45.0125 0.650318V18.3388H41.2618V16.0644L41.2071 15.9805L41.2056 0.650318Z" fill="black"/>
<path d="M18.387 18.4601L16.501 18.4465L14.1797 14.2742L16.6594 9.64965L19.9977 15.6519C20.6965 16.9085 19.8008 18.4692 18.3855 18.4586L18.387 18.4601Z" fill="#FF6200"/>
<path d="M3.89162 18.3588L1.8294 18.3437C0.412645 18.3346 -0.460798 16.7619 0.255722 15.5142L4.08851 8.83907L6.58745 13.3305L3.89162 18.3573V18.3588Z" fill="black"/>
<path d="M7.4498 11.723L4.98047 7.28446L6.78509 4.14196L9.19373 8.47008L7.4498 11.723Z" fill="black"/>
<path d="M10.2251 18.4027H10.1082L9.40645 18.3966L5.62695 18.3709L7.47451 14.926L8.33611 13.3169L10.08 10.0655L10.9431 8.45798L7.67881 2.59037L8.63219 0.92839C9.34723 -0.319233 11.1178 -0.307134 11.818 0.951074L15.7722 8.05874L13.2925 12.6833L12.4295 14.2908L10.6855 17.5422L10.2236 18.4042L10.2251 18.4027Z" fill="#FF6200"/>
</svg>
