<svg width="120" height="19" viewBox="0 0 120 19" fill="none" xmlns="http://www.w3.org/2000/svg">
<path d="M107.964 18.3373H104.126V4.73227H107.909V6.98543L107.964 7.04035V18.3358V18.3373ZM113.996 18.3373H110.158V8.30497C110.158 8.04818 110.103 7.87007 109.994 7.76914C109.884 7.6682 109.692 7.61774 109.418 7.61774H108.76C108.504 7.61774 108.307 7.68602 108.171 7.82405C108.035 7.96209 107.965 8.18622 107.965 8.49792V9.29499H107.827V7.01363C107.827 6.28039 108.024 5.71784 108.417 5.32302C108.809 4.92968 109.372 4.73227 110.103 4.73227H110.789C111.921 4.73227 112.74 5.00687 113.242 5.55754C113.744 6.10673 113.996 6.84887 113.996 7.78398V18.3388V18.3373ZM120 18.3373H116.189V8.30497C116.189 8.04818 116.134 7.87007 116.024 7.76914C115.915 7.6682 115.722 7.61774 115.448 7.61774H114.791C114.517 7.61774 114.316 7.68602 114.188 7.82405C114.059 7.96209 113.996 8.18622 113.996 8.49792V9.29499H113.803L113.639 7.06855C113.602 6.3546 113.821 5.78612 114.296 5.36458C114.772 4.94304 115.383 4.73227 116.134 4.73227H116.819C117.934 4.73227 118.743 5.00687 119.246 5.55754C119.748 6.10673 120 6.84887 120 7.78398V18.3388V18.3373Z" fill="white"/>
<path d="M95.864 11.8799H92.0325V7.78431C92.0325 6.85059 92.2838 6.10836 92.7849 5.55763C93.286 5.00838 94.1035 4.73227 95.2343 4.73227H95.8906C96.6385 4.73227 97.2091 4.9297 97.6008 5.32309C97.9926 5.71795 98.1892 6.28056 98.1892 7.01388V9.26728H98.0517V8.49685C98.0517 8.18512 97.9881 7.96096 97.8595 7.82291C97.7309 7.68485 97.521 7.61657 97.2298 7.61657H96.6001C96.3267 7.61657 96.1345 7.66704 96.0251 7.76798C95.9157 7.86893 95.861 8.04706 95.861 8.30387V11.877L95.864 11.8799ZM92.0311 11.1926H95.8625V14.7657C95.8625 15.0047 95.9172 15.1784 96.0266 15.2882C96.136 15.3981 96.3281 15.453 96.6016 15.453H97.2313C97.5225 15.453 97.7324 15.3847 97.861 15.2467C97.9881 15.1086 98.0532 14.8845 98.0532 14.5727V13.8305H98.1906V16.0572C98.1906 16.7905 97.994 17.3546 97.6023 17.748C97.2106 18.1414 96.64 18.3388 95.8921 18.3388H95.2358C94.1035 18.3388 93.2875 18.0686 92.7864 17.5283C92.2838 16.9879 92.034 16.2413 92.034 15.2882V11.1926H92.0311ZM101.858 18.3388H98.0532V7.09701L98.1079 7.01388V4.73227H101.858V18.3388Z" fill="white"/>
<path d="M84.0322 8.1673V14.929C84.0322 15.168 84.0865 15.3372 84.1952 15.4382C84.3039 15.5391 84.4948 15.5896 84.7665 15.5896H85.5008V18.3388H83.8427C82.609 18.3388 81.7264 18.0686 81.1918 17.5283C80.6572 16.9879 80.3899 16.2413 80.3899 15.2882V7.78431C80.3899 6.85059 80.6572 6.10836 81.1918 5.55763C81.7264 5.00838 82.6105 4.73227 83.8427 4.73227H85.5567V7.48148H84.768C84.4963 7.48148 84.3054 7.53196 84.1967 7.6329C84.088 7.73384 84.0336 7.91198 84.0336 8.16879L84.0322 8.1673ZM90.368 10.3391V12.5925H81.4209V10.3391H90.368ZM86.7242 12.0714V8.16879C86.7242 7.91198 86.6743 7.73384 86.5744 7.6329C86.4746 7.53196 86.2895 7.48148 86.0163 7.48148H85.3364V4.73227H86.9137C88.1459 4.73227 89.03 5.0069 89.5646 5.55763C90.0992 6.10688 90.3665 6.84911 90.3665 7.78431V12.0729H86.7228L86.7242 12.0714ZM86.6963 14.8741V13.9671H90.3401V15.2867C90.3401 16.2398 90.0728 16.9864 89.5382 17.5268C89.0036 18.0671 88.1195 18.3373 86.8873 18.3373H85.3378V15.5881H85.9899C86.2616 15.5881 86.4481 15.5332 86.548 15.4233C86.6479 15.3135 86.6978 15.1309 86.6978 14.8741H86.6963Z" fill="white"/>
<path d="M62.7548 11.8799H58.9234V7.78431C58.9234 6.85059 59.1746 6.10836 59.6757 5.55763C60.1768 5.00838 60.9943 4.73227 62.1251 4.73227H62.7814C63.5294 4.73227 64.0999 4.9297 64.4916 5.32309C64.8834 5.71795 65.08 6.28056 65.08 7.01388V9.26728H64.9425V8.49685C64.9425 8.18512 64.8789 7.96096 64.7518 7.82291C64.6232 7.68485 64.4133 7.61657 64.1221 7.61657H63.4924C63.2189 7.61657 63.0268 7.66704 62.9174 7.76798C62.808 7.86893 62.7533 8.04706 62.7533 8.30387V11.877L62.7548 11.8799ZM58.9219 11.1926H62.7533V14.7657C62.7533 15.0047 62.808 15.1784 62.9174 15.2882C63.0268 15.3981 63.2189 15.453 63.4924 15.453H64.1221C64.4133 15.453 64.6232 15.3847 64.7518 15.2467C64.8789 15.1086 64.9425 14.8845 64.9425 14.5727V13.8305H65.08V16.0572C65.08 16.7905 64.8834 17.3546 64.4916 17.748C64.0999 18.1414 63.5294 18.3388 62.7814 18.3388H62.1251C60.9943 18.3388 60.1768 18.0686 59.6757 17.5283C59.1732 16.9879 58.9234 16.2413 58.9234 15.2882V11.1926H58.9219ZM68.7488 18.3388H64.944V7.09701L64.9987 7.01388V4.73227H68.7488V18.3388Z" fill="white"/>
<path d="M50.827 8.1673V14.929C50.827 15.168 50.8822 15.3372 50.9925 15.4382C51.1028 15.5391 51.2966 15.5896 51.5725 15.5896H52.3179V18.3388H50.6347C49.3823 18.3388 48.4863 18.0686 47.9436 17.5283C47.4009 16.9879 47.1295 16.2413 47.1295 15.2882V7.78431C47.1295 6.85059 47.4009 6.10836 47.9436 5.55763C48.4863 5.00838 49.3838 4.73227 50.6347 4.73227H52.3746V7.48148H51.5739C51.2981 7.48148 51.1043 7.53196 50.994 7.6329C50.8836 7.73384 50.8285 7.91198 50.8285 8.16879L50.827 8.1673ZM57.2588 10.3391V12.5925H48.1761V10.3391H57.2588ZM53.5598 12.0714V8.16879C53.5598 7.91198 53.5092 7.73384 53.4078 7.6329C53.3064 7.53196 53.1185 7.48148 52.8412 7.48148H52.1509V4.73227H53.7522C55.0031 4.73227 55.9006 5.0069 56.4433 5.55763C56.986 6.10688 57.2573 6.84911 57.2573 7.78431V12.0729H53.5584L53.5598 12.0714ZM53.5315 14.8741V13.9671H57.2305V15.2867C57.2305 16.2398 56.9591 16.9864 56.4164 17.5268C55.8737 18.0671 54.9762 18.3373 53.7253 18.3373H52.1524V15.5881H52.8144C53.0902 15.5881 53.2795 15.5332 53.3809 15.4233C53.4823 15.3135 53.533 15.1309 53.533 14.8741H53.5315Z" fill="white"/>
<path d="M80.3899 0.80151V3.69659H69.9582V0.80151H80.3899ZM73.1767 1.95865H77.1444V18.3388H73.1767V1.95865Z" fill="white"/>
<path d="M29.1387 0.80151H33.0694V18.3388H29.1387V0.80151Z" fill="white"/>
<path d="M39.0181 11.7898H35.1861V7.65609C35.1861 6.71218 35.4374 5.96903 35.9386 5.42216C36.4398 4.87679 37.2573 4.6041 38.3883 4.6041H39.0447C39.7928 4.6041 40.3635 4.80337 40.7552 5.20042C41.147 5.59896 41.3436 6.1668 41.3436 6.90695V9.2098H41.2061V8.40523C41.2061 8.09059 41.1426 7.86435 41.014 7.72501C40.8853 7.58567 40.6754 7.51675 40.3842 7.51675H39.7544C39.4808 7.51675 39.2887 7.56769 39.1793 7.66957C39.0699 7.77146 39.0152 7.95125 39.0152 8.21045V11.7898H39.0181ZM35.1861 11.1246H39.0181V14.7309C39.0181 14.9722 39.0728 15.1475 39.1822 15.2583C39.2916 15.3692 39.4838 15.4246 39.7573 15.4246H40.3871C40.6784 15.4246 40.8883 15.3557 41.0169 15.2164C41.144 15.077 41.2091 14.8508 41.2091 14.5362V13.8155H41.3466V16.0344C41.3466 16.7746 41.15 17.3439 40.7582 17.741C40.3649 18.1395 39.7957 18.3373 39.0477 18.3373H38.3913C37.2588 18.3373 36.4427 18.0646 35.9416 17.5192C35.4389 16.9739 35.1891 16.2202 35.1891 15.2583V11.1246H35.1861ZM41.2061 0.650318L45.013 0.650318V18.3388H41.2623V16.0644L41.2076 15.9805L41.2061 0.650318Z" fill="white"/>
<path d="M18.3863 18.4601L16.5003 18.4465L14.179 14.2742L16.6587 9.64965L19.997 15.6519C20.6958 16.9085 19.8001 18.4692 18.3848 18.4586L18.3863 18.4601Z" fill="#FF6200"/>
<path d="M3.89162 18.3588L1.8294 18.3437C0.412645 18.3346 -0.460798 16.7619 0.255722 15.5142L4.08851 8.83907L6.58745 13.3305L3.89162 18.3573V18.3588Z" fill="white"/>
<path d="M7.45062 11.723L4.98129 7.28446L6.78592 4.14196L9.19455 8.47008L7.45062 11.723Z" fill="white"/>
<path d="M10.2248 18.4027H10.1079L9.40618 18.3966L5.62668 18.3709L7.47424 14.926L8.33584 13.3169L10.0798 10.0655L10.9428 8.45798L7.67853 2.59037L8.63192 0.92839C9.34696 -0.319233 11.1175 -0.307134 11.8178 0.951074L15.772 8.05874L13.2923 12.6833L12.4292 14.2908L10.6853 17.5422L10.2234 18.4042L10.2248 18.4027Z" fill="#FF6200"/>
</svg>
