<svg width="44" height="44" viewBox="0 0 44 44" fill="none" xmlns="http://www.w3.org/2000/svg">
<path fill-rule="evenodd" clip-rule="evenodd" d="M25.4207 2.75C25.1564 2.753 24.8944 2.79946 24.6451 2.8875C26.8603 4.34225 24.2601 6.45425 25.4701 8.25C25.3855 7.64889 25.4809 7.03618 25.7442 6.48923C26.0075 5.94228 26.427 5.48561 26.9496 5.17688C27.3415 4.851 27.5918 4.73413 27.5079 4.19513C27.3759 3.31238 26.1989 2.75 25.4207 2.75ZM28.5831 3.31925C28.2779 4.86338 27.8956 4.91975 26.764 5.91388C26.3222 6.2615 26.0103 6.74776 25.8786 7.29429C25.7469 7.84082 25.8031 8.41578 26.038 8.9265C21.363 7.1115 15.3708 6.01425 10.9776 9.15475C9.39777 10.2836 8.43252 11.9047 6.48415 12.5661C5.22465 12.9965 3.98715 12.87 3.20065 14.1185C2.912 14.479 2.76121 14.9306 2.77532 15.3922C2.78943 15.8538 2.96752 16.2953 3.27765 16.6375C3.5114 16.8781 3.96515 17.0321 4.15215 17.2769C4.26077 17.4144 4.25802 17.5519 4.36115 17.7347C4.54296 18.1612 4.80641 18.5479 5.13665 18.8732C5.3374 19.0396 6.03315 19.2019 6.1514 19.3792C6.29852 19.6006 5.91352 20.4792 6.23665 20.6168C6.45527 20.7171 7.0919 19.5938 7.15377 19.4948C7.02727 20.3789 6.8609 21.9478 7.85502 20.6415C8.32665 20.0214 8.35552 19.8165 9.1489 19.679C10.7147 19.4108 12.3191 19.4701 13.8609 19.8531C15.4026 20.2361 16.8483 20.9346 18.1065 21.9043C19.3648 22.8741 20.4084 24.0942 21.1715 25.4875C21.9346 26.8809 22.4005 28.4173 22.54 29.9998C22.3915 29.3123 21.4936 28.2122 20.6576 28.4735C20.3015 28.5835 20.1695 29.1981 19.9358 29.5542C19.6407 30.0061 19.2764 30.4089 18.8564 30.7477C18.9281 30.0812 18.8947 29.4075 18.7574 28.7512C18.5071 29.7797 18.0053 31.4861 16.7416 31.2097C16.3207 31.1455 15.9263 30.9642 15.6034 30.6865C15.2806 30.4089 15.0422 30.0461 14.9156 29.6395C14.752 28.5945 15.8561 27.3694 14.081 27.2827C10.5198 27.1081 11.3434 32.3455 13.4458 33.7109C12.9626 33.7643 12.4913 33.8957 12.0501 34.1C13.3846 34.8754 14.8882 35.3133 16.4303 35.3754C17.9725 35.4376 19.5064 35.1223 20.899 34.4567C22.2915 33.7912 23.5004 32.7957 24.4207 31.5568C25.341 30.3178 25.9448 28.8728 26.1796 27.3474C26.6694 29.5789 26.3548 31.9116 25.2914 33.9336C24.8463 34.7789 24.2761 35.5521 23.6001 36.2271C23.1876 36.6396 22.3709 37.0934 22.1028 37.521C23.7715 37.3004 25.4023 36.8525 26.9496 36.19C25.348 38.3725 23.2192 40.1134 20.7621 41.25C23.4004 41.0632 25.9508 40.2228 28.1832 38.8043C30.4156 37.3859 32.2598 35.4342 33.5496 33.1251C33.1386 35.4345 32.2257 37.6256 30.8753 39.5436C32.6916 38.3277 34.2368 36.7493 35.414 34.9077C36.5912 33.0661 37.3749 31.001 37.7159 28.842C38.0538 30.4225 38.1507 32.045 38.0033 33.6545C39.4958 31.5816 40.5042 29.2002 40.9542 26.6858C41.4041 24.1714 41.2843 21.5882 40.6034 19.1262C40.0823 17.2126 39.3009 15.3795 38.281 13.6785C37.8863 13.0156 37.4543 12.3757 36.9871 11.7618C36.8043 11.5239 35.8266 10.6535 35.8266 10.3867C35.8184 10.4133 35.8115 10.4133 35.806 10.3867C35.806 14.8775 30.9935 17.6894 26.9634 16.5234C28.5235 16.4009 29.9951 15.7499 31.1352 14.6779C32.2752 13.6059 33.0154 12.177 33.2334 10.6274C33.4173 9.06037 33.0554 7.47786 32.2085 6.14661C31.3617 4.81537 30.0804 3.81681 28.5831 3.31925Z" fill="url(#paint0_linear_445_2392)"/>
<defs>
<linearGradient id="paint0_linear_445_2392" x1="21.9955" y1="41.25" x2="21.9955" y2="2.75" gradientUnits="userSpaceOnUse">
<stop stop-color="#FFB199"/>
<stop offset="1" stop-color="#FF0844"/>
</linearGradient>
</defs>
</svg>
