<svg width="44" height="44" viewBox="0 0 44 44" fill="none" xmlns="http://www.w3.org/2000/svg">
<g clip-path="url(#clip0_445_2404)">
<path d="M23.8941 0.46942C22.7475 -0.157879 21.2526 -0.155066 20.105 0.46942C14.3575 3.555 8.60979 6.64151 2.86118 9.72568C1.74257 10.2981 0.988107 11.4667 1.00014 12.6796V31.323C0.992065 32.5596 1.78543 33.7394 2.93289 34.304C4.58407 35.1585 6.18829 36.0998 7.86933 36.8975C9.81114 37.8257 12.2405 38.031 14.2061 37.063C15.8016 36.2607 16.5103 34.4764 16.5082 32.8366C16.5211 26.6838 16.5103 20.5309 16.5132 14.378C16.5512 14.1045 16.34 13.8122 16.0334 13.8188C15.2989 13.8075 14.5634 13.8122 13.8289 13.817C13.5514 13.7915 13.2805 14.0157 13.3015 14.2871C13.2916 20.4003 13.3034 26.5154 13.2955 32.6295C13.3115 33.4752 12.7241 34.288 11.8863 34.5737C9.95117 35.2335 4.42781 31.7448 4.42781 31.7448C4.22512 31.6535 4.0964 31.4396 4.11627 31.2271C4.11627 25.0762 4.11726 18.9252 4.11627 12.7753C4.0884 12.5273 4.2455 12.304 4.47957 12.2028C10.2082 9.13535 15.9339 6.06028 21.6626 2.991C21.8616 2.86181 22.1389 2.8622 22.3375 2.99194C28.0661 6.06028 33.7928 9.13254 39.5224 12.2001C39.7573 12.3012 39.9077 12.5282 39.8838 12.7753C39.8828 18.9252 39.8857 25.0762 39.8819 31.2264C39.8988 31.444 39.7832 31.6549 39.5743 31.7504C33.8991 34.8012 28.1593 37.7536 22.5355 40.893C22.2901 41.0299 22.0121 41.185 21.7372 41.0341C20.2583 40.2383 18.7974 39.4116 17.3233 38.6081C17.1631 38.5109 16.959 38.4691 16.7918 38.578C16.131 38.9168 15.5094 39.1911 14.7505 39.4834C13.6847 39.8939 13.8549 40.0617 14.8162 40.6065C16.54 41.5555 18.2667 42.5007 19.9905 43.4507C21.1253 44.1396 22.65 44.1886 23.8214 43.552C29.5699 40.4703 35.3166 37.3849 41.0663 34.3032C42.2106 33.7355 43.0079 32.5603 42.9999 31.3228V12.6796C43.011 11.4913 42.2854 10.3436 41.2005 9.76265C35.4329 6.66203 29.6626 3.56815 23.8941 0.46942Z" fill="#8CC84B"/>
<path d="M32.7145 14.217C30.5651 12.9679 28.008 12.9014 25.6195 13.0647C23.8939 13.2499 22.079 13.7671 20.8219 15.1108C19.5325 16.4615 19.2518 18.6426 19.8642 20.4059C20.3031 21.6519 21.4079 22.4621 22.5504 22.8907C24.0221 23.4551 25.5678 23.6296 27.1139 23.8041C28.5242 23.9633 29.9349 24.1226 31.2903 24.5778C31.844 24.777 32.4888 25.0819 32.6584 25.7364C32.8151 26.5113 32.6434 27.4122 32.0641 27.9506C30.2242 29.5325 25.1061 29.2901 23.2882 28.0451C22.5532 27.5147 22.2365 26.5757 22.1077 25.6809C22.0934 25.402 21.8867 25.1463 21.608 25.1675C20.9101 25.1585 20.2122 25.1605 19.5143 25.1665C19.2708 25.1443 19.0177 25.3325 19.0043 25.6025C18.8609 29.7008 22.326 31.4875 25.577 31.8808C27.4343 32.073 29.3324 32.062 31.1614 31.6291C32.5362 31.289 33.9148 30.6629 34.8612 29.5126C36.0283 28.1146 36.2578 26.0333 35.7344 24.2919C35.3343 22.9925 34.1907 22.1591 33.0218 21.7303C31.4321 21.1382 29.5481 20.8199 28.1083 20.671C26.0156 20.4545 23.5287 20.5429 22.9364 19.0492C22.7002 18.267 22.9011 17.2958 23.5629 16.8147C25.3137 15.5247 28.877 15.696 30.6902 16.6597C31.5227 17.1126 32.0052 18.0427 32.2043 18.9816C32.2412 19.2574 32.4121 19.5453 32.706 19.5333C33.3991 19.5483 34.0922 19.5373 34.7852 19.5383C35.0233 19.5563 35.284 19.4104 35.3304 19.1456C35.3011 17.1831 34.3785 15.1741 32.7145 14.217Z" fill="#8CC84B"/>
</g>
<defs>
<clipPath id="clip0_445_2404">
<rect width="44" height="44" fill="white"/>
</clipPath>
</defs>
</svg>
