<svg width="60" height="60" viewBox="0 0 60 60" fill="none" xmlns="http://www.w3.org/2000/svg">
<rect width="60" height="60" rx="6" fill="white"/>
<path d="M33.6835 29.9508C33.6835 27.9785 32.0345 26.3794 30 26.3794C27.9658 26.3794 26.3165 27.9785 26.3165 29.9508C26.3165 31.9234 27.9658 33.5224 30 33.5224C32.0345 33.5224 33.6835 31.9234 33.6835 29.9508Z" fill="#53C1DE"/>
<path fill-rule="evenodd" clip-rule="evenodd" d="M41.9631 23.3202C42.7409 20.2555 43.7187 14.5722 40.2718 12.6454C36.841 10.7269 32.3766 14.403 30.0191 16.6095C27.6686 14.425 23.0787 10.7646 19.6347 12.6976C16.2053 14.6224 17.2629 20.2115 18.058 23.2955C14.8589 24.1764 9.375 26.0739 9.375 29.9507C9.375 33.8166 14.8532 35.881 18.0333 36.7611C17.2353 39.8622 16.2307 45.3714 19.6645 47.292C23.1213 49.2245 27.6969 45.6513 30.0762 43.4207C32.4487 45.6402 36.8703 49.2368 40.3018 47.3108C43.7439 45.3788 42.8475 39.7717 42.0523 36.6698C45.135 35.7878 50.625 33.7683 50.625 29.9507C50.625 26.1112 45.1117 24.1983 41.9631 23.3202ZM41.5723 35.026C41.0502 33.4236 40.3455 31.7195 39.4835 29.9593C40.3063 28.2405 40.9836 26.5585 41.4911 24.9664C43.7994 25.6152 48.8629 27.0982 48.8629 29.9507C48.8629 32.8301 44.0038 34.3271 41.5723 35.026ZM39.4188 45.8321C36.8585 47.269 33.0554 43.8296 31.3032 42.1951C32.4656 40.9624 33.6272 39.5294 34.7609 37.9381C36.7552 37.7667 38.6391 37.4862 40.3477 37.1032C40.9073 39.2973 41.9903 44.3888 39.4188 45.8321ZM20.545 45.8116C17.9845 44.3801 19.1548 39.464 19.7419 37.1797C21.4315 37.5421 23.3018 37.8028 25.3008 37.96C26.4419 39.517 27.6372 40.9483 28.8417 42.2017C27.3535 43.5975 23.1174 47.2498 20.545 45.8116ZM11.137 29.9507C11.137 27.0606 16.1703 25.5884 18.5312 24.9412C19.0475 26.5691 19.7246 28.2712 20.5417 29.9924C19.714 31.7392 19.0272 33.4683 18.5062 35.1154C16.2551 34.4906 11.137 32.8426 11.137 29.9507ZM20.5176 14.1763C23.0886 12.7334 27.0777 16.2474 28.7844 17.8291C27.5861 19.0768 26.4018 20.4972 25.2704 22.0453C23.3304 22.2197 21.4733 22.4996 19.766 22.8747C19.1255 20.3874 17.9494 15.6176 20.5176 14.1763ZM36.0215 23.9024C37.3377 24.0634 38.5987 24.2776 39.7827 24.5397C39.4273 25.6444 38.9842 26.7995 38.4624 27.9837C37.706 26.5922 36.8941 25.2286 36.0215 23.9024ZM30.0197 19.05C30.8324 19.9037 31.6464 20.857 32.4472 21.8913C30.8229 21.8168 29.196 21.8165 27.5718 21.8902C28.3732 20.8655 29.1942 19.9136 30.0197 19.05ZM21.5527 27.9824C21.0395 26.8024 20.6005 25.6422 20.2419 24.5217C21.4189 24.2664 22.674 24.0576 23.9816 23.8992C23.1066 25.2225 22.296 26.5856 21.5527 27.9824ZM24.0192 36.1242C22.6684 35.9781 21.3942 35.7799 20.2176 35.5316C20.5819 34.3914 21.0306 33.2062 21.5547 32.0007C22.3082 33.4122 23.1312 34.7884 24.0192 36.1242ZM30.0685 40.9722C29.2333 40.0984 28.4002 39.1319 27.5866 38.0924C29.2201 38.1545 30.8568 38.1547 32.4901 38.084C31.6869 39.1425 30.8757 40.1103 30.0685 40.9722ZM38.4792 31.9394C39.0306 33.1579 39.4953 34.3367 39.8645 35.4576C38.6684 35.7223 37.3771 35.9354 36.0166 36.0937C36.8956 34.7423 37.7205 33.3576 38.4792 31.9394ZM33.7775 36.3008C31.2789 36.4739 28.7647 36.472 26.2652 36.3149C24.845 34.3034 23.5807 32.188 22.4893 29.9919C23.5754 27.8002 24.8306 25.6889 26.2441 23.6806C28.7453 23.4973 31.262 23.4968 33.7632 23.6817C35.1646 25.6899 36.4178 27.7957 37.5291 29.9675C36.431 32.158 35.1693 34.2736 33.7775 36.3008ZM39.3917 14.1255C41.9633 15.5636 40.8186 20.6714 40.2568 22.8925C38.5455 22.5095 36.687 22.2246 34.7414 22.0475C33.6079 20.4827 32.4335 19.0598 31.2545 17.8282C32.9831 16.2124 36.8449 12.7014 39.3917 14.1255Z" fill="#53C1DE"/>
</svg>
