<svg width="50" height="50" viewBox="0 0 50 50" fill="none" xmlns="http://www.w3.org/2000/svg">
<path d="M33.9375 34.7215H16.0625C14.9579 34.7215 14.0625 33.826 14.0625 32.7215V20.9229C14.0625 19.8183 14.9579 18.9229 16.0625 18.9229H33.9375C35.0421 18.9229 35.9375 19.8183 35.9375 20.9229V32.7215C35.9375 33.826 35.0421 34.7215 33.9375 34.7215Z" stroke="white" stroke-width="2"/>
<path d="M30.4687 27.4301C30.1331 27.4301 29.861 27.1581 29.861 26.8225C29.861 26.4869 30.1331 26.2148 30.4687 26.2148C30.8042 26.2148 31.0763 26.4869 31.0763 26.8225C31.0763 27.1581 30.8042 27.4301 30.4687 27.4301Z" stroke="white" stroke-width="2" stroke-linecap="round" stroke-linejoin="round"/>
<path d="M32.2917 18.9236V16.6657C32.2917 15.3517 31.046 14.3947 29.7763 14.7333L15.5472 18.5277C14.6717 18.7612 14.0625 19.5541 14.0625 20.4602V21.3542" stroke="white" stroke-width="2"/>
</svg>
