<svg width="379" height="390" viewBox="0 0 379 390" fill="none" xmlns="http://www.w3.org/2000/svg">
<path d="M12.557 264.167L220.198 384.405L367.949 299.205C371.736 297.005 378.613 294.227 374.827 292.066L168.5 173.025C166.993 172.137 156.368 172.446 154.861 173.333L10.9729 256.373C7.99775 259.305 10.6251 263.087 12.557 264.206V264.167Z" fill="#291B2A"/>
<path d="M379 297.005C379 299.089 377.647 301.134 374.904 302.716L235.653 382.823C230.205 385.949 221.434 385.949 216.063 382.823L12.5956 265.171C9.9296 263.627 8.57727 261.582 8.57727 259.537V264.322C8.57727 266.367 9.9296 268.412 12.5956 269.956L216.063 387.569C221.434 390.695 230.243 390.695 235.653 387.569L374.904 307.462C377.647 305.88 379 303.835 379 301.751V296.967V297.005Z" fill="url(#paint0_linear_445_1040)"/>
<path d="M41.961 284.541L26.4671 275.589C25.733 275.165 25.1534 275.512 25.1534 276.361V276.785C25.1534 277.634 25.733 278.637 26.4671 279.062L41.961 288.014C42.6951 288.439 43.2747 288.091 43.2747 287.242V286.818C43.2747 285.969 42.6951 284.927 41.961 284.541Z" fill="#CE633D"/>
<path d="M44.1247 285.545C44.0088 285.236 43.8543 284.966 43.6997 284.696C43.4679 284.387 43.2361 284.155 42.9656 284.001L27.4718 275.049C27.124 274.856 26.7763 274.817 26.5444 274.972L25.5785 275.512C25.8103 275.358 26.1581 275.396 26.5058 275.589L41.9996 284.541C42.2701 284.696 42.5406 284.966 42.7338 285.236C42.9269 285.506 43.0815 285.776 43.1588 286.085C43.2361 286.316 43.2747 286.586 43.2747 286.818V287.242C43.2747 287.667 43.1201 287.976 42.8883 288.091L43.8543 287.551C44.0861 287.397 44.2406 287.127 44.2406 286.702V286.278C44.2406 286.046 44.202 285.776 44.1247 285.545Z" fill="url(#paint1_linear_445_1040)"/>
<path d="M59.6955 294.458C59.5796 294.15 59.425 293.879 59.2705 293.609C59.0387 293.301 58.8068 293.069 58.5364 292.915L51.1951 288.67C50.8474 288.477 50.4997 288.439 50.2678 288.593L49.3019 289.133C49.5337 288.979 49.8814 289.017 50.2292 289.21L57.5704 293.455C57.8409 293.609 58.1113 293.879 58.3045 294.15C58.4977 294.42 58.6523 294.69 58.7295 294.998C58.8068 295.269 58.8455 295.5 58.8455 295.732V296.156C58.8455 296.581 58.6909 296.889 58.4591 297.005L59.425 296.465C59.6569 296.31 59.8114 296.04 59.8114 295.616V295.191C59.8114 294.96 59.7728 294.69 59.6955 294.458Z" fill="url(#paint2_linear_445_1040)"/>
<path d="M57.5321 293.455L50.1909 289.21C49.4568 288.786 48.8772 289.133 48.8772 289.982V290.407C48.8772 291.256 49.4568 292.297 50.1909 292.683L57.5321 296.928C58.2662 297.352 58.8458 297.005 58.8458 296.156V295.732C58.8458 294.883 58.2662 293.841 57.5321 293.455Z" fill="#CE633D"/>
<path d="M374.981 291.371L171.514 173.758C166.143 170.632 157.334 170.632 151.924 173.758L12.6729 253.865C7.22499 256.99 7.22499 262.045 12.5957 265.209L216.063 382.823C221.434 385.948 230.243 385.948 235.653 382.823L374.904 302.716C380.352 299.59 380.352 294.535 374.981 291.371ZM369.031 292.104L217.609 379.196C216.488 379.852 215.059 379.852 213.938 379.196L12.5184 262.817C10.0069 261.351 10.0069 257.762 12.5184 256.296L58.9613 229.555L65.9547 230.211L116.416 201.116L115.295 197.142L152.465 175.764C158.261 172.407 165.409 172.446 171.243 175.764L369.031 290.059C369.804 290.522 369.804 291.603 369.031 292.066V292.104Z" fill="#42352B"/>
<path d="M308.254 335.746L305.626 334.242C304.312 333.47 302.11 333.547 300.642 334.434L291.291 339.837C290.789 340.107 290.403 340.493 290.171 340.879C289.669 341.766 289.978 342.731 290.944 343.271L293.571 344.776C294.885 345.548 297.087 345.47 298.555 344.583L307.906 339.181C308.408 338.911 308.795 338.525 309.026 338.139C309.529 337.251 309.22 336.287 308.254 335.746Z" fill="#352A21"/>
<path d="M308.254 336.634L305.626 335.129C304.313 334.357 302.11 334.434 300.642 335.322L291.292 340.724C290.789 340.994 290.403 341.38 290.171 341.766C290.094 341.92 290.055 342.075 290.017 342.229C290.171 342.653 290.48 343.039 290.944 343.309L293.571 344.814C294.885 345.586 297.087 345.509 298.556 344.621L307.906 339.219C308.408 338.949 308.795 338.563 309.027 338.177C309.104 338.023 309.143 337.869 309.181 337.714C309.027 337.29 308.718 336.904 308.254 336.634Z" fill="#42352B"/>
<path d="M90.5667 213.965C89.7167 214.467 88.3643 214.467 87.5529 213.965C86.7029 213.464 86.7415 212.692 87.5529 212.229C88.403 211.727 89.7553 211.727 90.5667 212.229C91.4167 212.731 91.3781 213.502 90.5667 213.965Z" fill="#191414"/>
<path opacity="0.1" d="M87.9777 213.772C88.5959 214.12 89.6005 214.081 90.2187 213.695C90.8369 213.309 90.7983 212.731 90.1801 212.383C89.5618 212.036 88.5573 212.075 87.9391 212.422C87.3208 212.769 87.3595 213.387 87.9777 213.734V213.772Z" fill="#D3D0D6"/>
<path opacity="0.1" d="M88.441 213.425C88.7887 213.618 89.3297 213.58 89.6388 213.425C89.9865 213.232 89.9479 212.924 89.6388 212.731C89.291 212.538 88.7501 212.576 88.441 212.731C88.0932 212.924 88.1319 213.232 88.441 213.425Z" fill="#D3D0D6"/>
<g style="mix-blend-mode:screen" opacity="0.2">
<path d="M88.8273 213.194C88.8273 213.194 89.1364 213.271 89.291 213.194C89.4069 213.117 89.4069 213.001 89.291 212.924C89.175 212.846 88.9818 212.846 88.8273 212.924C88.7114 213.001 88.7114 213.117 88.8273 213.194Z" fill="#D3D0D6"/>
</g>
<path d="M110.234 200.229L100.536 205.824C99.9175 206.171 99.8789 206.711 100.381 206.981C100.883 207.29 101.811 207.251 102.39 206.904L112.089 201.309C112.707 200.962 112.745 200.421 112.243 200.151C111.741 199.881 110.813 199.881 110.234 200.229Z" fill="#191414"/>
<path d="M75.1888 220.41L65.4907 226.005C64.9111 226.352 64.8338 226.892 65.3361 227.162C65.8384 227.471 66.7657 227.432 67.3453 227.085L77.0434 221.49C77.6616 221.143 77.7003 220.602 77.198 220.332C76.6957 220.024 75.7684 220.062 75.1888 220.41Z" fill="#191414"/>
<path d="M308.06 345.046L301.028 349.098C300.217 349.561 299.56 349.29 299.56 348.48C299.56 347.67 300.217 346.628 301.028 346.126L308.06 342.075C308.871 341.612 309.528 341.882 309.528 342.692C309.528 343.502 308.871 344.544 308.06 345.046Z" fill="#352A21"/>
<mask id="mask0_445_1040" style="mask-type:luminance" maskUnits="userSpaceOnUse" x="299" y="341" width="11" height="9">
<path d="M308.06 345.046L301.028 349.098C300.217 349.561 299.56 349.29 299.56 348.48C299.56 347.67 300.217 346.628 301.028 346.126L308.06 342.075C308.871 341.612 309.528 341.882 309.528 342.692C309.528 343.502 308.871 344.544 308.06 345.046Z" fill="white"/>
</mask>
<g mask="url(#mask0_445_1040)">
<path d="M298.323 346.126L297.357 346.705L300.835 348.712L301.801 348.133L298.323 346.126ZM300.487 344.891L299.521 345.47L302.998 347.477L303.964 346.898L300.487 344.891ZM302.651 343.657L301.685 344.235L305.162 346.242L306.128 345.663L302.651 343.657ZM304.776 342.422L303.81 343.001L307.287 345.007L308.253 344.428L304.776 342.422Z" fill="#4F7C3C"/>
</g>
<g opacity="0.4">
<g style="mix-blend-mode:screen">
<path d="M363.274 268.103L169.543 156.394L18.7391 243.33L212.47 355.04C214.402 356.159 217.532 356.159 219.425 355.04L363.235 272.116C365.167 270.997 365.167 269.222 363.235 268.103H363.274Z" fill="#D45438"/>
</g>
<path d="M173.871 158.863L23.0666 245.8L14.2185 240.706C12.2866 239.587 12.2866 237.812 14.2185 236.693L158.029 153.77C159.961 152.651 163.091 152.651 164.984 153.77L173.832 158.863H173.871Z" fill="#D85421"/>
</g>
<g opacity="0.7">
<g style="mix-blend-mode:screen">
<path d="M363.274 251.202L169.543 139.492L18.7391 226.468L212.47 338.177C214.402 339.297 217.532 339.297 219.425 338.177L363.235 255.254C365.167 254.135 365.167 252.36 363.235 251.241L363.274 251.202Z" fill="#D45438"/>
</g>
<path d="M173.871 142.001L23.0666 228.937L14.2185 223.844C12.2866 222.725 12.2866 220.95 14.2185 219.831L158.029 136.907C159.961 135.788 163.091 135.788 164.984 136.907L173.832 142.001H173.871Z" fill="#D85421"/>
</g>
<g style="mix-blend-mode:screen">
<path d="M363.274 234.34L169.543 122.63L18.7391 209.567L212.47 321.276C214.402 322.395 217.532 322.395 219.425 321.276L363.235 238.353C365.167 237.234 365.167 235.459 363.235 234.34H363.274Z" fill="#D45438"/>
</g>
<path d="M173.871 125.138L23.0666 212.075L14.2185 206.981C12.2866 205.862 12.2866 204.087 14.2185 202.968L158.029 120.045C159.961 118.926 163.091 118.926 164.984 120.045L173.832 125.138H173.871Z" fill="#D85421"/>
<path d="M148.872 136.946L141.028 141.46L133.223 136.946L141.028 132.431L148.872 136.946Z" fill="#BC350B"/>
<path d="M158.57 131.351L150.726 135.865L142.922 131.351L150.726 126.836L158.57 131.351Z" fill="#BC350B"/>
<path d="M145.394 131.351L150.726 134.438L156.058 131.351L150.726 128.264L145.394 131.351ZM154.242 131.351L150.726 133.357L147.21 131.351L150.726 129.344L154.242 131.351Z" fill="#FFDAC2"/>
<path d="M168.268 125.755L160.425 130.27L152.62 125.755L160.425 121.241L168.268 125.755Z" fill="#BC350B"/>
<path d="M155.827 126.141H160V128.534H161.352V126.141H165.525V125.369H161.352V122.938H160V125.369H155.827V126.141Z" fill="#FFDAC2"/>
<path d="M146.283 137.023L141.26 139.917L140.294 139.377L145.317 136.483L146.283 137.023Z" fill="#FFDAC2"/>
<path opacity="0.3" d="M357.865 236.076L215.445 318.189L32.2238 212.538L174.643 130.425L357.865 236.076Z" fill="#FFDCBB"/>
<g style="mix-blend-mode:overlay" opacity="0.5">
<path d="M357.865 236.076L215.445 318.189L32.2238 212.538L174.643 130.425L357.865 236.076Z" fill="#FFDCBB"/>
</g>
<path d="M187.626 137.91L45.1675 220.024L32.2238 212.538L174.643 130.425L187.626 137.91Z" fill="#FFA878"/>
<path d="M200.53 309.623L215.445 318.189L357.864 236.076L342.989 227.471L200.53 309.623Z" fill="#FFA878"/>
<path opacity="0.9" d="M223.057 200.422C203.545 211.65 171.939 211.65 152.427 200.422C132.915 189.193 132.915 170.941 152.427 159.674C171.939 148.445 203.545 148.445 223.057 159.674C242.569 170.902 242.569 189.154 223.057 200.422Z" fill="#FFDAC2"/>
<path d="M223.057 200.422C203.545 211.651 171.939 211.651 152.427 200.422V204.435C171.939 215.664 203.545 215.664 223.057 204.435C232.909 198.762 237.816 191.277 237.701 183.791V179.778C237.816 187.225 232.948 194.711 223.057 200.422Z" fill="#FFA878"/>
<path d="M188.477 166.735L188.206 179.507L187.317 179.777L152.389 159.673L152.427 146.129L188.477 166.735Z" fill="#FFA878"/>
<path d="M188.206 166.735V180.163L223.521 159.789L223.56 146.245L188.206 166.735Z" fill="#FFA878"/>
<g style="mix-blend-mode:screen" opacity="0.5">
<path d="M223.559 146.245L188.206 166.773L152.427 146.129C172.132 134.901 203.815 134.939 223.559 146.245Z" fill="#FFDCBB"/>
</g>
<path d="M137.629 171.635V178.62L188.206 179.623V171.635H137.629Z" fill="#FFA878"/>
<g style="mix-blend-mode:overlay" opacity="0.5">
<path d="M152.389 150.953C142.575 156.702 137.629 164.15 137.629 171.636H188.206L152.389 150.953Z" fill="#FFDCBB"/>
</g>
<path d="M152.35 196.254C145.279 192.164 140.217 186.839 138.285 180.742C137.822 179.121 137.629 177.578 137.629 175.957V177.153C137.59 179.662 137.629 185.643 138.285 188.112L138.363 188.382C139.908 194.402 144.661 199.92 152.697 204.55C153.006 204.743 153.354 204.898 153.663 205.091V196.949C153.238 196.717 152.775 196.447 152.35 196.216V196.254Z" fill="#FFA878"/>
<path d="M188.206 176.034V180.163L153.663 201.116V196.987L188.206 176.034Z" fill="#FFA878"/>
<g style="mix-blend-mode:overlay" opacity="0.5">
<path d="M188.206 176.034L153.664 196.987C153.2 196.756 152.775 196.486 152.35 196.254C145.279 192.164 140.218 186.839 138.286 180.742C137.861 179.314 137.629 177.694 137.629 175.957L188.206 176.034Z" fill="#FFDCBB"/>
</g>
<path d="M92.1906 208.023L69.5874 221.066L67.2305 219.715L89.8723 206.673L92.1906 208.023Z" fill="#F08E58"/>
<path d="M84.8877 217.207L73.9145 223.535L71.5576 222.223L82.5308 215.895L84.8877 217.207Z" fill="#F08E58"/>
<path d="M113.828 205.515L78.2427 226.043L75.8857 224.693L111.51 204.165L113.828 205.515Z" fill="#FFDCBB"/>
<path d="M134.847 198.376L82.5312 228.552L80.2129 227.201L132.529 197.026L134.847 198.376Z" fill="#FFA878"/>
<path d="M135.194 203.2L86.8583 231.021L84.54 229.709L132.876 201.849L135.194 203.2Z" fill="#FFA878"/>
<path d="M132.645 209.644L91.1864 233.529L88.8682 232.179L130.288 208.293L132.645 209.644Z" fill="#F08E58"/>
<path d="M128.819 216.821L95.5135 236.037L93.1952 234.687L126.462 215.509L128.819 216.821Z" fill="#F08E58"/>
<path d="M126.153 223.381L99.841 238.507L97.5227 237.195L123.797 222.03L126.153 223.381Z" fill="#F08E58"/>
<path d="M145.589 217.13L104.169 241.015L101.851 239.665L143.271 215.779L145.589 217.13Z" fill="#FFA878"/>
<path d="M151.77 218.558L108.496 243.523L106.178 242.173L149.452 217.207L151.77 218.558Z" fill="#FFA878"/>
<path d="M148.602 225.387L112.823 245.993L110.505 244.642L146.284 224.037L148.602 225.387Z" fill="#FFDCBB"/>
<path d="M146.592 231.523L117.15 248.501L114.832 247.15L144.274 230.172L146.592 231.523Z" fill="#F08E58"/>
<path d="M163.091 227.008L121.478 251.009L119.16 249.659L160.734 225.657L163.091 227.008Z" fill="#FFDCBB"/>
<path d="M169.969 228.011L125.806 253.479L123.487 252.128L167.612 226.699L169.969 228.011Z" fill="#FFDCBB"/>
<path d="M127.235 253.71L125.805 254.521L65.4141 219.715L66.805 218.905L127.235 253.71Z" fill="#F08E58"/>
<path d="M146.128 263.203C147.558 264.013 147.558 265.325 146.128 266.174C144.698 266.984 142.419 266.984 140.989 266.174C139.56 265.364 139.56 264.052 140.989 263.203C142.419 262.392 144.698 262.392 146.128 263.203Z" fill="#F08E58"/>
<path d="M158.609 270.419C160.038 271.229 160.038 272.541 158.609 273.39C157.179 274.2 154.899 274.2 153.47 273.39C152.04 272.579 152.04 271.267 153.47 270.419C154.899 269.608 157.179 269.608 158.609 270.419Z" fill="#F08E58"/>
<path d="M170.934 277.48C172.363 278.29 172.363 279.602 170.934 280.451C169.504 281.261 167.224 281.261 165.795 280.451C164.365 279.641 164.365 278.329 165.795 277.48C167.224 276.669 169.504 276.669 170.934 277.48Z" fill="#F08E58"/>
<path d="M183.336 284.657C184.766 285.467 184.766 286.779 183.336 287.628C181.906 288.439 179.627 288.439 178.197 287.628C176.768 286.818 176.768 285.506 178.197 284.657C179.627 283.847 181.906 283.847 183.336 284.657Z" fill="#F08E58"/>
<path d="M195.623 291.757C197.053 292.567 197.053 293.879 195.623 294.728C194.194 295.539 191.914 295.539 190.484 294.728C189.055 293.918 189.055 292.606 190.484 291.757C191.914 290.947 194.194 290.947 195.623 291.757Z" fill="#F08E58"/>
<path d="M212.778 227.895L220.197 223.612L219.231 223.072L211.812 227.355L212.778 227.895ZM179.627 246.996L196.28 237.388L195.314 236.848L178.661 246.456L179.627 246.996ZM197.594 236.655L211.465 228.667L210.499 228.127L196.628 236.115L197.594 236.655ZM178.313 247.768L177.347 247.228L153.778 260.81L154.744 261.35L178.313 247.768ZM221.51 222.879L232.059 216.782L231.093 216.242L220.544 222.339L221.51 222.879ZM151.073 259.074L158.84 254.598L157.874 254.058L150.107 258.534L151.073 259.074ZM219.115 218.75L220.081 219.291L229.315 213.966L228.349 213.425L219.115 218.75ZM202.037 229.709L218.767 220.062L217.801 219.522L201.071 229.169L202.037 229.709ZM193.305 234.725L200.723 230.442L199.757 229.902L192.339 234.185L193.305 234.725ZM182.757 240.822L191.991 235.497L191.025 234.957L181.791 240.282L182.757 240.822ZM160.153 253.865L181.443 241.594L180.477 241.054L159.187 253.324L160.153 253.865Z" fill="#FFA878"/>
<path d="M204.664 240.629L205.63 241.169L219.501 233.182L218.535 232.642L204.664 240.629ZM204.316 241.941L203.351 241.401L186.698 251.009L187.664 251.549L204.316 241.941ZM207.292 243.523L208.258 244.063L217.492 238.738L216.526 238.198L207.292 243.523ZM217.84 237.426L218.806 237.967L226.224 233.684L225.258 233.143L217.84 237.426ZM243.302 222.763L226.572 232.41L227.538 232.95L244.268 223.304L243.302 222.763ZM184.341 257.839L183.375 257.299L165.524 267.602L166.49 268.142L184.341 257.839ZM235.111 223.072L219.849 231.87L220.815 232.41L236.077 223.612L235.111 223.072ZM186.388 252.282L185.423 251.742L161.66 265.441L162.626 265.981L186.388 252.282ZM236.425 222.3L237.391 222.841L246.316 217.708L245.35 217.168L236.425 222.3ZM206.944 244.835L205.978 244.295L184.688 256.566L185.654 257.106L206.944 244.835Z" fill="#FFA878"/>
<path d="M210.576 251.897L211.542 252.437L220.777 247.112L219.811 246.572L210.576 251.897ZM212.856 256.103L211.89 255.562L195.469 265.016L196.435 265.556L212.856 256.103ZM228.543 241.555L221.125 245.838L222.091 246.379L229.509 242.095L228.543 241.555ZM229.857 240.783L230.823 241.324L247.553 231.677L246.587 231.137L229.857 240.783ZM247.283 236.23L257.019 230.635L256.053 230.095L246.317 235.69L247.283 236.23ZM187.626 266.251L186.66 265.711L174.604 272.656L175.57 273.197L187.626 266.251ZM209.263 252.668L187.973 264.939L188.939 265.479L210.229 253.209L209.263 252.668ZM213.204 254.791L214.17 255.331L230.823 245.723L229.857 245.182L213.204 254.791ZM245.042 236.423L231.171 244.411L232.136 244.951L246.007 236.963L245.042 236.423ZM252.885 227.51L247.901 230.404L248.867 230.944L253.851 228.05L252.885 227.51ZM195.121 266.328L194.155 265.788L178.391 274.894L179.357 275.435L195.121 266.328Z" fill="#FFA878"/>
<path d="M216.527 268.258L233.18 258.649L232.214 258.109L215.561 267.717L216.527 268.258ZM234.455 257.916L248.326 249.929L247.36 249.388L233.489 257.376L234.455 257.916ZM215.213 269.029L214.247 268.489L190.678 282.072L191.644 282.612L215.213 269.029ZM187.935 280.335L195.701 275.859L194.735 275.319L186.969 279.795L187.935 280.335ZM255.976 240.012L256.942 240.552L266.177 235.227L265.211 234.687L255.976 240.012ZM238.898 250.971L255.628 241.324L254.663 240.784L237.932 250.43L238.898 250.971ZM230.166 255.987L237.585 251.704L236.619 251.163L229.2 255.447L230.166 255.987ZM219.618 262.084L228.852 256.759L227.886 256.218L218.652 261.543L219.618 262.084ZM197.015 275.087L218.304 262.817L217.338 262.277L196.049 274.547L197.015 275.087Z" fill="#FFA878"/>
<path d="M251.919 256.527L252.885 257.106L266.756 249.08L265.79 248.54L251.919 256.527Z" fill="#FFA878"/>
<path d="M239.091 268.335L240.018 268.875L249.291 263.55L248.326 263.01L239.091 268.335Z" fill="#FFA878"/>
<path d="M250.605 257.299L233.952 266.868L234.918 267.447L251.571 257.839L250.605 257.299Z" fill="#FFA878"/>
<path d="M263.974 253.98L249.601 262.277L250.567 262.817L264.94 254.521L263.974 253.98Z" fill="#FFA878"/>
<path d="M233.604 268.18L232.638 267.64L199.101 286.972L200.067 287.551L233.604 268.18Z" fill="#FFA878"/>
<path d="M267.104 247.768L268.069 248.347L275.488 244.063L274.522 243.485L267.104 247.768Z" fill="#FFA878"/>
<path d="M216.141 282.689L215.175 282.11L203.158 289.056L204.086 289.596L216.141 282.689Z" fill="#FFA878"/>
<path d="M237.778 269.106L216.488 281.377L217.454 281.917L238.744 269.647L237.778 269.106Z" fill="#FFA878"/>
<path d="M275.836 242.751L276.802 243.292L283.1 239.664L282.134 239.124L275.836 242.751Z" fill="#FFA878"/>
<path d="M339.434 201.425C339.202 201.309 339.047 201.386 339.047 201.579V203.701L312.464 188.382V186.26C312.464 186.029 312.271 185.758 312.078 185.643C311.846 185.527 311.692 185.604 311.692 185.797V187.919L285.109 172.6V170.478C285.109 170.246 284.915 169.976 284.722 169.861C284.49 169.745 284.336 169.822 284.336 170.015V172.137L257.753 156.818V154.696C257.753 154.464 257.56 154.194 257.367 154.078C257.135 153.963 256.98 154.04 256.98 154.233V156.355L230.397 141.036V138.914C230.397 138.682 230.204 138.412 230.011 138.296C229.779 138.18 229.624 138.258 229.624 138.451V140.573L203.042 125.254V123.132C203.042 122.9 202.848 122.63 202.655 122.514C202.423 122.398 202.269 122.476 202.269 122.668V124.791L179.395 111.594L175.686 109.472V90.1395L178.081 91.5287C178.313 91.6444 178.468 91.5673 178.468 91.3743C178.468 91.1814 178.275 90.8727 178.081 90.7569L175.686 89.3678V70.0356L178.081 71.4248C178.313 71.5405 178.468 71.4634 178.468 71.2704C178.468 71.0775 178.275 70.7688 178.081 70.653L175.686 69.2639V49.9317L178.081 51.3209C178.313 51.4366 178.468 51.3595 178.468 51.1665C178.468 50.9736 178.275 50.6649 178.081 50.5491L175.686 49.16V29.8279L178.081 31.217C178.313 31.3328 178.468 31.2556 178.468 31.0626C178.468 30.8697 178.275 30.561 178.081 30.4452L175.686 29.0561V9.60821L178.081 10.9973C178.313 11.1131 178.468 11.0359 178.468 10.843C178.468 10.6501 178.275 10.3414 178.081 10.2256L172.633 7.10004C172.402 6.98428 172.247 7.06146 172.247 7.25439C172.247 7.44733 172.44 7.75603 172.633 7.87179L174.913 9.18375V28.5159L172.633 27.2039C172.402 27.0882 172.247 27.1653 172.247 27.3583C172.247 27.5512 172.44 27.8599 172.633 27.9757L174.913 29.2876V48.6198L172.633 47.3078C172.402 47.1921 172.247 47.2692 172.247 47.4622C172.247 47.6551 172.44 47.9638 172.633 48.0796L174.913 49.3915V68.7237L172.633 67.4117C172.402 67.2959 172.247 67.3731 172.247 67.5661C172.247 67.759 172.44 68.0677 172.633 68.1835L174.913 69.4954V88.8276L172.633 87.5156C172.402 87.3998 172.247 87.477 172.247 87.6699C172.247 87.8629 172.44 88.1716 172.633 88.2873L174.913 89.5993V109.317C174.913 109.549 175.106 109.819 175.299 109.935L179.395 112.289L202.269 125.485V127.723C202.269 127.955 202.462 128.225 202.655 128.341C202.887 128.457 203.042 128.379 203.042 128.186V125.948L229.624 141.267V143.506C229.624 143.737 229.818 144.007 230.011 144.123C230.243 144.239 230.397 144.161 230.397 143.969V141.73L256.98 157.05V159.288C256.98 159.519 257.173 159.789 257.367 159.905C257.598 160.021 257.753 159.944 257.753 159.751V157.513L284.336 172.832V175.07C284.336 175.301 284.529 175.571 284.722 175.687C284.954 175.803 285.109 175.726 285.109 175.533V173.295L311.692 188.614V190.852C311.692 191.083 311.885 191.354 312.078 191.469C312.31 191.585 312.464 191.508 312.464 191.315V189.077L339.047 204.396V206.634C339.047 206.866 339.24 207.136 339.434 207.251C339.665 207.367 339.82 207.29 339.82 207.097V201.926C339.82 201.695 339.627 201.425 339.434 201.309V201.425Z" fill="#D85421"/>
<path d="M168.654 107.542C168.654 107.774 168.616 107.967 168.5 108.083C168.422 108.198 168.306 108.275 168.152 108.314C167.997 108.314 167.804 108.314 167.534 108.121C167.263 107.967 167.031 107.774 166.877 107.542C166.722 107.349 166.606 107.118 166.568 106.925C166.49 106.693 166.452 106.462 166.413 106.23V102.912C166.413 102.68 166.452 102.526 166.568 102.372C166.645 102.256 166.722 102.179 166.877 102.14C167.031 102.14 167.263 102.14 167.534 102.333C167.804 102.487 168.036 102.68 168.152 102.873C168.306 103.066 168.422 103.298 168.5 103.491C168.577 103.722 168.616 103.954 168.654 104.185V107.504V107.542ZM167.843 103.761C167.843 103.761 167.843 103.491 167.727 103.336C167.727 103.259 167.611 103.221 167.572 103.182C167.418 103.105 167.341 103.182 167.341 103.259C167.341 103.298 167.341 103.375 167.341 103.452V106.771C167.341 106.771 167.341 107.079 167.456 107.195C167.456 107.272 167.534 107.311 167.611 107.349C167.766 107.427 167.843 107.349 167.843 107.272C167.843 107.234 167.843 107.156 167.843 107.079V103.761Z" fill="#D85421"/>
<path d="M167.882 85.4705C167.882 85.239 167.804 85.0074 167.611 84.8917C167.534 84.8531 167.456 84.8917 167.379 84.8917C167.302 84.9303 167.302 85.046 167.302 85.0846L166.606 84.6987V81.7275L168.616 82.8851V83.6955L167.341 82.9623V84.1199C167.341 84.1199 167.534 84.1199 167.65 84.1199C168.268 84.4286 168.461 84.8145 168.616 85.1618C168.732 85.5091 168.77 85.8178 168.77 85.8949V87.1683C168.77 87.4384 168.77 87.7857 168.616 88.0172C168.461 88.2488 168.191 88.3259 167.688 88.0172C167.186 87.7085 166.916 87.3227 166.761 86.8982C166.606 86.4738 166.606 86.0493 166.606 85.6634L167.418 86.1265V86.358C167.418 86.6281 167.418 86.8596 167.456 86.9754C167.456 87.1297 167.572 87.2069 167.65 87.2455C167.727 87.2841 167.804 87.2455 167.843 87.2069C167.843 87.1297 167.92 86.9368 167.92 86.6667V85.3933L167.882 85.4705Z" fill="#D85421"/>
<path d="M164.52 61.6621V61.1219C164.867 61.2377 165.06 61.1991 165.215 61.1219C165.292 61.0833 165.37 61.0061 165.408 60.929L165.91 61.1991V66.8328L165.099 66.3697V61.9322L164.558 61.6235L164.52 61.6621Z" fill="#D85421"/>
<path d="M168.654 67.2957C168.654 67.5273 168.615 67.7202 168.5 67.836C168.422 67.9517 168.306 68.0289 168.152 68.0675C167.997 68.0675 167.804 68.0675 167.534 67.8746C167.263 67.7202 167.031 67.5273 166.877 67.2957C166.722 67.1028 166.606 66.8713 166.568 66.6784C166.49 66.4468 166.452 66.2153 166.413 65.9838V62.6653C166.413 62.4338 166.452 62.2794 166.568 62.1251C166.645 62.0093 166.722 61.9321 166.877 61.8936C167.031 61.8936 167.263 61.8936 167.534 62.0865C167.804 62.2408 168.036 62.4338 168.152 62.6267C168.306 62.8196 168.422 63.0512 168.5 63.2441C168.577 63.4756 168.615 63.7071 168.654 63.9387V67.2572V67.2957ZM167.843 63.5142C167.843 63.5142 167.843 63.2441 167.727 63.0898C167.727 63.0126 167.611 62.974 167.572 62.9354C167.418 62.8582 167.34 62.9354 167.34 63.0126C167.34 63.0512 167.34 63.1283 167.34 63.2055V66.524C167.34 66.524 167.34 66.8327 167.456 66.9485C167.456 67.0256 167.534 67.0642 167.611 67.1028C167.765 67.18 167.843 67.1028 167.843 67.0256C167.843 66.9871 167.843 66.9099 167.843 66.8327V63.5142Z" fill="#D85421"/>
<path d="M164.598 41.5584V41.0181C164.945 41.1339 165.139 41.0953 165.293 41.0181C165.37 40.9795 165.448 40.9024 165.486 40.8252L165.989 41.0953V46.729L165.177 46.266V41.8285L164.636 41.5198L164.598 41.5584Z" fill="#D85421"/>
<path d="M167.882 45.2242C167.882 44.9926 167.804 44.7611 167.611 44.6453C167.534 44.6068 167.456 44.6453 167.379 44.6453C167.302 44.6839 167.302 44.7997 167.302 44.8383L166.606 44.4524V41.4812L168.616 42.6388V43.4491L167.341 42.716V43.8736C167.341 43.8736 167.534 43.8736 167.65 43.8736C168.268 44.1823 168.461 44.5682 168.616 44.9155C168.732 45.2627 168.77 45.5714 168.77 45.6486V46.922C168.77 47.1921 168.77 47.5394 168.616 47.7709C168.461 48.0024 168.191 48.0796 167.688 47.7709C167.186 47.4622 166.916 47.0763 166.761 46.6519C166.606 46.2274 166.606 45.803 166.606 45.4171L167.418 45.8801V46.1117C167.418 46.3818 167.418 46.6133 167.456 46.729C167.456 46.8834 167.572 46.9606 167.65 46.9992C167.727 47.0377 167.804 46.9992 167.843 46.9606C167.843 46.8834 167.92 46.6905 167.92 46.4204V45.147L167.882 45.2242Z" fill="#D85421"/>
<path d="M163.67 21.4929V21.107C163.67 20.7212 163.709 20.3739 163.902 20.2195C164.056 20.0266 164.327 20.0266 164.79 20.2967C165.215 20.5282 165.486 20.8755 165.679 21.2228C165.834 21.5701 165.911 21.9559 165.911 22.3418C165.911 22.9206 165.679 23.4608 165.409 23.9625C165.138 24.4641 164.79 24.85 164.597 25.0815L165.911 25.8532V26.6636L163.67 25.3516V24.5413C163.94 24.3098 164.172 24.0396 164.365 23.7695C164.559 23.538 164.713 23.2293 164.829 22.9206C164.945 22.6119 165.061 22.2646 165.061 21.9559C165.061 21.8016 165.061 21.6087 165.022 21.4543C165.022 21.3 164.906 21.1456 164.79 21.107C164.675 21.0298 164.597 21.107 164.559 21.1842C164.559 21.3 164.52 21.4543 164.52 21.6472V22.0331L163.709 21.5701L163.67 21.4929Z" fill="#D85421"/>
<path d="M168.654 27.0494C168.654 27.2809 168.616 27.4739 168.5 27.5896C168.422 27.7054 168.306 27.7826 168.152 27.8212C167.997 27.8212 167.804 27.8212 167.534 27.6282C167.263 27.4739 167.031 27.2809 166.877 27.0494C166.722 26.8565 166.606 26.625 166.568 26.432C166.49 26.2005 166.452 25.969 166.413 25.7375V22.419C166.413 22.1874 166.452 22.0331 166.568 21.8787C166.645 21.763 166.722 21.6858 166.877 21.6472C167.031 21.6472 167.263 21.6472 167.534 21.8402C167.804 21.9945 168.036 22.1874 168.152 22.3804C168.306 22.5733 168.422 22.8048 168.5 22.9978C168.577 23.2293 168.616 23.4608 168.654 23.6923V27.0108V27.0494ZM167.843 23.2679C167.843 23.2679 167.843 22.9978 167.727 22.8434C167.727 22.7662 167.611 22.7277 167.572 22.6891C167.418 22.6119 167.341 22.6891 167.341 22.7662C167.341 22.8048 167.341 22.882 167.341 22.9592V26.2777C167.341 26.2777 167.341 26.5864 167.456 26.7021C167.456 26.7793 167.534 26.8179 167.611 26.8565C167.766 26.9337 167.843 26.8565 167.843 26.7793C167.843 26.7407 167.843 26.6635 167.843 26.5864V23.2679Z" fill="#D85421"/>
<path d="M163.747 1.42771V1.04184C163.747 0.655965 163.786 0.308681 163.979 0.154333C164.133 -0.0386028 164.404 -0.0386028 164.868 0.231507C165.293 0.46303 165.563 0.810314 165.756 1.1576C165.911 1.50488 165.988 1.89075 165.988 2.27662C165.988 2.85543 165.756 3.39565 165.486 3.89728C165.215 4.39892 164.868 4.78479 164.674 5.01631L165.988 5.78805V6.59838L163.747 5.28642V4.47609C164.018 4.24457 164.249 3.97446 164.443 3.70435C164.636 3.47282 164.79 3.16413 164.906 2.85543C165.022 2.54673 165.138 2.19945 165.138 1.89075C165.138 1.7364 165.138 1.54347 165.099 1.38912C165.099 1.23477 164.983 1.08042 164.868 1.04184C164.752 0.964662 164.674 1.04184 164.636 1.11901C164.636 1.23477 164.597 1.38912 164.597 1.58206V1.96793L163.786 1.50488L163.747 1.42771Z" fill="#D85421"/>
<path d="M167.882 4.9778C167.882 4.74628 167.804 4.51476 167.611 4.39899C167.534 4.36041 167.456 4.39899 167.379 4.39899C167.302 4.43758 167.302 4.55334 167.302 4.59193L166.606 4.20606V1.27344L168.616 2.43105V3.24138L167.341 2.50823V3.66584C167.341 3.66584 167.534 3.66584 167.65 3.66584C168.268 3.97454 168.461 4.36041 168.616 4.70769C168.732 5.05498 168.77 5.36367 168.77 5.44085V6.71422C168.77 6.98433 168.77 7.33162 168.616 7.56314C168.461 7.79466 168.191 7.87184 167.688 7.56314C167.186 7.25444 166.916 6.86857 166.761 6.44411C166.606 6.01965 166.606 5.5952 166.606 5.20932L167.418 5.67237V5.90389C167.418 6.174 167.418 6.40552 167.456 6.52129C167.456 6.67563 167.572 6.75281 167.65 6.7914C167.727 6.82998 167.804 6.7914 167.843 6.75281C167.843 6.67563 167.92 6.4827 167.92 6.21259V4.93921L167.882 4.9778Z" fill="#D85421"/>
<g opacity="0.5">
<path d="M188.863 113.871C188.863 113.871 188.747 113.794 188.708 113.717C188.515 113.524 188.438 113.215 188.515 113.099L215.909 72.5441C215.909 72.5441 216.257 72.4669 216.45 72.6598C216.643 72.8528 216.721 73.1614 216.643 73.2772L189.249 113.832C189.249 113.832 189.056 113.948 188.901 113.832L188.863 113.871Z" fill="#FFA878"/>
<path d="M243.613 137.37C243.613 137.37 243.342 137.139 243.265 136.984L215.871 72.8913C215.755 72.6597 215.832 72.4282 216.025 72.4282C216.218 72.4282 216.45 72.6212 216.566 72.8913L243.96 136.984C244.076 137.216 243.999 137.448 243.806 137.448C243.729 137.448 243.69 137.448 243.613 137.37Z" fill="#FFA878"/>
<path d="M243.613 137.37C243.613 137.37 243.343 137.139 243.265 136.984C243.149 136.753 243.227 136.521 243.42 136.521L270.814 136.213C270.814 136.213 271.239 136.406 271.355 136.676C271.471 136.907 271.394 137.139 271.201 137.139L243.806 137.447C243.806 137.447 243.69 137.447 243.613 137.37Z" fill="#FFA878"/>
<path d="M271.007 137.062C271.007 137.062 270.891 136.984 270.813 136.907C270.62 136.676 270.543 136.406 270.659 136.29L298.053 103.761C298.053 103.761 298.401 103.722 298.594 103.915C298.787 104.147 298.865 104.417 298.749 104.533L271.354 137.062C271.354 137.062 271.161 137.139 271.007 137.062Z" fill="#FFA878"/>
<path d="M298.401 104.571C298.401 104.571 298.17 104.417 298.092 104.263C297.938 104.031 297.976 103.761 298.092 103.722L325.487 95.3489C325.487 95.3489 325.912 95.4646 326.028 95.6962C326.182 95.9277 326.143 96.1978 326.028 96.2364L298.633 104.61C298.633 104.61 298.479 104.61 298.363 104.571H298.401Z" fill="#FFA878"/>
<path d="M188.862 101.793C188.862 101.793 188.63 101.639 188.553 101.484C188.399 101.253 188.437 100.983 188.553 100.944L215.947 92.5706C215.947 92.5706 216.372 92.6863 216.488 92.9178C216.643 93.1494 216.604 93.4195 216.488 93.4581L189.094 101.831C189.094 101.831 188.939 101.831 188.824 101.793H188.862Z" fill="#FFA878"/>
<path d="M216.257 93.4193C216.257 93.4193 216.102 93.3036 216.025 93.2264C215.832 92.9949 215.793 92.7248 215.909 92.609L243.303 68.1448C243.303 68.1448 243.651 68.1448 243.844 68.3377C244.037 68.5692 244.076 68.8393 243.96 68.9551L216.566 93.4193C216.566 93.4193 216.372 93.4579 216.257 93.4193Z" fill="#FFA878"/>
<path d="M271.006 112.906C271.006 112.906 270.813 112.752 270.736 112.636L243.341 68.6851C243.187 68.4536 243.187 68.1835 243.341 68.1449C243.496 68.0677 243.728 68.222 243.882 68.4922L271.277 112.443C271.431 112.674 271.431 112.945 271.277 112.983C271.199 112.983 271.084 112.983 271.006 112.945V112.906Z" fill="#FFA878"/>
<path d="M298.401 136.753L270.929 112.829C270.736 112.636 270.62 112.366 270.659 112.173C270.736 112.018 270.929 112.018 271.161 112.173L298.555 136.019C298.749 136.212 298.865 136.483 298.826 136.675C298.787 136.83 298.633 136.83 298.44 136.753H298.401Z" fill="#FFA878"/>
<path d="M325.757 184.755C325.757 184.755 325.525 184.562 325.448 184.446L298.053 136.444C297.899 136.213 297.938 135.981 298.092 135.904C298.247 135.865 298.517 136.02 298.633 136.251L326.027 184.254C326.182 184.485 326.143 184.717 325.989 184.794C325.911 184.794 325.834 184.794 325.718 184.755H325.757Z" fill="#FFA878"/>
<path d="M188.862 94.4613C188.862 94.4613 188.553 94.1526 188.476 93.9596C188.399 93.7281 188.515 93.5738 188.746 93.6124L216.141 100.635C216.334 100.712 216.566 100.944 216.643 101.175C216.72 101.407 216.604 101.561 216.372 101.523L188.978 94.4999C188.978 94.4999 188.901 94.4999 188.862 94.4613Z" fill="#F08E58"/>
<path d="M216.257 101.484C216.257 101.484 216.064 101.369 215.987 101.253C215.832 101.021 215.793 100.751 215.948 100.674L243.342 84.2744C243.342 84.2744 243.729 84.313 243.883 84.5445C244.038 84.776 244.076 85.0462 243.922 85.1233L216.527 101.523C216.527 101.523 216.334 101.523 216.218 101.523L216.257 101.484Z" fill="#F08E58"/>
<path d="M243.612 85.046C243.612 85.046 243.419 84.9303 243.342 84.8145C243.187 84.583 243.149 84.3129 243.303 84.2357L270.698 67.8362C270.698 67.8362 271.084 67.8748 271.238 68.1063C271.393 68.3378 271.432 68.6079 271.277 68.6851L243.883 85.0846C243.883 85.0846 243.69 85.0846 243.574 85.0846L243.612 85.046Z" fill="#F08E58"/>
<path d="M298.401 164.921C298.401 164.921 298.091 164.651 298.014 164.458L270.62 68.1835C270.543 67.952 270.658 67.7976 270.852 67.8362C271.045 67.8748 271.277 68.1063 271.354 68.3764L298.748 164.651C298.826 164.883 298.71 165.037 298.516 164.999C298.478 164.999 298.439 164.999 298.401 164.96V164.921Z" fill="#F08E58"/>
<path d="M325.757 192.781C325.757 192.781 325.641 192.704 325.602 192.666L298.208 164.806C298.015 164.613 297.938 164.304 298.015 164.188C298.092 164.034 298.324 164.073 298.517 164.304L325.911 192.164C326.105 192.357 326.182 192.666 326.105 192.781C326.027 192.897 325.911 192.897 325.757 192.781Z" fill="#F08E58"/>
<path d="M188.862 85.7021C188.862 85.7021 188.746 85.6249 188.669 85.5477C188.476 85.3548 188.399 85.0461 188.515 84.9303L215.909 48.3883C215.909 48.3883 216.257 48.3112 216.45 48.5427C216.643 48.7356 216.72 49.0443 216.604 49.1601L189.21 85.7021C189.21 85.7021 189.017 85.7792 188.862 85.7021Z" fill="#FFDCBB"/>
<path d="M243.612 89.0977C243.612 89.0977 243.419 88.9434 243.342 88.8662L215.947 48.9285C215.793 48.697 215.754 48.4269 215.947 48.3497C216.102 48.2726 216.334 48.3883 216.488 48.6198L243.882 88.5575C244.037 88.789 244.076 89.0591 243.882 89.1363C243.805 89.1749 243.689 89.1363 243.573 89.1363L243.612 89.0977Z" fill="#FFDCBB"/>
<path d="M271.007 125.601C271.007 125.601 270.852 125.485 270.775 125.37L242.028 86.8211C241.874 86.5896 241.835 86.3195 241.951 86.2423C242.067 86.1651 242.338 86.2423 242.492 86.4738L271.239 125.022C271.393 125.254 271.432 125.524 271.316 125.601C271.239 125.64 271.123 125.64 271.007 125.601Z" fill="#FFDCBB"/>
<path d="M271.007 125.601C271.007 125.601 270.775 125.447 270.698 125.292C270.543 125.061 270.582 124.791 270.698 124.752L298.092 115.8C298.092 115.8 298.517 115.916 298.633 116.147C298.787 116.379 298.749 116.649 298.633 116.688L271.238 125.64C271.238 125.64 271.084 125.64 270.968 125.601H271.007Z" fill="#FFDCBB"/>
<path d="M298.401 116.649C298.401 116.649 298.13 116.417 298.053 116.225C297.976 115.993 298.053 115.8 298.246 115.8L325.641 118.231C325.834 118.231 326.066 118.463 326.182 118.733C326.259 118.964 326.182 119.157 325.988 119.157L298.594 116.726C298.594 116.726 298.478 116.726 298.44 116.649H298.401Z" fill="#FFDCBB"/>
<path d="M216.257 125.64C216.257 125.64 216.025 125.447 215.948 125.331L188.553 77.3286C188.399 77.0971 188.438 76.8656 188.592 76.7884C188.747 76.7498 189.017 76.9041 189.133 77.1357L216.527 125.138C216.682 125.37 216.643 125.601 216.489 125.678C216.411 125.678 216.334 125.678 216.218 125.64H216.257Z" fill="#FFDCBB"/>
<path d="M216.257 125.64C216.257 125.64 216.025 125.485 215.948 125.331C215.793 125.099 215.832 124.829 215.948 124.791L243.342 116.417C243.342 116.417 243.767 116.533 243.883 116.765C244.038 116.996 243.999 117.266 243.883 117.305L216.489 125.678C216.489 125.678 216.334 125.678 216.218 125.64H216.257Z" fill="#FFDCBB"/>
<path d="M271.007 149.139C271.007 149.139 270.852 149.062 270.814 148.985L243.419 117.112C243.226 116.88 243.188 116.61 243.265 116.495C243.381 116.379 243.613 116.456 243.806 116.649L271.2 148.522C271.393 148.753 271.432 149.024 271.355 149.139C271.277 149.216 271.161 149.216 271.007 149.139Z" fill="#FFDCBB"/>
<path d="M271.006 149.139C271.006 149.139 270.813 148.985 270.736 148.869C270.581 148.638 270.581 148.367 270.736 148.29L308.872 130.81C308.872 130.81 309.258 130.887 309.413 131.119C309.567 131.351 309.567 131.621 309.413 131.698L271.277 149.178C271.277 149.178 271.084 149.178 271.006 149.139Z" fill="#FFDCBB"/>
<path d="M309.22 131.312C308.872 131.003 308.795 130.733 308.833 130.579L325.37 95.4646C325.37 95.4646 325.679 95.3489 325.873 95.5418C326.066 95.7347 326.182 96.0048 326.104 96.1592L309.567 131.312C309.567 131.312 309.374 131.466 309.181 131.351L309.22 131.312Z" fill="#FFDCBB"/>
</g>
<path d="M188.862 111.131C190.176 111.864 191.219 113.523 191.219 114.835C191.219 116.147 190.176 116.572 188.862 115.838C187.548 115.105 186.505 113.446 186.505 112.134C186.505 110.822 187.548 110.398 188.862 111.131Z" fill="#FFA878"/>
<path d="M216.256 70.5758C217.57 71.309 218.613 72.9682 218.613 74.2802C218.613 75.5922 217.57 76.0166 216.256 75.2835C214.943 74.5503 213.899 72.8911 213.899 71.5791C213.899 70.2671 214.943 69.8427 216.256 70.5758Z" fill="#FFA878"/>
<path d="M243.612 134.631C244.926 135.364 245.969 137.023 245.969 138.335C245.969 139.647 244.926 140.071 243.612 139.338C242.298 138.605 241.255 136.946 241.255 135.634C241.255 134.322 242.298 133.897 243.612 134.631Z" fill="#FFA878"/>
<path d="M271.006 134.322C272.32 135.055 273.363 136.714 273.363 138.026C273.363 139.338 272.32 139.762 271.006 139.029C269.693 138.296 268.649 136.637 268.649 135.325C268.649 134.013 269.693 133.589 271.006 134.322Z" fill="#FFA878"/>
<path d="M298.401 101.831C299.715 102.565 300.758 104.224 300.758 105.536C300.758 106.848 299.715 107.272 298.401 106.539C297.087 105.806 296.044 104.147 296.044 102.835C296.044 101.523 297.087 101.098 298.401 101.831Z" fill="#FFA878"/>
<path d="M325.756 93.4579C327.07 94.1911 328.113 95.8503 328.113 97.1623C328.113 98.4743 327.07 98.8987 325.756 98.1656C324.443 97.4324 323.399 95.7732 323.399 94.4612C323.399 93.1492 324.443 92.7248 325.756 93.4579Z" fill="#FFA878"/>
<path d="M188.862 99.0531C190.176 99.7863 191.219 101.446 191.219 102.758C191.219 104.069 190.176 104.494 188.862 103.761C187.548 103.028 186.505 101.368 186.505 100.056C186.505 98.7444 187.548 98.32 188.862 99.0531Z" fill="#FFA878"/>
<path d="M216.256 90.6796C217.57 91.4128 218.613 93.072 218.613 94.384C218.613 95.6959 217.57 96.1204 216.256 95.3872C214.943 94.6541 213.899 92.9948 213.899 91.6829C213.899 90.3709 214.943 89.9464 216.256 90.6796Z" fill="#FFA878"/>
<path d="M243.612 66.2155C244.926 66.9486 245.969 68.6079 245.969 69.9199C245.969 71.2318 244.926 71.6563 243.612 70.9231C242.298 70.19 241.255 68.5307 241.255 67.2188C241.255 65.9068 242.298 65.4823 243.612 66.2155Z" fill="#FFA878"/>
<path d="M271.006 110.166C272.32 110.899 273.363 112.559 273.363 113.871C273.363 115.183 272.32 115.607 271.006 114.874C269.693 114.141 268.649 112.481 268.649 111.169C268.649 109.857 269.693 109.433 271.006 110.166Z" fill="#FFA878"/>
<path d="M298.401 134.013C299.715 134.746 300.758 136.405 300.758 137.717C300.758 139.029 299.715 139.454 298.401 138.721C297.087 137.988 296.044 136.328 296.044 135.016C296.044 133.704 297.087 133.28 298.401 134.013Z" fill="#FFA878"/>
<path d="M325.756 182.016C327.07 182.749 328.113 184.408 328.113 185.72C328.113 187.032 327.07 187.456 325.756 186.723C324.443 185.99 323.399 184.331 323.399 183.019C323.399 181.707 324.443 181.282 325.756 182.016Z" fill="#FFA878"/>
<path d="M188.862 91.1816C190.176 91.9147 191.219 93.574 191.219 94.8859C191.219 96.1979 190.176 96.6223 188.862 95.8892C187.548 95.156 186.505 93.4968 186.505 92.1848C186.505 90.8729 187.548 90.4484 188.862 91.1816Z" fill="#F08E58"/>
<path d="M216.256 98.7445C217.57 99.4777 218.613 101.137 218.613 102.449C218.613 103.761 217.57 104.185 216.256 103.452C214.943 102.719 213.899 101.06 213.899 99.7478C213.899 98.4359 214.943 98.0114 216.256 98.7445Z" fill="#F08E58"/>
<path d="M271.006 65.9069C272.32 66.6401 273.363 68.2993 273.363 69.6113C273.363 70.9232 272.32 71.3477 271.006 70.6145C269.693 69.8814 268.649 68.2221 268.649 66.9102C268.649 65.5982 269.693 65.1737 271.006 65.9069Z" fill="#F08E58"/>
<path d="M298.401 162.182C299.715 162.915 300.758 164.574 300.758 165.886C300.758 167.198 299.715 167.623 298.401 166.889C297.087 166.156 296.044 164.497 296.044 163.185C296.044 161.873 297.087 161.449 298.401 162.182Z" fill="#F08E58"/>
<path d="M325.756 190.042C327.07 190.775 328.113 192.434 328.113 193.746C328.113 195.058 327.07 195.482 325.756 194.749C324.443 194.016 323.399 192.357 323.399 191.045C323.399 189.733 324.443 189.309 325.756 190.042Z" fill="#F08E58"/>
<path d="M188.862 82.9623C190.176 83.6955 191.219 85.3547 191.219 86.6667C191.219 87.9786 190.176 88.4031 188.862 87.6699C187.548 86.9368 186.505 85.2775 186.505 83.9656C186.505 82.6536 187.548 82.2292 188.862 82.9623Z" fill="#FFDCBB"/>
<path d="M216.256 46.4203C217.57 47.1535 218.613 48.8127 218.613 50.1247C218.613 51.4367 217.57 51.8611 216.256 51.128C214.943 50.3948 213.899 48.7356 213.899 47.4236C213.899 46.1116 214.943 45.6872 216.256 46.4203Z" fill="#FFDCBB"/>
<path d="M241.912 84.0815C243.226 84.8146 244.269 86.4739 244.269 87.7858C244.269 89.0978 243.226 89.5222 241.912 88.7891C240.598 88.0559 239.555 86.3967 239.555 85.0847C239.555 83.7728 240.598 83.3483 241.912 84.0815Z" fill="#FFDCBB"/>
<path d="M271.006 122.283C272.32 123.016 273.363 124.675 273.363 125.987C273.363 127.299 272.32 127.723 271.006 126.99C269.693 126.257 268.649 124.598 268.649 123.286C268.649 121.974 269.693 121.549 271.006 122.283Z" fill="#FFDCBB"/>
<path d="M298.401 113.909C299.715 114.642 300.758 116.301 300.758 117.613C300.758 118.925 299.715 119.35 298.401 118.617C297.087 117.884 296.044 116.224 296.044 114.912C296.044 113.6 297.087 113.176 298.401 113.909Z" fill="#FFDCBB"/>
<path d="M325.756 116.302C327.07 117.035 328.113 118.694 328.113 120.006C328.113 121.318 327.07 121.742 325.756 121.009C324.443 120.276 323.399 118.617 323.399 117.305C323.399 115.993 324.443 115.569 325.756 116.302Z" fill="#FFDCBB"/>
<path d="M188.862 74.8976C190.176 75.6308 191.219 77.29 191.219 78.602C191.219 79.914 190.176 80.3384 188.862 79.6052C187.548 78.8721 186.505 77.2129 186.505 75.9009C186.505 74.5889 187.548 74.1645 188.862 74.8976Z" fill="#FFDCBB"/>
<path d="M216.256 122.9C217.57 123.633 218.613 125.292 218.613 126.604C218.613 127.916 217.57 128.341 216.256 127.608C214.943 126.875 213.899 125.215 213.899 123.903C213.899 122.591 214.943 122.167 216.256 122.9Z" fill="#FFDCBB"/>
<path d="M243.612 114.527C244.926 115.26 245.969 116.919 245.969 118.231C245.969 119.543 244.926 119.967 243.612 119.234C242.298 118.501 241.255 116.842 241.255 115.53C241.255 114.218 242.298 113.793 243.612 114.527Z" fill="#FFDCBB"/>
<path d="M271.006 146.4C272.32 147.133 273.363 148.792 273.363 150.104C273.363 151.416 272.32 151.84 271.006 151.107C269.693 150.374 268.649 148.715 268.649 147.403C268.649 146.091 269.693 145.666 271.006 146.4Z" fill="#FFDCBB"/>
<path d="M308.988 128.186C310.302 128.92 311.345 130.579 311.345 131.891C311.345 133.203 310.302 133.627 308.988 132.894C307.674 132.161 306.631 130.502 306.631 129.19C306.631 127.878 307.674 127.453 308.988 128.186Z" fill="#FFDCBB"/>
<path d="M325.756 93.4579C327.07 94.1911 328.113 95.8503 328.113 97.1623C328.113 98.4743 327.07 98.8987 325.756 98.1656C324.443 97.4324 323.399 95.7732 323.399 94.4612C323.399 93.1492 324.443 92.7248 325.756 93.4579Z" fill="#FFDCBB"/>
<path d="M363.66 166.542C363.66 168.008 362.462 168.51 360.994 167.661C359.526 166.812 358.328 164.921 358.328 163.455C358.328 161.989 359.526 161.487 360.994 162.336C362.462 163.185 363.66 165.076 363.66 166.542Z" fill="#FFA878"/>
<path d="M363.621 190.543C363.621 192.009 362.423 192.511 360.955 191.662C359.487 190.813 358.289 188.922 358.289 187.456C358.289 185.99 359.487 185.488 360.955 186.337C362.423 187.186 363.621 189.077 363.621 190.543Z" fill="#FFDCBB"/>
<path d="M363.621 214.544C363.621 216.011 362.423 216.512 360.955 215.663C359.487 214.814 358.289 212.924 358.289 211.457C358.289 209.991 359.487 209.489 360.955 210.338C362.423 211.187 363.621 213.078 363.621 214.544Z" fill="#F08E58"/>
<path d="M363.66 118.462C363.66 119.929 362.462 120.43 360.994 119.581C359.526 118.732 358.328 116.842 358.328 115.375C358.328 113.909 359.526 113.407 360.994 114.256C362.462 115.105 363.66 116.996 363.66 118.462Z" fill="#FFA878"/>
<path d="M363.66 142.464C363.66 143.93 362.462 144.431 360.994 143.583C359.526 142.734 358.328 140.843 358.328 139.377C358.328 137.91 359.526 137.409 360.994 138.258C362.462 139.106 363.66 140.997 363.66 142.464Z" fill="#FFDCBB"/>
<defs>
<linearGradient id="paint0_linear_445_1040" x1="240.057" y1="324.749" x2="211.079" y2="324.749" gradientUnits="userSpaceOnUse">
<stop stop-color="#F0A989"/>
<stop offset="1" stop-color="#CE633D"/>
</linearGradient>
<linearGradient id="paint1_linear_445_1040" x1="30.3696" y1="272.734" x2="40.1643" y2="289.685" gradientUnits="userSpaceOnUse">
<stop offset="0.62" stop-color="#FFDDBF"/>
<stop offset="0.86" stop-color="#FFBD9C"/>
<stop offset="1" stop-color="#F0A989"/>
</linearGradient>
<linearGradient id="paint2_linear_445_1040" x1="52.0452" y1="287.513" x2="57.7523" y2="297.475" gradientUnits="userSpaceOnUse">
<stop offset="0.62" stop-color="#FFDDBF"/>
<stop offset="0.86" stop-color="#FFBD9C"/>
<stop offset="1" stop-color="#F0A989"/>
</linearGradient>
</defs>
</svg>
