<svg width="100" height="100" viewBox="0 0 100 100" fill="none" xmlns="http://www.w3.org/2000/svg">
<rect width="100" height="100" rx="50" fill="#FF6200"/>
<path d="M49.7784 64.7365C57.483 64.7365 63.7288 57.4453 63.7288 48.4512C63.7288 39.4572 57.483 32.166 49.7784 32.166C42.0737 32.166 35.8279 39.4572 35.8279 48.4512C35.8279 57.4453 42.0737 64.7365 49.7784 64.7365Z" fill="#4B93AC"/>
<path d="M39.9244 57.2044C44.8489 57.2044 48.8409 53.2008 48.8409 48.2621C48.8409 43.3234 44.8489 39.3198 39.9244 39.3198C35 39.3198 31.0079 43.3234 31.0079 48.2621C31.0079 53.2008 35 57.2044 39.9244 57.2044Z" fill="#324657"/>
<path d="M33.4281 46.515C38.3525 46.515 42.3446 42.5114 42.3446 37.5727C42.3446 32.634 38.3525 28.6304 33.4281 28.6304C28.5036 28.6304 24.5116 32.634 24.5116 37.5727C24.5116 42.5114 28.5036 46.515 33.4281 46.515Z" fill="#324657"/>
<path d="M65.6955 46.6883C70.62 46.6883 74.612 42.6847 74.612 37.746C74.612 32.8073 70.62 28.8037 65.6955 28.8037C60.7711 28.8037 56.7791 32.8073 56.7791 37.746C56.7791 42.6847 60.7711 46.6883 65.6955 46.6883Z" fill="#324657"/>
<path d="M59.3318 56.9491C64.2562 56.9491 68.2483 52.9455 68.2483 48.0068C68.2483 43.0681 64.2562 39.0645 59.3318 39.0645C54.4073 39.0645 50.4153 43.0681 50.4153 48.0068C50.4153 52.9455 54.4073 56.9491 59.3318 56.9491Z" fill="#324657"/>
<path d="M35.4917 36.2338C36.8877 39.5961 36.2457 43.0606 34.065 43.9702C31.8792 44.8798 28.9801 42.8971 27.584 39.5348C26.1879 36.1725 26.8299 32.708 29.0106 31.7984C31.1965 30.8889 34.0956 32.8715 35.4917 36.2338Z" fill="#E8B592"/>
<path d="M64.0651 36.2338C62.669 39.5961 63.311 43.0606 65.4917 43.9702C67.6775 44.8798 70.5767 42.8971 71.9727 39.5348C73.3688 36.1725 72.7268 32.708 70.5461 31.7984C68.3603 30.8889 65.4612 32.8715 64.0651 36.2338Z" fill="#E8B592"/>
<path d="M41.9012 71.4716C41.9012 75.8354 45.4271 79.3715 49.7783 79.3715C54.1296 79.3715 57.6554 75.8354 57.6554 71.4716V53.1015C57.6554 48.7377 54.1296 45.2017 49.7783 45.2017C45.4271 45.2017 41.9012 48.7377 41.9012 53.1015V71.4716Z" fill="#E8B592"/>
<g style="mix-blend-mode:multiply" opacity="0.5">
<path d="M49.7783 45.2017C54.1296 45.2017 57.6554 48.7377 57.6554 53.1015V54.2513C54.2569 57.864 49.7579 60.0663 44.8309 60.0663C43.8374 60.0663 42.854 59.9743 41.9012 59.8057V53.1067C41.9012 48.7428 45.4271 45.2068 49.7783 45.2068V45.2017Z" fill="#E8B592"/>
</g>
<path d="M68.982 39.3612C68.982 51.9059 60.3865 57.5422 49.7784 57.5422C39.1703 57.5422 30.5748 51.9059 30.5748 39.3612C30.5748 26.8164 34.5134 12.1152 49.7784 12.1152C65.0434 12.1152 68.982 26.8164 68.982 39.3612Z" fill="#E8B592"/>
<path d="M50.3694 29.2689C55.2938 29.2689 59.2859 25.2653 59.2859 20.3266C59.2859 15.3879 55.2938 11.3843 50.3694 11.3843C45.4449 11.3843 41.4529 15.3879 41.4529 20.3266C41.4529 25.2653 45.4449 29.2689 50.3694 29.2689Z" fill="#324657"/>
<g style="mix-blend-mode:multiply" opacity="0.5">
<path d="M33.8917 42.248L33.3006 40.3011C33.3006 40.3011 40.8567 42.7692 44.7647 36.9797C49.9465 39.0236 54.1041 38.0885 56.993 31.7012C58.4349 35.4467 63.7848 35.5336 63.7848 35.5336C63.7848 35.5336 65.9452 38.9163 64.0141 41.0165C67.7743 38.0017 65.5681 32.9786 65.5681 32.9786L58.2668 24.4604L33.214 31.6143L31.0894 36.8928L31.5989 40.8939L33.8866 42.248H33.8917Z" fill="#E8B592"/>
</g>
<path d="M69.6036 28.5022C69.6036 31.7725 66.9592 34.4195 63.7034 34.4195C60.4476 34.4195 57.8032 31.7674 57.8032 28.5022C57.8032 25.237 60.4476 22.585 63.7034 22.585C66.9592 22.585 69.6036 25.237 69.6036 28.5022Z" fill="#324657"/>
<path d="M56.6975 28.6761C56.6975 32.7436 53.4112 36.0445 49.3504 36.0445C45.2895 36.0445 42.0032 32.7436 42.0032 28.6761C42.0032 24.6086 45.2946 21.3076 49.3504 21.3076C53.4061 21.3076 56.6975 24.6086 56.6975 28.6761Z" fill="#324657"/>
<path d="M36.6941 39.5345C41.6185 39.5345 45.6106 35.5309 45.6106 30.5922C45.6106 25.6535 41.6185 21.6499 36.6941 21.6499C31.7696 21.6499 27.7776 25.6535 27.7776 30.5922C27.7776 35.5309 31.7696 39.5345 36.6941 39.5345Z" fill="#324657"/>
<path d="M49.7783 7C38.7575 7 29.8207 14.6648 29.8207 25.227C29.8207 35.7891 39.2722 28.5893 50.2929 28.5893C61.3137 28.5893 69.7309 35.784 69.7309 25.227C69.7309 14.6699 60.7991 7 49.7783 7ZM57.686 25.3803C57.3905 25.9373 56.7383 26.2694 56.0504 26.2694C55.811 26.2694 55.5664 26.2285 55.332 26.1416C49.2637 23.9137 44.4081 26.065 44.3571 26.0854C43.496 26.4789 42.4108 26.2132 41.9369 25.4927C41.4682 24.7722 41.7841 23.8677 42.6502 23.4743C42.9101 23.3568 49.1109 20.6025 56.7688 23.4181C57.6707 23.7502 58.0783 24.6291 57.6809 25.3803H57.686Z" fill="#4B93AC"/>
<path d="M57.6707 66.3716C57.6707 66.3716 55.8925 79.3711 49.7784 79.3711C43.6642 79.3711 41.8758 66.3716 41.8758 66.3716C28.6234 72.3604 18 74.6956 18 84.9562V88.4719C26.6108 95.6666 37.6927 99.9998 49.7784 99.9998C61.864 99.9998 73.3281 95.5184 82 88.0937V84.9614C82 74.6956 69.252 71.5377 57.6707 66.3716Z" fill="#E8B592"/>
<path d="M40.6479 27.9094C40.6479 31.1798 38.0035 33.8267 34.7477 33.8267C31.4919 33.8267 28.8475 31.1747 28.8475 27.9094C28.8475 24.6442 31.4919 21.9922 34.7477 21.9922C38.0035 21.9922 40.6479 24.6442 40.6479 27.9094Z" fill="#324657"/>
<path d="M45.4883 30.3777C45.4883 32.5187 43.7559 34.251 41.6262 34.251C39.4964 34.251 37.764 32.5187 37.764 30.3777C37.764 28.2366 39.4964 26.5044 41.6262 26.5044C43.7559 26.5044 45.4883 28.2366 45.4883 30.3777Z" fill="#324657"/>
<path d="M72.7014 34.4656C72.7014 36.6066 70.9691 38.3389 68.8393 38.3389C66.7095 38.3389 64.9772 36.6066 64.9772 34.4656C64.9772 32.3245 66.7095 30.5923 68.8393 30.5923C70.9691 30.5923 72.7014 32.3245 72.7014 34.4656Z" fill="#324657"/>
<path d="M36.0623 32.0794C36.0623 35.3497 33.4179 37.9966 30.1621 37.9966C26.9063 37.9966 24.262 35.3446 24.262 32.0794C24.262 28.8141 26.9063 26.1621 30.1621 26.1621C33.4179 26.1621 36.0623 28.8141 36.0623 32.0794Z" fill="#324657"/>
<path d="M33.3567 42.2278C33.5401 42.2534 33.7133 42.2482 33.8917 42.2482C32.8523 41.0525 32.3071 39.4327 32.5364 37.7362C32.7198 36.3974 33.3516 35.2324 34.2585 34.3739C32.1593 34.1746 30.2588 35.6565 29.9735 37.772C29.678 39.9437 31.1913 41.9365 33.3567 42.2329V42.2278Z" fill="#324657"/>
<path d="M67.5553 24.5425C67.3718 24.5425 67.1986 24.5731 67.0203 24.5987C68.2125 25.6411 68.9717 27.1741 68.9717 28.8859C68.9717 30.2349 68.5029 31.4766 67.7183 32.4526C69.8226 32.3657 71.5091 30.6386 71.5091 28.5078C71.5091 26.3769 69.7411 24.5425 67.5553 24.5425Z" fill="#324657"/>
<path d="M63.8613 33.1016C63.6779 33.1016 63.5046 33.1322 63.3263 33.1578C64.5186 34.2002 65.2777 35.7332 65.2777 37.445C65.2777 38.794 64.809 40.0357 64.0243 41.0117C66.1286 40.9248 67.8151 39.1977 67.8151 37.0668C67.8151 34.936 66.0471 33.1016 63.8613 33.1016Z" fill="#324657"/>
<path d="M57.6707 66.3716C57.6707 66.3716 55.8925 79.3711 49.7784 79.3711C43.6642 79.3711 41.8758 66.3716 41.8758 66.3716C36.8928 68.625 32.2766 70.3573 28.4654 72.1917C28.3024 72.2991 28.1444 72.4166 27.9916 72.5341C28.873 76.1928 29.566 85.968 29.7392 95.7637C35.8687 98.477 42.6452 99.9998 49.7784 99.9998C56.9116 99.9998 63.9683 98.4157 70.1997 95.595C70.3729 85.8556 71.0659 76.1775 71.9422 72.5392C67.6776 70.3828 62.5774 68.5586 57.6758 66.3716H57.6707Z" fill="#D35244"/>
<path d="M53.5488 96.4335H47.2818C45.5596 96.4335 44.8514 95.2072 45.7125 93.71C46.5735 92.2128 47.9849 89.7651 48.846 88.2679C49.707 86.7707 51.1184 86.7707 51.9795 88.2679C52.8406 89.7651 54.2519 92.2128 55.113 93.71C55.9741 95.2072 55.2709 96.4335 53.5437 96.4335H53.5488Z" fill="#FFEFCF"/>
<path d="M54.8735 48.7731H44.8768L42.8999 45.3853H57.5484L54.8735 48.7731Z" fill="white"/>
</svg>
