<svg width="100" height="100" viewBox="0 0 100 100" fill="none" xmlns="http://www.w3.org/2000/svg">
<rect width="100" height="100" rx="50" fill="#FF6200"/>
<g clip-path="url(#clip0_902_24773)">
<path d="M72.2751 31.1722C72.2751 42.6105 62.4117 51.8868 50.2442 51.8868C38.0767 51.8868 28.2133 42.6105 28.2133 31.1722C28.2133 19.7338 38.0767 10.4575 50.2442 10.4575C62.4117 10.4575 72.2751 19.7338 72.2751 31.1722Z" fill="#A7664A"/>
<path d="M58.324 67.4414H42.0105C28.8025 72.9874 22.1295 75.1494 22.1295 84.6533V92.6482C30.0925 97.3037 39.5101 100 49.6018 100C60.2404 100 70.1304 97.0069 78.3535 91.8765V84.6533C78.3535 75.1494 69.865 72.2255 58.3187 67.4414H58.324Z" fill="#324657"/>
<path d="M50.4459 83.7975C57.2626 83.7975 62.7885 78.6188 62.7885 72.2305C62.7885 65.8423 57.2626 60.6636 50.4459 60.6636C43.6293 60.6636 38.1033 65.8423 38.1033 72.2305C38.1033 78.6188 43.6293 83.7975 50.4459 83.7975Z" fill="#ACACAC"/>
<path d="M42.037 72.3788C42.037 76.6038 45.7106 80.0274 50.2442 80.0274C54.7778 80.0274 58.4514 76.6038 58.4514 72.3788V54.593C58.4514 50.3679 54.7778 46.9443 50.2442 46.9443C45.7106 46.9443 42.037 50.3679 42.037 54.593V72.3788Z" fill="#F0CDB2"/>
<g style="mix-blend-mode:multiply" opacity="0.5">
<path d="M50.2442 46.9395C54.7778 46.9395 58.4514 50.363 58.4514 54.5881V55.7012C54.9105 59.199 50.2229 61.3313 45.0895 61.3313C44.0543 61.3313 43.035 61.2423 42.037 61.079V54.593C42.037 50.368 45.7106 46.9444 50.2442 46.9444V46.9395Z" fill="#F0CDB2"/>
</g>
<path d="M70.2525 36.9012C70.2525 49.047 61.2968 58.8923 50.2442 58.8923C39.1915 58.8923 30.2358 49.047 30.2358 36.9012C30.2358 24.7554 39.1915 14.9102 50.2442 14.9102C61.2968 14.9102 70.2525 24.7554 70.2525 36.9012Z" fill="#F0CDB2"/>
<path d="M15 87.6318C18.8275 90.8426 23.17 93.5241 27.9 95.5624C32.0143 85.455 28.192 73.8633 28.192 73.8633C20.3034 78.4 16.6563 83.5107 15 87.6318Z" fill="#324657"/>
<path d="M72.0893 73.8579C72.0893 73.8579 68.3732 85.1429 72.2326 95.1514C76.9308 93.0191 81.2255 90.2436 84.9946 86.9536C83.2162 82.9561 79.5533 78.1522 72.0893 73.8579Z" fill="#324657"/>
<path d="M33.6759 35.8919C35.1305 39.1473 34.4616 42.5016 32.1895 43.3822C29.9121 44.2628 26.8914 42.3433 25.4369 39.0879C23.9823 35.8325 24.6512 32.4782 26.9233 31.5976C29.2007 30.7169 32.2213 32.6365 33.6759 35.8919Z" fill="#F0CDB2"/>
<path d="M66.8125 35.8919C65.3579 39.1473 66.0268 42.5016 68.2989 43.3822C70.5763 44.2628 73.5969 42.3433 75.0515 39.0879C76.5061 35.8325 75.8372 32.4782 73.5651 31.5976C71.2877 30.7169 68.267 32.6365 66.8125 35.8919Z" fill="#F0CDB2"/>
<path d="M73.0289 41.9673C72.6149 42.3532 72.1795 42.6798 71.7336 42.9321C71.8929 43.1349 71.9937 43.3872 71.9937 43.6643C71.9937 44.347 71.3992 44.9011 70.6666 44.9011C69.934 44.9011 69.3394 44.347 69.3394 43.6643C69.3394 43.6396 69.3447 43.6148 69.35 43.5901C68.989 43.5752 68.6387 43.5159 68.3042 43.3823C68.1025 43.3031 67.922 43.1992 67.7468 43.0855C67.7043 43.2735 67.6831 43.4615 67.6831 43.6594C67.6831 45.198 69.0209 46.4398 70.6666 46.4398C72.3123 46.4398 73.65 45.193 73.65 43.6594C73.65 43.0211 73.4165 42.4324 73.0289 41.9624V41.9673Z" fill="#ACACAC"/>
<path d="M70.5445 40.8887C69.159 40.9381 68.0176 41.8633 67.7416 43.0853C67.9168 43.1991 68.0973 43.303 68.299 43.3821C68.6334 43.5108 68.9838 43.5751 69.3448 43.5899C69.3873 42.9567 69.9287 42.457 70.6136 42.4323L70.5445 40.8936V40.8887Z" fill="#ACACAC"/>
<path d="M44.8029 46.6475H54.7991C54.7991 46.6475 54.2682 51.5948 49.8461 51.5948C45.424 51.5948 44.8029 46.6475 44.8029 46.6475Z" fill="white"/>
<g style="mix-blend-mode:multiply" opacity="0.5">
<path d="M58.8761 36.9608C62.2312 36.9608 65.2571 35.6596 67.4178 33.5817C65.3208 23.2764 56.9597 15.5684 46.9529 15.5684C46.3052 15.5684 45.6629 15.603 45.0311 15.6673C40.0675 17.1367 35.8684 20.6493 33.23 25.3345C33.2194 25.5126 33.2087 25.6907 33.2087 25.8688C33.2087 31.9936 38.5333 36.9558 45.1054 36.9558H58.8814L58.8761 36.9608Z" fill="#F0CDB2"/>
</g>
<path d="M44.9196 14.6579V6C42.0105 6 39.6534 8.19663 39.6534 10.9078V14.6579H44.9196Z" fill="#A7664A"/>
<path d="M42.5626 14.5393L35.9958 8.41943C33.9413 10.339 33.9413 13.446 35.9958 15.3606L38.8412 18.0124L42.5679 14.5393H42.5626Z" fill="#A7664A"/>
<path d="M70.4278 31.9294C68.3308 21.624 59.9697 13.916 49.9629 13.916C45.7584 13.916 41.8512 15.2815 38.5652 17.6216C37.0947 19.467 36.2081 21.7477 36.2081 24.2214C36.2081 30.3462 41.5327 35.3084 48.1048 35.3084H61.8808C65.2359 35.3084 68.2618 34.0073 70.4224 31.9294H70.4278Z" fill="#A7664A"/>
<path d="M32.4177 39.365C32.4177 40.4385 31.4834 41.3142 30.3261 41.3142C29.1741 41.3142 28.2345 40.4435 28.2345 39.365V31.4788C28.2345 30.4053 29.1688 25.9131 30.3261 25.9131C31.4781 25.9131 32.4177 22.0541 32.4177 23.1326V39.365Z" fill="#A7664A"/>
<path d="M72.3016 39.365C72.3016 40.4386 71.3673 41.3142 70.21 41.3142C69.058 41.3142 68.1184 40.4435 68.1184 39.365V27.8623C68.1184 26.7888 69.0527 25.9131 70.21 25.9131C71.362 25.9131 72.3016 30.1579 72.3016 31.2315V39.365Z" fill="#A7664A"/>
</g>
<defs>
<clipPath id="clip0_902_24773">
<rect width="70" height="94" fill="white" transform="translate(15 6)"/>
</clipPath>
</defs>
</svg>
