<svg width="100" height="100" viewBox="0 0 100 100" fill="none" xmlns="http://www.w3.org/2000/svg">
<rect width="100" height="100" rx="50" fill="#FF6200"/>
<g clip-path="url(#clip0_902_24769)">
<path d="M50 96.5907C68.7777 96.5907 84 81.3258 84 62.4956C84 43.6653 68.7777 28.4004 50 28.4004C31.2223 28.4004 16 43.6653 16 62.4956C16 81.3258 31.2223 96.5907 50 96.5907Z" fill="#D35244"/>
<g style="mix-blend-mode:multiply" opacity="0.4">
<path d="M75.7353 58.7327C78.042 44.4818 68.3917 31.0539 54.1806 28.7407C39.9695 26.4274 26.5791 36.1048 24.2723 50.3557C21.9655 64.6066 31.6158 78.0344 45.827 80.3477C60.0381 82.6609 73.4285 72.9836 75.7353 58.7327Z" fill="#D35244"/>
</g>
<path d="M72.746 31.6879C72.746 44.2203 62.614 54.3758 50.1214 54.3758C37.6288 54.3758 27.4968 44.2154 27.4968 31.6879C27.4968 19.1604 37.624 9 50.1214 9C62.6188 9 72.746 19.1604 72.746 31.6879Z" fill="#D35244"/>
<path d="M32.8786 45.8957C35.8964 45.8957 38.3429 43.4424 38.3429 40.4161C38.3429 37.3898 35.8964 34.9365 32.8786 34.9365C29.8608 34.9365 27.4143 37.3898 27.4143 40.4161C27.4143 43.4424 29.8608 45.8957 32.8786 45.8957Z" fill="#FFE8D9"/>
<path d="M66.6357 45.8957C69.6535 45.8957 72.1 43.4424 72.1 40.4161C72.1 37.3898 69.6535 34.9365 66.6357 34.9365C63.6178 34.9365 61.1714 37.3898 61.1714 40.4161C61.1714 43.4424 63.6178 45.8957 66.6357 45.8957Z" fill="#FFE8D9"/>
<path d="M42.7338 72.8066C42.7338 76.9662 46.0949 80.3367 50.2429 80.3367C54.3909 80.3367 57.752 76.9662 57.752 72.8066V55.2963C57.752 51.1367 54.3909 47.7661 50.2429 47.7661C46.0949 47.7661 42.7338 51.1367 42.7338 55.2963V72.8066Z" fill="#FFE8D9"/>
<path d="M57.6354 67.9458H42.7094C30.6248 73.4059 24.5194 75.5344 24.5194 84.8911V92.7622C31.8051 97.3456 40.4217 100 49.6551 100C59.3888 100 68.4377 97.0533 75.9614 92.0024V84.8911C75.9614 75.5344 68.1948 72.6558 57.6306 67.9458H57.6354Z" fill="#4B93AC"/>
<g style="mix-blend-mode:multiply" opacity="0.7">
<path d="M50.2429 48.9839C54.3909 48.9839 57.752 52.3544 57.752 56.5141V57.61C54.5123 61.0536 50.2235 63.1529 45.5266 63.1529C44.5795 63.1529 43.6469 63.0652 42.7338 62.9045V56.5189C42.7338 52.3593 46.0949 48.9888 50.2429 48.9888V48.9839Z" fill="#FFE8D9"/>
</g>
<path d="M68.5494 34.0014C68.5494 45.959 60.3554 59.5289 50.2428 59.5289C40.1303 59.5289 31.9363 45.959 31.9363 34.0014C31.9363 22.0437 40.1351 16.228 50.2428 16.228C60.3506 16.228 68.5494 22.0437 68.5494 34.0014Z" fill="#FFE8D9"/>
<path d="M33.6898 50.5669C35.1491 50.5669 36.3321 49.3806 36.3321 47.9173C36.3321 46.4539 35.1491 45.2676 33.6898 45.2676C32.2305 45.2676 31.0475 46.4539 31.0475 47.9173C31.0475 49.3806 32.2305 50.5669 33.6898 50.5669Z" fill="#E9C982"/>
<path d="M66.2957 50.5669C67.755 50.5669 68.938 49.3806 68.938 47.9173C68.938 46.4539 67.755 45.2676 66.2957 45.2676C64.8364 45.2676 63.6534 46.4539 63.6534 47.9173C63.6534 49.3806 64.8364 50.5669 66.2957 50.5669Z" fill="#E9C982"/>
<path d="M75.1211 80.1226C59.5297 87.302 45.8957 86.8344 37.0071 85.081C31.9169 84.0727 27.7834 82.5482 24.908 81.2623C24.6554 82.3436 24.5243 83.5369 24.5243 84.891V85.3489C27.4774 86.586 31.3826 87.9255 36.0746 88.8655C39.5474 89.562 43.6906 90.0783 48.368 90.0783C56.2851 90.0783 65.7177 88.5928 75.9469 84.024C75.8691 82.5725 75.5874 81.2867 75.1309 80.1226H75.1211Z" fill="white"/>
<path d="M67.5585 72.6167C55.1485 76.6399 44.4239 76.0749 37.0071 74.6088C35.0594 74.224 33.2525 73.7613 31.6011 73.2694C30.0759 74.1656 28.8034 75.091 27.7688 76.1285C30.1537 76.9614 32.9368 77.7699 36.0697 78.3983C39.5425 79.0948 43.6857 79.6111 48.3631 79.6111C55.1388 79.6111 63.0317 78.52 71.5802 75.3443C70.4291 74.3604 69.0739 73.4691 67.5585 72.6216V72.6167Z" fill="white"/>
<path d="M75.9663 92.0023V89.9565C60.0251 97.5452 46.056 97.097 37.0071 95.3095C31.6837 94.2574 27.4094 92.6354 24.5194 91.3203V92.7621C31.8051 97.3455 40.4217 100 49.6551 100C59.3888 100 68.4377 97.0532 75.9614 92.0023H75.9663Z" fill="white"/>
<path d="M61.0888 67.1856C61.0888 68.4715 60.0494 69.5138 58.7671 69.5138H41.8934C40.6111 69.5138 39.5717 68.4715 39.5717 67.1856C39.5717 65.8998 40.6111 64.8574 41.8934 64.8574H58.7671C60.0494 64.8574 61.0888 65.8998 61.0888 67.1856Z" fill="white"/>
<g style="mix-blend-mode:multiply" opacity="0.7">
<path d="M52.0983 14.4258C51.7098 14.7375 51.3358 15.0005 50.986 15.2295C50.612 15.02 50.2138 14.7619 49.7912 14.4258C40.9998 16.0818 34.4863 22.3943 34.4863 33.5921C34.4863 34.3715 34.5203 33.7821 34.5835 34.5712C36.6138 35.857 39.018 36.3587 41.602 36.3587C45.1623 36.3587 48.3923 34.0792 50.7675 30.8986C53.1669 34.0938 56.5475 36.3587 60.2972 36.3587C62.8763 36.3587 65.2806 35.857 67.3158 34.5712C67.3789 33.7821 67.4129 34.3715 67.4129 33.5921C67.4129 22.3943 60.8995 16.077 52.108 14.4258H52.0983Z" fill="#FFE8D9"/>
</g>
<path d="M51.4571 19.5547C51.4571 15.3658 49.5094 16.8465 46.4737 14.4258C37.6823 16.0818 31.1688 22.3943 31.1688 33.5921C31.1688 34.3715 31.2028 33.7821 31.266 34.5712C33.2963 35.857 35.7005 36.3587 38.2845 36.3587C45.5605 36.3587 51.462 26.851 51.462 19.5547H51.4571Z" fill="#D35244"/>
<path d="M50.1117 20.5288C50.1117 16.34 52.0594 16.8465 55.0951 14.4258C63.8865 16.0818 70.4 22.3943 70.4 33.5921C70.4 34.3715 70.366 33.7821 70.3028 34.5712C68.2725 35.857 65.8682 36.3587 63.2842 36.3587C56.0082 36.3587 50.1068 27.8252 50.1068 20.5288H50.1117Z" fill="#D35244"/>
<path d="M56.2317 18.7805C56.2317 21.4497 54.0751 23.6123 51.4134 23.6123C48.7517 23.6123 46.5951 21.4497 46.5951 18.7805C46.5951 16.1113 48.7517 13.9487 51.4134 13.9487C54.0751 13.9487 56.2317 16.1113 56.2317 18.7805Z" fill="#D35244"/>
<path d="M50.544 51.6289C52.924 51.6289 54.8571 49.6952 54.8571 47.3037H46.2357C46.2357 49.6904 48.164 51.6289 50.5489 51.6289H50.544Z" fill="#324657"/>
<path d="M50.5441 49.0425C49.3395 49.0425 48.2515 49.5393 47.4695 50.3381C48.2515 51.1369 49.3395 51.6337 50.5441 51.6337C51.7486 51.6337 52.8366 51.1369 53.6186 50.3381C52.8366 49.5393 51.7486 49.0425 50.5441 49.0425Z" fill="#D35244"/>
</g>
<defs>
<clipPath id="clip0_902_24769">
<rect width="68" height="91" fill="white" transform="translate(16 9)"/>
</clipPath>
</defs>
</svg>
