<svg width="100" height="100" viewBox="0 0 100 100" fill="none" xmlns="http://www.w3.org/2000/svg">
<rect width="100" height="100" rx="50" fill="#FF6200"/>
<g clip-path="url(#clip0_902_24771)">
<path d="M85.0326 60.1652C87.5567 56.7634 89.0472 52.5478 89.0472 47.9825C89.0472 36.7078 79.9482 27.5669 68.7251 27.5669C60.3064 27.5669 53.0823 32.7112 49.9973 40.0365C46.9124 32.7112 39.6883 27.5669 31.2696 27.5669C20.0465 27.5669 10.9475 36.7078 10.9475 47.9825C10.9475 52.5478 12.4432 56.7634 14.9621 60.1652C11.311 63.3217 8.99475 67.9912 8.99475 73.2086C8.99475 78.6921 11.5499 83.5756 15.5334 86.7269C15.523 86.7686 15.5178 86.8104 15.5074 86.8521C17.0499 88.2556 18.6806 89.5652 20.3893 90.7704C20.9346 87.593 21.7863 83.5078 22.9912 80.0226C23.334 78.5199 23.8949 77.2312 24.6843 76.0834C24.783 75.906 24.8816 75.7286 24.9803 75.5617L24.9907 75.6556C27.8939 71.8312 33.4457 69.546 41.6099 65.8573C41.5735 65.7791 41.5372 65.6956 41.5008 65.6173C45.2765 63.4052 48.2835 60.0034 50.0025 55.9234C51.7216 60.0034 54.7234 63.4052 58.5043 65.6173C58.4679 65.6904 58.442 65.7634 58.4056 65.8365C67.4059 69.8434 74.4483 72.666 76.7802 78.8799C78.172 82.073 79.1899 86.2521 79.8755 89.8156C83.4642 87.1078 86.6842 83.9304 89.4419 80.3773C90.439 78.1965 90.9999 75.7704 90.9999 73.2139C90.9999 67.9965 88.6836 63.3217 85.0326 60.1704V60.1652Z" fill="#324657"/>
<path d="M50.5167 59.3043C65.7186 59.3043 78.0422 46.924 78.0422 31.6522C78.0422 16.3803 65.7186 4 50.5167 4C35.3148 4 22.9912 16.3803 22.9912 31.6522C22.9912 46.924 35.3148 59.3043 50.5167 59.3043Z" fill="#324657"/>
<path d="M35.5438 35.3254C36.9668 38.7585 36.3125 42.2959 34.0896 43.2246C31.8616 44.1533 28.9065 42.1289 27.4835 38.6959C26.0605 35.2628 26.7149 31.7254 28.9377 30.7967C31.1657 29.868 34.1208 31.8924 35.5438 35.3254Z" fill="#A7664A"/>
<path d="M64.6689 35.3254C63.2459 38.7585 63.9003 42.2959 66.1231 43.2246C68.3511 44.1533 71.3062 42.1289 72.7292 38.6959C74.1523 35.2628 73.4979 31.7254 71.2751 30.7967C69.0471 29.868 66.092 31.8924 64.6689 35.3254Z" fill="#A7664A"/>
<g style="mix-blend-mode:multiply" opacity="0.4">
<path d="M20.3892 90.7702C20.9346 87.5928 21.7863 83.5076 22.9912 80.0224C23.3339 78.5198 23.8948 77.2311 24.6843 76.0833C24.7829 75.9059 24.8816 75.7285 24.9803 75.5615L24.9907 75.6554C27.8938 71.8311 33.4457 69.5459 41.6098 65.8572C41.5735 65.7789 41.5371 65.6954 41.5008 65.6172C44.6065 63.7963 47.1876 61.1772 48.9638 58.0363V37.918C45.4738 31.7354 38.8625 27.5615 31.2748 27.5615C30.6048 27.5615 29.9453 27.598 29.2961 27.6607C36.193 29.9511 41.1736 36.478 41.1736 44.1737C41.1736 53.7789 33.4249 61.5633 23.8637 61.5633C21.241 61.5633 18.7585 60.9737 16.5305 59.925C16.6811 60.8537 16.7642 61.8085 16.7642 62.7789C16.7642 68.6537 13.861 73.845 9.42578 76.9911C10.3035 80.9093 12.5055 84.3215 15.5385 86.7215C15.5281 86.7633 15.5229 86.805 15.5126 86.8467C17.055 88.2502 18.6858 89.5598 20.3944 90.765L20.3892 90.7702Z" fill="#324657"/>
</g>
<g style="mix-blend-mode:multiply" opacity="0.4">
<path d="M83.3135 62.7844C83.3135 61.814 83.3966 60.8592 83.5472 59.9305C81.3192 60.9792 78.8367 61.5688 76.214 61.5688C66.6528 61.5688 58.9041 53.7844 58.9041 44.1792C58.9041 36.4888 63.8743 29.967 70.7661 27.6714C70.1065 27.6036 69.4417 27.5723 68.7666 27.5723C61.1945 27.5827 54.5987 31.7514 51.1139 37.9288V58.047C52.8901 61.1879 55.4712 63.807 58.5769 65.6279C58.5354 65.7062 58.5042 65.7897 58.4679 65.8731C67.437 69.8697 74.4534 72.687 76.7801 78.8853C78.172 82.0784 79.1899 86.2575 79.8754 89.8157C83.4641 87.1079 86.6841 83.9305 89.4418 80.3775C89.9404 79.2923 90.3247 78.1444 90.5896 76.9497C86.1855 73.7984 83.3135 68.6279 83.3135 62.7844Z" fill="#324657"/>
</g>
<path d="M58.0109 65.6646H42.0513C29.1299 71.5132 22.6017 73.7932 22.6017 83.8158V92.2472C30.3919 97.1567 39.6052 100 49.478 100C59.8857 100 69.5612 96.8437 77.6059 91.4332V83.8158C77.6059 73.7932 69.3015 70.7098 58.0057 65.6646H58.0109Z" fill="#E9C982"/>
<path d="M42.0773 70.8714C42.0773 75.3271 45.6712 78.9375 50.1064 78.9375C54.5416 78.9375 58.1355 75.3271 58.1355 70.8714V52.1149C58.1355 47.6593 54.5416 44.0488 50.1064 44.0488C45.6712 44.0488 42.0773 47.6593 42.0773 52.1149V70.8714Z" fill="#A7664A"/>
<g style="mix-blend-mode:multiply" opacity="0.5">
<path d="M50.1064 44.0488C54.5416 44.0488 58.1355 47.6593 58.1355 52.1149V53.2888C54.6715 56.9775 50.0856 59.2262 45.0635 59.2262C44.0508 59.2262 43.0536 59.1323 42.0773 58.9601V52.1201C42.0773 47.6645 45.6712 44.054 50.1064 44.054V44.0488Z" fill="#A7664A"/>
</g>
<path d="M41.5891 76.0155C43.9988 76.6103 46.8604 77.0485 50.0596 77.0485C55.7569 77.0485 62.5136 75.6555 69.6547 71.2729C67.8369 70.1772 65.7699 69.1598 63.5056 68.1216C51.8358 73.8138 41.8228 70.7511 36.5462 68.1529C35.6892 68.5442 34.8635 68.9303 34.0845 69.3059C32.7393 69.9581 31.5137 70.5894 30.4075 71.2311C32.3394 72.4833 36.2761 74.7059 41.5942 76.0155H41.5891Z" fill="#D35244"/>
<path d="M50.0597 77.0486C46.8605 77.0486 43.9989 76.6104 41.5892 76.0156C38.6393 75.2904 36.11 74.2834 34.1157 73.313C35.1648 81.1182 41.8177 87.1391 49.878 87.1391C57.9383 87.1391 64.5132 81.1912 65.6194 73.4539C59.9741 76.1304 54.6664 77.0434 50.0545 77.0434L50.0597 77.0486Z" fill="#E9C982"/>
<path d="M65.6558 69.1393C65.583 69.1028 65.5051 69.0663 65.4272 69.0298C65.5051 69.0663 65.5779 69.1028 65.6558 69.1393Z" fill="#F0CDB2"/>
<path d="M36.5462 68.1532C41.8228 70.7463 51.841 73.8141 63.5056 68.1219C61.7761 67.3289 59.9428 66.5254 58.0109 65.6646H42.0513C39.6103 66.7706 37.4031 67.7463 35.4192 68.675C35.7879 68.5028 36.1619 68.3306 36.5462 68.1532Z" fill="#A7664A"/>
<path d="M33.9442 39.478C33.9442 40.8241 32.8588 41.9145 31.5189 41.9145C30.1789 41.9145 29.0935 40.8241 29.0935 39.478C29.0935 38.1319 30.1789 37.0415 31.5189 37.0415C32.8588 37.0415 33.9442 38.1319 33.9442 39.478Z" fill="white"/>
<path d="M32.9368 45.9999C33.025 46.4486 32.7342 46.8816 32.2928 46.9703C31.8461 47.059 31.4151 46.7669 31.3268 46.3234L30.1946 40.6103C30.1063 40.1616 30.3919 39.7286 30.8386 39.6399C31.2852 39.5512 31.7163 39.8434 31.8046 40.2869L32.9368 45.9999Z" fill="white"/>
<path d="M66.2738 39.478C66.2738 40.8241 67.3592 41.9145 68.6992 41.9145C70.0391 41.9145 71.1245 40.8241 71.1245 39.478C71.1245 38.1319 70.0391 37.0415 68.6992 37.0415C67.3592 37.0415 66.2738 38.1319 66.2738 39.478Z" fill="white"/>
<path d="M67.2813 45.9999C67.193 46.4486 67.4838 46.8816 67.9253 46.9703C68.3719 47.059 68.803 46.7669 68.8913 46.3234L70.0235 40.6103C70.1118 40.1616 69.8261 39.7286 69.3795 39.6399C68.9328 39.5512 68.5018 39.8434 68.4135 40.2869L67.2813 45.9999Z" fill="white"/>
<path d="M69.6806 28.6522C69.6806 41.4609 67.0475 56.6487 50.1064 56.6487C33.1652 56.6487 30.5321 41.4609 30.5321 28.6522C30.5321 15.8435 39.2935 10.2661 50.1064 10.2661C60.9192 10.2661 69.6806 15.8435 69.6806 28.6522Z" fill="#A7664A"/>
<path d="M57.2527 70.4277L50.174 65.1738H49.9143L44.6844 70.8504C48.3095 71.5182 52.5786 71.6173 57.2527 70.4277Z" fill="#E5E7E4"/>
<g style="mix-blend-mode:multiply" opacity="0.5">
<path d="M30.4387 30.6085C30.4387 30.6085 47.6655 34.652 54.0275 20.1737C59.221 31.5216 69.6703 30.5772 69.6703 30.5772L57.2682 13.7824L51.4256 9.34766L30.4335 30.6085H30.4387Z" fill="#A7664A"/>
</g>
<path d="M24.9855 75.5615C22.6847 79.3493 21.2046 86.0537 20.3944 90.7702C22.4199 92.1998 24.5544 93.4885 26.7876 94.6102L24.9906 75.5615H24.9855Z" fill="#E9C982"/>
<path d="M75.6636 76.6938L74.064 93.6086C76.0894 92.4765 78.0318 91.2086 79.8755 89.8208C79.0134 85.3704 77.6423 79.9547 75.6636 76.6991V76.6938Z" fill="#E9C982"/>
<path d="M40.1765 61.9131L50.174 65.174L42.9654 73.1931L35.5647 68.5653L40.1765 61.9131Z" fill="white"/>
<path d="M60.2338 61.9131L49.9143 65.174L57.4449 73.1931L64.7157 68.6957L60.2338 61.9131Z" fill="white"/>
<path d="M55.0194 10.3495C55.0194 10.3495 53.4614 30.6086 30.4387 30.6086C28.3613 18.0869 33.9027 4.61035 55.0194 10.3495Z" fill="#324657"/>
<path d="M53.8094 14.5237C53.8094 14.5237 57.0345 30.5776 69.6703 30.5776C76.64 23.5758 66.5334 8.69583 56.3178 9.47844C50.0856 10.6106 53.8094 14.5237 53.8094 14.5237Z" fill="#324657"/>
<path d="M45.0791 43.3286C45.1986 45.833 47.25 47.826 49.774 47.826C52.2981 47.826 54.3495 45.833 54.4689 43.3286H45.0791Z" fill="white"/>
</g>
<defs>
<clipPath id="clip0_902_24771">
<rect width="82" height="96" fill="white" transform="translate(9 4)"/>
</clipPath>
</defs>
</svg>
