<svg width="755" height="443" viewBox="0 0 755 443" fill="none" xmlns="http://www.w3.org/2000/svg">
<g clip-path="url(#clip0_481_1171)">
<path fill-rule="evenodd" clip-rule="evenodd" d="M495.01 289.404L495.051 290.784L494.522 291.3L494.312 291.094L494.299 290.807L493.934 290.869L493.811 292.497L494.15 292.547L494.265 292.844L493.936 292.96L493.638 292.916L493.244 293.146L493.35 293.846L492.674 295.012L492.631 295.605L492.601 295.942L492.188 296.088L487.08 295.361L485.126 292.896L485 292.466L485.308 292.505L485.482 292.918L485.79 293.065L486.439 293.011L487.188 292.646L489.567 292.861L489.983 292.782L490.561 292.204L490.869 292.346L490.818 291.941L491.237 291.798L491.547 291.222L492.478 290.431L492.582 290.174L493.307 289.459L494.073 288.937L494.438 288.317L494.632 288.436V289.226L494.818 289.3L495.006 289.401M494.714 290.149L494.857 290.214L494.998 290.057L494.842 289.947L494.712 290.149" fill="#323130"/>
// ... existing SVG paths ...
</g>
</svg>
