<svg width="40" height="36" viewBox="0 0 40 36" fill="none" xmlns="http://www.w3.org/2000/svg">
<path d="M24.3516 2C24.3516 0.895432 25.247 0 26.3516 0H37.2928C38.6382 0 39.5999 1.30174 39.2045 2.58776L29.3658 34.5878C29.1077 35.4272 28.3323 36 27.4541 36H26.3516C25.247 36 24.3516 35.1046 24.3516 34V2Z" fill="#FF6200"/>
<path d="M0 2C0 0.895431 0.89543 0 2 0H12.9412C14.2867 0 15.2483 1.30174 14.8529 2.58776L5.01427 34.5878C4.75619 35.4271 3.98075 36 3.10258 36H2C0.89543 36 0 35.1046 0 34V2Z" fill="#FF6200"/>
</svg>
