<svg width="21" height="19" viewBox="0 0 21 19" fill="none" xmlns="http://www.w3.org/2000/svg">
<path d="M18.3863 18.4601L16.5002 18.4465L14.179 14.2742L16.6586 9.64966L19.997 15.6519C20.6957 16.9086 19.8001 18.4692 18.3848 18.4586L18.3863 18.4601Z" fill="#FF6200"/>
<path d="M3.89162 18.3589L1.8294 18.3437C0.412645 18.3347 -0.460798 16.7619 0.255722 15.5143L4.08851 8.83911L6.58745 13.3306L3.89162 18.3573V18.3589Z" fill="white"/>
<path d="M7.45065 11.7229L4.98132 7.28434L6.78595 4.14185L9.19458 8.46996L7.45065 11.7229Z" fill="white"/>
<path d="M10.2249 18.4027H10.1079L9.40621 18.3966L5.62671 18.3709L7.47427 14.926L8.33587 13.3169L10.0798 10.0655L10.9429 8.45798L7.67856 2.59037L8.63195 0.92839C9.34699 -0.319233 11.1176 -0.307134 11.8178 0.951074L15.772 8.05874L13.2923 12.6833L12.4292 14.2908L10.6853 17.5422L10.2234 18.4042L10.2249 18.4027Z" fill="#FF6200"/>
</svg>
